SplineFontDB: 3.0
FontName: DuctusSerif
FullName: Ductus Serif
FamilyName: DuctusSerif
Weight: Book
Copyright: 
Version: 001.000
ItalicAngle: 0
UnderlinePosition: -150
UnderlineWidth: 50
Ascent: 800
Descent: 200
InvalidEm: 0
sfntRevision: 0x00010000
LayerCount: 2
Layer: 0 1 "Arri+AOgA-re" 1
Layer: 1 1 "Avant" 0
XUID: [1021 706 -322349554 2515030]
StyleMap: 0x0000
FSType: 0
OS2Version: 4
OS2_WeightWidthSlopeOnly: 0
OS2_UseTypoMetrics: 1
CreationTime: 1510948569
ModificationTime: 1519143519
PfmFamily: 17
TTFWeight: 400
TTFWidth: 5
LineGap: 90
VLineGap: 0
Panose: 2 0 5 3 0 0 0 0 0 0
OS2TypoAscent: 800
OS2TypoAOffset: 0
OS2TypoDescent: -200
OS2TypoDOffset: 0
OS2TypoLinegap: 90
OS2WinAscent: 1194
OS2WinAOffset: 0
OS2WinDescent: 231
OS2WinDOffset: 0
HheadAscent: 1194
HheadAOffset: 0
HheadDescent: -231
HheadDOffset: 0
OS2SubXSize: 650
OS2SubYSize: 700
OS2SubXOff: 0
OS2SubYOff: 140
OS2SupXSize: 650
OS2SupYSize: 700
OS2SupXOff: 0
OS2SupYOff: 480
OS2StrikeYSize: 49
OS2StrikeYPos: 258
OS2CapHeight: 732
OS2XHeight: 525
OS2Vendor: 'PfEd'
OS2CodePages: 00000001.00000000
OS2UnicodeRanges: 00000003.00000000.00000000.00000000
MarkAttachClasses: 1
DEI: 91125
ShortTable: cvt  2
  33
  633
EndShort
ShortTable: maxp 16
  1
  0
  150
  99
  8
  0
  0
  2
  0
  1
  1
  0
  64
  46
  0
  0
EndShort
LangName: 1033 "" "" "Serif"
GaspTable: 1 65535 2 0
Encoding: UnicodeBmp
UnicodeInterp: none
NameList: AGL For New Fonts
DisplaySize: -48
AntiAlias: 1
FitToEm: 0
WinInfo: 0 30 11
BeginPrivate: 0
EndPrivate
Grid
-1000 524 m 0
 2000 524 l 1024
EndSplineSet
BeginChars: 65539 150

StartChar: .notdef
Encoding: 65536 -1 0
Width: 364
Flags: W
LayerCount: 2
Fore
SplineSet
33 0 m 1,0,-1
 33 666 l 1,1,-1
 298 666 l 1,2,-1
 298 0 l 1,3,-1
 33 0 l 1,0,-1
66 33 m 1,4,-1
 265 33 l 1,5,-1
 265 633 l 1,6,-1
 66 633 l 1,7,-1
 66 33 l 1,4,-1
EndSplineSet
EndChar

StartChar: exclam
Encoding: 33 33 4
Width: 306
Flags: W
LayerCount: 2
Fore
SplineSet
148 730 m 1,0,-1
 188 730 l 1,1,-1
 188 243 l 1,2,-1
 148 243 l 1,3,-1
 108 243 l 1,4,-1
 108 730 l 1,5,-1
 148 730 l 1,0,-1
148 97 m 1,6,-1
 188 97 l 1,7,-1
 188 0 l 1,8,-1
 148 0 l 1,9,-1
 108 0 l 1,10,-1
 108 97 l 1,11,-1
 148 97 l 1,6,-1
EndSplineSet
EndChar

StartChar: quotedbl
Encoding: 34 34 5
Width: 496
Flags: W
LayerCount: 2
Fore
SplineSet
149 731 m 1,0,-1
 109 731 l 1,1,-1
 109 840 l 1,2,-1
 149 840 l 1,3,-1
 189 840 l 1,4,-1
 189 731 l 1,5,-1
 149 731 l 1,0,-1
343 731 m 1,6,-1
 303 731 l 1,7,-1
 303 840 l 1,8,-1
 343 840 l 1,9,-1
 383 840 l 1,10,-1
 383 731 l 1,11,-1
 343 731 l 1,6,-1
EndSplineSet
EndChar

StartChar: numbersign
Encoding: 35 35 6
Width: 1452
Flags: W
LayerCount: 2
Fore
SplineSet
576 163 m 1,0,-1
 576 123 l 1,1,-1
 187 123 l 1,2,-1
 187 163 l 1,3,-1
 187 203 l 1,4,-1
 576 203 l 1,5,-1
 576 163 l 1,0,-1
576 358 m 1,6,-1
 576 318 l 1,7,-1
 187 318 l 1,8,-1
 187 358 l 1,9,-1
 187 398 l 1,10,-1
 576 398 l 1,11,-1
 576 358 l 1,6,-1
333 504 m 1,12,-1
 372 500 l 1,13,-1
 324 13 l 1,14,-1
 284 17 l 1,15,-1
 244 21 l 1,16,-1
 293 508 l 1,17,-1
 333 504 l 1,12,-1
479 504 m 1,18,-1
 518 500 l 1,19,-1
 470 13 l 1,20,-1
 430 17 l 1,21,-1
 390 21 l 1,22,-1
 439 508 l 1,23,-1
 479 504 l 1,18,-1
EndSplineSet
EndChar

StartChar: dollar
Encoding: 36 36 7
Width: 687
Flags: W
LayerCount: 2
Fore
SplineSet
544 701 m 1,0,-1
 589 701 l 1,1,-1
 589 576 l 2,2,3
 589 559 589 559 576 547 c 128,-1,4
 563 535 563 535 546 536 c 0,5,6
 525 538 525 538 515 556 c 0,7,8
 478 620 478 620 413 643 c 0,9,10
 352 667 352 667 293.5 644 c 128,-1,11
 235 621 235 621 214 563 c 0,12,13
 206 539 206 539 215.5 519.5 c 128,-1,14
 225 500 225 500 247 485.5 c 128,-1,15
 269 471 269 471 304.5 455 c 128,-1,16
 340 439 340 439 377 424 c 128,-1,17
 414 409 414 409 460.5 385.5 c 128,-1,18
 507 362 507 362 544 337 c 0,19,20
 584 309 584 309 605 273 c 128,-1,21
 626 237 626 237 622 188.5 c 128,-1,22
 618 140 618 140 582 88 c 0,23,24
 580 85 580 85 577 82 c 0,25,26
 553 58 553 58 523 39 c 0,27,28
 454 -5 454 -5 372 -8.5 c 128,-1,29
 290 -12 290 -12 216 25.5 c 128,-1,30
 142 63 142 63 96 136 c 1,31,-1
 164 179 l 1,32,33
 198 125 198 125 253 97 c 128,-1,34
 308 69 308 69 368.5 71.5 c 128,-1,35
 429 74 429 74 481 107 c 0,36,37
 501 119 501 119 518 136 c 1,38,39
 542 172 542 172 545.5 196.5 c 128,-1,40
 549 221 549 221 537 237 c 128,-1,41
 525 253 525 253 495 273 c 0,42,43
 481 283 481 283 456 294.5 c 128,-1,44
 431 306 431 306 404 316.5 c 128,-1,45
 377 327 377 327 345 340.5 c 128,-1,46
 313 354 313 354 284.5 367.5 c 128,-1,47
 256 381 256 381 227.5 399 c 128,-1,48
 199 417 199 417 179 436 c 128,-1,49
 159 455 159 455 144.5 479 c 128,-1,50
 130 503 130 503 129.5 530 c 128,-1,51
 129 557 129 557 139 590 c 0,52,53
 156 636 156 636 189.5 669.5 c 128,-1,54
 223 703 223 703 264 717.5 c 128,-1,55
 305 732 305 732 351.5 734 c 128,-1,56
 398 736 398 736 440 719 c 0,57,58
 473 707 473 707 527 663 c 1,59,60
 527 663 527 663 529 666.5 c 128,-1,61
 531 670 531 670 533.5 676 c 128,-1,62
 536 682 536 682 538.5 687.5 c 128,-1,63
 541 693 541 693 542 697 c 2,64,-1
 544 701 l 1,0,-1
363 766 m 1,65,-1
 403 766 l 1,66,-1
 403 -41 l 1,67,-1
 363 -41 l 1,68,-1
 323 -41 l 1,69,-1
 323 766 l 1,70,-1
 363 766 l 1,65,-1
130 225 m 1,71,-1
 170 225 l 1,72,-1
 170 67 l 1,73,-1
 130 67 l 1,74,-1
 90 67 l 1,75,-1
 90 225 l 1,76,-1
 130 225 l 1,71,-1
EndSplineSet
EndChar

StartChar: percent
Encoding: 37 37 8
Width: 740
Flags: W
LayerCount: 2
Fore
SplineSet
288 607 m 1,0,-1
 322 586 l 1,1,2
 301 552 301 552 268.5 537 c 128,-1,3
 236 522 236 522 204.5 525.5 c 128,-1,4
 173 529 173 529 146 546 c 0,5,6
 118 564 118 564 101.5 592 c 128,-1,7
 85 620 85 620 85.5 657 c 128,-1,8
 86 694 86 694 110 728 c 1,9,-1
 142 705 l 1,10,-1
 149 700 l 1,11,-1
 155 696 l 1,12,-1
 175 682 l 1,13,14
 170 675 170 675 167.5 668 c 128,-1,15
 165 661 165 661 164.5 654.5 c 128,-1,16
 164 648 164 648 165.5 642.5 c 128,-1,17
 167 637 167 637 170.5 631.5 c 128,-1,18
 174 626 174 626 178.5 622 c 128,-1,19
 183 618 183 618 189 614 c 0,20,21
 229 588 229 588 255 629 c 1,22,-1
 288 607 l 1,0,-1
142 705 m 1,23,-1
 109 726 l 1,24,25
 130 760 130 760 162.5 774.5 c 128,-1,26
 195 789 195 789 226.5 786 c 128,-1,27
 258 783 258 783 285 766 c 0,28,29
 313 748 313 748 329.5 720 c 128,-1,30
 346 692 346 692 345.5 655 c 128,-1,31
 345 618 345 618 321 584 c 1,32,-1
 288 607 l 1,33,-1
 282 612 l 1,34,-1
 276 616 l 1,35,-1
 256 630 l 1,36,37
 270 653 270 653 265.5 669.5 c 128,-1,38
 261 686 261 686 242 698 c 0,39,40
 202 724 202 724 176 683 c 1,41,-1
 142 705 l 1,23,-1
581 72 m 1,42,-1
 614 50 l 1,43,44
 593 17 593 17 560.5 2 c 128,-1,45
 528 -13 528 -13 496.5 -9.5 c 128,-1,46
 465 -6 465 -6 438 11 c 0,47,48
 410 29 410 29 393.5 57 c 128,-1,49
 377 85 377 85 377.5 121.5 c 128,-1,50
 378 158 378 158 402 192 c 1,51,-1
 434 169 l 1,52,-1
 441 165 l 1,53,-1
 447 161 l 1,54,-1
 467 146 l 1,55,56
 453 124 453 124 457.5 107 c 128,-1,57
 462 90 462 90 481 78 c 0,58,59
 521 53 521 53 547 93 c 1,60,-1
 581 72 l 1,42,-1
451 159 m 2,61,62
 443 164 443 164 437 168 c 0,63,64
 435 169 435 169 434 169 c 2,65,-1
 401 191 l 1,66,67
 422 224 422 224 454.5 239 c 128,-1,68
 487 254 487 254 518.5 250.5 c 128,-1,69
 550 247 550 247 577 230 c 0,70,71
 605 213 605 213 621.5 184.5 c 128,-1,72
 638 156 638 156 637.5 119.5 c 128,-1,73
 637 83 637 83 613 49 c 1,74,-1
 581 72 l 1,75,-1
 574 76 l 1,76,-1
 568 81 l 1,77,-1
 548 95 l 1,78,79
 557 109 557 109 558 122 c 128,-1,80
 559 135 559 135 552.5 145 c 128,-1,81
 546 155 546 155 534 163 c 0,82,83
 494 188 494 188 468 148 c 1,84,-1
 451 159 l 2,61,62
532 705 m 1,85,-1
 567 685 l 1,86,-1
 177 3 l 1,87,-1
 142 23 l 1,88,-1
 108 43 l 1,89,-1
 497 724 l 1,90,-1
 532 705 l 1,85,-1
EndSplineSet
EndChar

StartChar: ampersand
Encoding: 38 38 9
Width: 657
Flags: W
LayerCount: 2
Fore
SplineSet
511 384 m 1,0,-1
 551 384 l 1,1,2
 551 307 551 307 530 238 c 0,3,4
 533 235 533 235 534 233 c 0,5,6
 560 201 560 201 572 166 c 128,-1,7
 584 131 584 131 578 89 c 128,-1,8
 572 47 572 47 544 7 c 1,9,-1
 511 30 l 1,10,-1
 478 53 l 1,11,12
 499 82 499 82 501.5 106 c 128,-1,13
 504 130 504 130 493 150 c 1,14,15
 459 89 459 89 410 48 c 0,16,17
 363 9 363 9 309 -7 c 128,-1,18
 255 -23 255 -23 201 -9 c 128,-1,19
 147 5 147 5 108 51 c 0,20,21
 72 93 72 93 66.5 142 c 128,-1,22
 61 191 61 191 82 237.5 c 128,-1,23
 103 284 103 284 135 324.5 c 128,-1,24
 167 365 167 365 209 400 c 1,25,26
 183 426 183 426 166 454.5 c 128,-1,27
 149 483 149 483 141 515.5 c 128,-1,28
 133 548 133 548 141.5 585 c 128,-1,29
 150 622 150 622 176 658 c 0,30,31
 196 687 196 687 226 697.5 c 128,-1,32
 256 708 256 708 284.5 702 c 128,-1,33
 313 696 313 696 337 679 c 0,34,35
 371 655 371 655 391 617.5 c 128,-1,36
 411 580 411 580 408.5 530.5 c 128,-1,37
 406 481 406 481 374 435 c 0,38,39
 371 431 371 431 366 426 c 128,-1,40
 361 421 361 421 356.5 417 c 128,-1,41
 352 413 352 413 346 407 c 128,-1,42
 340 401 340 401 336 398 c 1,43,44
 350 387 350 387 376 368.5 c 128,-1,45
 402 350 402 350 424 333.5 c 128,-1,46
 446 317 446 317 464 302 c 1,47,48
 471 342 471 342 471 384 c 1,49,-1
 511 384 l 1,0,-1
438 219 m 1,50,51
 411 243 411 243 346.5 290.5 c 128,-1,52
 282 338 282 338 271 347 c 1,53,54
 216 303 216 303 184.5 257.5 c 128,-1,55
 153 212 153 212 148.5 172.5 c 128,-1,56
 144 133 144 133 169 102 c 0,57,58
 201 62 201 62 253.5 63.5 c 128,-1,59
 306 65 306 65 359 109 c 0,60,61
 409 151 409 151 438 219 c 1,50,51
279 450 m 1,62,63
 297 465 297 465 309 482 c 0,64,65
 320 498 320 498 325 514.5 c 128,-1,66
 330 531 330 531 329 545.5 c 128,-1,67
 328 560 328 560 323 573 c 128,-1,68
 318 586 318 586 309.5 596 c 128,-1,69
 301 606 301 606 291 614 c 0,70,71
 258 637 258 637 241 613 c 0,72,73
 220 582 220 582 218.5 555 c 128,-1,74
 217 528 217 528 231.5 504 c 128,-1,75
 246 480 246 480 279 450 c 1,62,63
EndSplineSet
EndChar

StartChar: quotesingle
Encoding: 39 39 10
Width: 249
Flags: W
LayerCount: 2
Fore
SplineSet
95 604 m 1,0,-1
 60 623 l 1,1,2
 104 706 104 706 104 799 c 1,3,-1
 144 799 l 1,4,-1
 184 799 l 1,5,6
 184 686 184 686 131 586 c 1,7,-1
 95 604 l 1,0,-1
EndSplineSet
EndChar

StartChar: parenleft
Encoding: 40 40 11
Width: 371
Flags: W
LayerCount: 2
Fore
SplineSet
259 753 m 1,0,-1
 290 727 l 1,1,2
 203 623 203 623 172.5 493.5 c 128,-1,3
 142 364 142 364 172.5 234 c 128,-1,4
 203 104 203 104 290 0 c 1,5,-1
 259 -26 l 1,6,-1
 229 -51 l 1,7,8
 129 67 129 67 94.5 215.5 c 128,-1,9
 60 364 60 364 94.5 512 c 128,-1,10
 129 660 129 660 229 779 c 1,11,-1
 259 753 l 1,0,-1
EndSplineSet
EndChar

StartChar: parenright
Encoding: 41 41 12
Width: 403
Flags: W
LayerCount: 2
Fore
SplineSet
103 756 m 1,0,-1
 134 782 l 1,1,2
 233 663 233 663 268 515 c 128,-1,3
 303 367 303 367 268 218.5 c 128,-1,4
 233 70 233 70 134 -48 c 1,5,-1
 103 -23 l 1,6,-1
 72 3 l 1,7,8
 159 107 159 107 190 237 c 128,-1,9
 221 367 221 367 190 496.5 c 128,-1,10
 159 626 159 626 72 730 c 1,11,-1
 103 756 l 1,0,-1
EndSplineSet
EndChar

StartChar: plus
Encoding: 43 43 14
Width: 532
Flags: W
LayerCount: 2
Fore
SplineSet
408 277 m 1,0,-1
 408 237 l 1,1,-1
 116 237 l 1,2,-1
 116 277 l 1,3,-1
 116 317 l 1,4,-1
 408 317 l 1,5,-1
 408 277 l 1,0,-1
262 423 m 1,6,-1
 302 423 l 1,7,-1
 302 131 l 1,8,-1
 262 131 l 1,9,-1
 222 131 l 1,10,-1
 222 423 l 1,11,-1
 262 423 l 1,6,-1
EndSplineSet
EndChar

StartChar: comma
Encoding: 44 44 15
Width: 275
Flags: W
LayerCount: 2
Fore
SplineSet
98 -155 m 5,0,-1
 61 -140 l 5,1,2
 107 -31 107 -31 107 88 c 5,3,-1
 147 88 l 5,4,-1
 187 88 l 5,5,6
 187 -46 187 -46 135 -171 c 5,7,-1
 98 -155 l 5,0,-1
EndSplineSet
EndChar

StartChar: hyphen
Encoding: 45 45 16
Width: 479
Flags: W
LayerCount: 2
Fore
SplineSet
386 298 m 1,0,-1
 386 258 l 1,1,-1
 94 258 l 1,2,-1
 94 298 l 1,3,-1
 94 338 l 1,4,-1
 386 338 l 1,5,-1
 386 298 l 1,0,-1
EndSplineSet
EndChar

StartChar: period
Encoding: 46 46 17
Width: 253
Flags: W
LayerCount: 2
Fore
SplineSet
127 97 m 1,0,-1
 167 97 l 1,1,-1
 167 0 l 1,2,-1
 127 0 l 1,3,-1
 87 0 l 1,4,-1
 87 97 l 1,5,-1
 127 97 l 1,0,-1
EndSplineSet
EndChar

StartChar: slash
Encoding: 47 47 18
Width: 451
Flags: W
LayerCount: 2
Fore
SplineSet
375 688 m 1,0,-1
 412 672 l 1,1,-1
 120 -9 l 1,2,-1
 83 7 l 1,3,-1
 46 23 l 1,4,-1
 338 704 l 1,5,-1
 375 688 l 1,0,-1
EndSplineSet
EndChar

StartChar: zero
Encoding: 48 48 19
Width: 656
Flags: W
LayerCount: 2
Fore
SplineSet
173 503 m 5,0,-1
 199 472 l 5,1,2
 152 432 152 432 136.5 385.5 c 4,3,4
 115 321 115 321 139.5 237.5 c 4,5,6
 150 200 150 200 180 151 c 4,7,8
 197 123 197 123 236 99.5 c 4,9,10
 269 79 269 79 304.5 71.5 c 4,11,12
 344 64 344 64 381.5 68.5 c 4,13,14
 415 73 415 73 460 103 c 5,15,-1
 482 70 l 5,16,-1
 504 36 l 5,17,18
 430 -13 430 -13 357 -13 c 132,-1,19
 284 -13 284 -13 224 17 c 4,20,21
 151 53 151 53 116.5 106 c 4,22,23
 65 187 65 187 59 226 c 4,24,25
 41 349 41 349 62 413 c 4,26,27
 84 481 84 481 147 534 c 5,28,-1
 173 503 l 5,0,-1
482 70 m 5,29,-1
 456 100 l 5,30,31
 508 143 508 143 520.5 207 c 4,32,33
 534 274 534 274 516 335.5 c 4,34,35
 502 385 502 385 473 425 c 4,36,37
 444 466 444 466 397.5 488.5 c 4,38,39
 355 508 355 508 302.5 507 c 132,-1,40
 250 506 250 506 195 470 c 5,41,-1
 173 503 l 5,42,-1
 151 536 l 5,43,44
 225 586 225 586 300.5 586.5 c 4,45,46
 379 587 379 587 435.5 555.5 c 4,47,48
 509 515 509 515 539 469 c 4,49,50
 564 431 564 431 585 383.5 c 4,51,52
 605 336 605 336 605.5 258.5 c 132,-1,53
 606 181 606 181 580.5 129.5 c 132,-1,54
 555 78 555 78 508 39 c 5,55,-1
 482 70 l 5,29,-1
326 244 m 5,56,-1
 286 244 l 5,57,-1
 286 325 l 5,58,-1
 326 325 l 5,59,-1
 366 325 l 5,60,-1
 366 244 l 5,61,-1
 326 244 l 5,56,-1
EndSplineSet
EndChar

StartChar: one
Encoding: 49 49 20
Width: 492
Flags: W
LayerCount: 2
Fore
SplineSet
97 359 m 1,0,-1
 77 394 l 1,1,2
 185 456 185 456 248 565 c 0,3,4
 257 580 257 580 274 584 c 128,-1,5
 291 588 291 588 306 578 c 0,6,7
 323 566 323 566 323 545 c 2,8,-1
 323 43 l 1,9,-1
 283 43 l 1,10,-1
 243 43 l 1,11,-1
 243 425 l 1,12,13
 187 365 187 365 117 324 c 1,14,-1
 97 359 l 1,0,-1
134 43 m 1,15,-1
 134 83 l 1,16,-1
 416 83 l 1,17,-1
 416 43 l 1,18,-1
 416 3 l 1,19,-1
 134 3 l 1,20,-1
 134 43 l 1,15,-1
EndSplineSet
EndChar

StartChar: two
Encoding: 50 50 21
Width: 570
Flags: W
LayerCount: 2
Fore
SplineSet
150 476 m 1,0,-1
 115 496 l 1,1,2
 146 549 146 549 199.5 570.5 c 128,-1,3
 253 592 253 592 309 581 c 0,4,5
 391 564 391 564 432.5 511.5 c 0,6,7
 473 460 473 460 452 373 c 0,8,9
 443 335 443 335 417.5 302 c 128,-1,10
 392 269 392 269 360 247.5 c 128,-1,11
 328 226 328 226 291 204 c 128,-1,12
 254 182 254 182 222.5 165.5 c 128,-1,13
 191 149 191 149 166 127 c 128,-1,14
 141 105 141 105 133 81 c 1,15,-1
 419 81 l 1,16,-1
 419 138 l 1,17,-1
 459 138 l 1,18,-1
 499 138 l 1,19,-1
 499 21 l 2,20,21
 499 19 499 19 499 15 c 128,-1,22
 499 11 499 11 499 10 c 128,-1,23
 499 9 499 9 498.5 6.5 c 128,-1,24
 498 4 498 4 497 3.5 c 128,-1,25
 496 3 496 3 493.5 2.5 c 128,-1,26
 491 2 491 2 487.5 1.5 c 128,-1,27
 484 1 484 1 479 1 c 2,28,-1
 86 1 l 2,29,30
 72 1 72 1 59 12.5 c 128,-1,31
 46 24 46 24 46 41 c 0,32,33
 46 87 46 87 63 124.5 c 128,-1,34
 80 162 80 162 107 187.5 c 128,-1,35
 134 213 134 213 167 234.5 c 128,-1,36
 200 256 200 256 234.5 273 c 128,-1,37
 269 290 269 290 298 306.5 c 128,-1,38
 327 323 327 323 347.5 344 c 128,-1,39
 368 365 368 365 373 389 c 0,40,41
 378 411 378 411 378 420 c 0,42,43
 378 437 378 437 374 449.5 c 128,-1,44
 370 462 370 462 363 470.5 c 128,-1,45
 356 479 356 479 344.5 485 c 0,46,47
 329 493 329 493 321.5 495 c 0,48,49
 310 498 310 498 293 502 c 0,50,51
 277 506 277 506 261.5 504.5 c 128,-1,52
 246 503 246 503 232 498 c 128,-1,53
 218 493 218 493 205.5 482 c 128,-1,54
 193 471 193 471 185 456 c 1,55,-1
 155 473 l 1,56,-1
 150 476 l 1,0,-1
EndSplineSet
EndChar

StartChar: three
Encoding: 51 51 22
Width: 550
Flags: W
LayerCount: 2
Fore
SplineSet
270 318 m 1,0,-1
 257 355 l 1,1,2
 316 374 316 374 318.5 376 c 0,3,4
 352 404 352 404 333 442 c 128,-1,5
 314 480 314 480 284 497 c 0,6,7
 251 515 251 515 216 501 c 0,8,9
 194 492 194 492 171 473 c 1,10,-1
 146 504 l 1,11,-1
 120 534 l 1,12,13
 153 563 153 563 189 576 c 0,14,15
 264 604 264 604 320.5 567.5 c 0,16,17
 391 524 391 524 409 471 c 0,18,19
 415 454 415 454 415.5 428 c 0,20,21
 416 406 416 406 409.5 376 c 128,-1,22
 403 346 403 346 378.5 326.5 c 128,-1,23
 354 307 354 307 332 298 c 128,-1,24
 310 289 310 289 284 280 c 1,25,-1
 270 318 l 1,0,-1
270 318 m 1,26,-1
 270 358 l 1,27,28
 340 358 340 358 401.5 300.5 c 128,-1,29
 463 243 463 243 463 178 c 0,30,31
 463 101 463 101 435 67.5 c 0,32,33
 395 19 395 19 327 -2 c 0,34,35
 291 -13 291 -13 251 -7.5 c 128,-1,36
 211 -2 211 -2 177 14.5 c 128,-1,37
 143 31 143 31 115.5 65.5 c 128,-1,38
 88 100 88 100 76 146 c 1,39,-1
 115 156 l 1,40,-1
 154 165 l 1,41,42
 163 127 163 127 188 103 c 128,-1,43
 213 79 213 79 243.5 74 c 128,-1,44
 274 69 274 69 307 76 c 0,45,46
 348 86 348 86 365.5 108 c 128,-1,47
 383 130 383 130 383 178 c 0,48,49
 383 199 383 199 362.5 227.5 c 128,-1,50
 342 256 342 256 317.5 267 c 128,-1,51
 293 278 293 278 270 278 c 1,52,-1
 270 318 l 1,26,-1
EndSplineSet
EndChar

StartChar: four
Encoding: 52 52 23
Width: 566
Flags: W
LayerCount: 2
Fore
SplineSet
384 221 m 1,0,-1
 484 221 l 1,1,-1
 484 181 l 1,2,-1
 484 141 l 1,3,-1
 384 141 l 1,4,-1
 384 41 l 1,5,-1
 344 41 l 1,6,-1
 304 41 l 1,7,-1
 304 141 l 1,8,-1
 111 141 l 2,9,10
 95 141 95 141 83 153 c 256,11,12
 71 165 71 165 71.5 183 c 128,-1,13
 72 201 72 201 86 212 c 0,14,15
 167 280 167 280 223.5 370 c 128,-1,16
 280 460 280 460 305 563 c 0,17,18
 308 575 308 575 318 583.5 c 128,-1,19
 328 592 328 592 341 593 c 0,20,21
 358 595 358 595 371 583 c 128,-1,22
 384 571 384 571 384 554 c 2,23,-1
 384 221 l 1,0,-1
304 221 m 1,24,-1
 304 349 l 1,25,26
 264 280 264 280 211 221 c 1,27,-1
 304 221 l 1,24,-1
211 41 m 1,28,-1
 211 81 l 1,29,-1
 477 81 l 1,30,-1
 477 41 l 1,31,-1
 477 1 l 1,32,-1
 211 1 l 1,33,-1
 211 41 l 1,28,-1
EndSplineSet
EndChar

StartChar: five
Encoding: 53 53 24
Width: 570
Flags: W
LayerCount: 2
Fore
SplineSet
389 439 m 1,0,-1
 349 439 l 1,1,-1
 349 495 l 1,2,-1
 178 495 l 1,3,-1
 178 368 l 1,4,5
 246 390 246 390 302 381 c 0,6,7
 393 365 393 365 444 300.5 c 128,-1,8
 495 236 495 236 478 138 c 0,9,10
 469 88 469 88 441.5 60.5 c 0,11,12
 409 28 409 28 365 8 c 0,13,14
 328 -9 328 -9 285 -9.5 c 128,-1,15
 242 -10 242 -10 203 3 c 128,-1,16
 164 16 164 16 129.5 46.5 c 128,-1,17
 95 77 95 77 74 120 c 1,18,-1
 110 137 l 1,19,-1
 146 155 l 1,20,21
 171 103 171 103 227.5 76 c 0,22,23
 274.4921875 52.74609375 274.4921875 52.74609375 329 80 c 0,24,25
 333 82 333 82 341.5 86 c 128,-1,26
 350 90 350 90 353.5 92 c 128,-1,27
 357 94 357 94 364 98 c 128,-1,28
 371 102 371 102 374 105 c 128,-1,29
 377 108 377 108 382 113 c 128,-1,30
 387 118 387 118 389.5 123.5 c 128,-1,31
 392 129 392 129 395 136 c 128,-1,32
 398 143 398 143 399 152 c 0,33,34
 411 216 411 216 380 253.5 c 128,-1,35
 349 291 349 291 288 302 c 0,36,37
 260 307 260 307 224 298 c 0,38,39
 184 288 184 288 161 270 c 0,40,41
 152 263 152 263 140.5 262 c 128,-1,42
 129 261 129 261 119 266.5 c 128,-1,43
 109 272 109 272 103.5 281.5 c 128,-1,44
 98 291 98 291 98 302 c 2,45,-1
 98 550 l 2,46,47
 98 553 98 553 97.5 557 c 128,-1,48
 97 561 97 561 97 562.5 c 128,-1,49
 97 564 97 564 97.5 567 c 128,-1,50
 98 570 98 570 99.5 571 c 128,-1,51
 101 572 101 572 103 573 c 128,-1,52
 105 574 105 574 108.5 574.5 c 128,-1,53
 112 575 112 575 118 575 c 2,54,-1
 409 575 l 2,55,56
 419 575 419 575 422.5 574 c 128,-1,57
 426 573 426 573 427.5 568 c 128,-1,58
 429 563 429 563 429 550 c 2,59,-1
 429 439 l 1,60,-1
 389 439 l 1,0,-1
EndSplineSet
EndChar

StartChar: six
Encoding: 54 54 25
Width: 521
Flags: W
LayerCount: 2
Fore
SplineSet
86 215 m 5,0,-1
 55 240 l 5,1,2
 61 247 61 247 67 254 c 4,3,4
 72 259 72 259 77 265 c 5,5,6
 77 276 77 276 78 286 c 4,7,8
 86 371 86 371 144 447 c 132,-1,9
 202 523 202 523 312 575 c 5,10,-1
 346 502 l 5,11,12
 205 437 205 437 169 329 c 5,13,14
 226 354 226 354 278.5 345 c 132,-1,15
 331 336 331 336 371 307.5 c 132,-1,16
 411 279 411 279 435 237 c 4,17,18
 450 210 450 210 456.5 180.5 c 132,-1,19
 463 151 463 151 460 121 c 132,-1,20
 457 91 457 91 439 63.5 c 132,-1,21
 421 36 421 36 389 18 c 4,22,23
 372 8 372 8 353 2 c 4,24,25
 296 -16 296 -16 241 4.5 c 132,-1,26
 186 25 186 25 147.5 70.5 c 132,-1,27
 109 116 109 116 91 174 c 5,28,-1
 86 215 l 5,0,-1
159 231 m 5,29,30
 159 231 159 231 160 230 c 4,31,32
 170 158 170 158 218.5 113 c 132,-1,33
 267 68 267 68 315 75 c 4,34,35
 333 78 333 78 349 87 c 4,36,37
 378 103 378 103 382 132.5 c 132,-1,38
 386 162 386 162 366 197 c 4,39,40
 348 227 348 227 321 245.5 c 132,-1,41
 294 264 294 264 258 267 c 132,-1,42
 222 270 222 270 183 247 c 4,43,44
 175 243 175 243 168 237 c 4,45,46
 164 235 164 235 159 231 c 5,29,30
EndSplineSet
EndChar

StartChar: seven
Encoding: 55 55 26
Width: 558
Flags: W
LayerCount: 2
Fore
SplineSet
101 432 m 1,0,-1
 61 432 l 1,1,-1
 61 548 l 2,2,3
 61 555 61 555 61.5 558.5 c 128,-1,4
 62 562 62 562 62.5 564.5 c 128,-1,5
 63 567 63 567 65.5 567.5 c 128,-1,6
 68 568 68 568 69 568.5 c 128,-1,7
 70 569 70 569 75 568.5 c 128,-1,8
 80 568 80 568 82 568 c 2,9,-1
 480 568 l 2,10,11
 497 568 497 568 497 555.5 c 0,12,13
 497 553 497 553 495 525 c 0,14,15
 494 513 494 513 486 503 c 0,16,17
 397 397 397 397 335 264 c 128,-1,18
 273 131 273 131 252 -5 c 1,19,-1
 212 1 l 1,20,-1
 173 7 l 1,21,22
 183 70 183 70 201.5 135 c 128,-1,23
 220 200 220 200 245.5 258.5 c 128,-1,24
 271 317 271 317 303.5 377 c 128,-1,25
 336 437 336 437 374 488 c 1,26,-1
 141 488 l 1,27,-1
 141 432 l 1,28,-1
 101 432 l 1,0,-1
169 263 m 1,29,-1
 169 303 l 1,30,-1
 402 303 l 1,31,-1
 402 263 l 1,32,-1
 402 223 l 1,33,-1
 169 223 l 1,34,-1
 169 263 l 1,29,-1
EndSplineSet
EndChar

StartChar: eight
Encoding: 56 56 27
Width: 522
Flags: W
LayerCount: 2
Fore
SplineSet
220 315 m 1,0,-1
 236 268 l 1,1,2
 165 227 165 227 157 205 c 0,3,4
 145 172 145 172 169 132.5 c 128,-1,5
 193 93 193 93 236 77 c 0,6,7
 253 70 253 70 273 69.5 c 128,-1,8
 293 69 293 69 314.5 75 c 128,-1,9
 336 81 336 81 354.5 98.5 c 128,-1,10
 373 116 373 116 383 144 c 0,11,12
 390 163 390 163 370 181.5 c 128,-1,13
 350 200 350 200 296 233 c 2,14,-1
 236 268 l 1,15,-1
 220 315 l 1,0,-1
311 317 m 1,16,-1
 299 321 l 1,17,18
 329 338 329 338 343 361 c 128,-1,19
 357 384 357 384 356.5 406.5 c 128,-1,20
 356 429 356 429 344 451 c 0,21,22
 324 486 324 486 290 499 c 128,-1,23
 256 512 256 512 224 495 c 0,24,25
 209 487 209 487 196 471 c 0,26,27
 179 447 179 447 178.5 430 c 128,-1,28
 178 413 178 413 189.5 399 c 128,-1,29
 201 385 201 385 230 365 c 0,30,31
 236 361 236 361 242 357 c 0,32,33
 259 346 259 346 311 317 c 1,16,-1
164 315 m 1,34,35
 133 339 133 339 116 368.5 c 128,-1,36
 99 398 99 398 101 438 c 128,-1,37
 103 478 103 478 132 519 c 0,38,39
 133 520 133 520 134 521 c 0,40,41
 147 537 147 537 161 548 c 0,42,43
 201 581 201 581 247.5 584 c 128,-1,44
 294 587 294 587 331.5 568 c 128,-1,45
 369 549 369 549 396 516 c 128,-1,46
 423 483 423 483 433 442 c 128,-1,47
 443 401 443 401 429.5 356 c 128,-1,48
 416 311 416 311 374 277 c 1,49,50
 386 269 386 269 395.5 261.5 c 128,-1,51
 405 254 405 254 416 243.5 c 128,-1,52
 427 233 427 233 435.5 223 c 128,-1,53
 444 213 444 213 451 200 c 128,-1,54
 458 187 458 187 461.5 174.5 c 128,-1,55
 465 162 465 162 464.5 146.5 c 128,-1,56
 464 131 464 131 458 116 c 0,57,58
 443 74 443 74 412.5 45 c 128,-1,59
 382 16 382 16 347 4.5 c 128,-1,60
 312 -7 312 -7 274.5 -9 c 128,-1,61
 237 -11 237 -11 208 2 c 0,62,63
 139 28 139 28 97 94.5 c 128,-1,64
 55 161 55 161 82 233 c 0,65,66
 90 254 90 254 110.5 273 c 128,-1,67
 131 292 131 292 164 315 c 1,34,35
EndSplineSet
EndChar

StartChar: nine
Encoding: 57 57 28
Width: 501
Flags: W
LayerCount: 2
Fore
SplineSet
426 320 m 1,0,-1
 453 290 l 1,1,2
 446 284 446 284 439 278 c 0,3,4
 434 274 434 274 428 269 c 1,5,6
 426 258 426 258 424 248 c 0,7,8
 405 165 405 165 336.5 97.5 c 128,-1,9
 268 30 268 30 152 -5 c 1,10,-1
 129 71 l 1,11,12
 277 117 277 117 328 218 c 1,13,14
 243 195 243 195 174.5 235.5 c 128,-1,15
 106 276 106 276 77 346 c 0,16,17
 66 375 66 375 63.5 405.5 c 128,-1,18
 61 436 61 436 68.5 465 c 128,-1,19
 76 494 76 494 97.5 518.5 c 128,-1,20
 119 543 119 543 153 557 c 0,21,22
 172 565 172 565 192 568 c 0,23,24
 227 574 227 574 261 565.5 c 128,-1,25
 295 557 295 557 322 537.5 c 128,-1,26
 349 518 349 518 371 490 c 128,-1,27
 393 462 393 462 407 429 c 128,-1,28
 421 396 421 396 427 361 c 1,29,-1
 426 320 l 1,0,-1
351 314 m 1,30,31
 351 314 351 314 351 315 c 0,32,33
 350 388 350 388 309 439.5 c 128,-1,34
 268 491 268 491 219 490 c 0,35,36
 201 490 201 490 183 483 c 0,37,38
 153 471 153 471 144.5 442.5 c 128,-1,39
 136 414 136 414 151 376 c 0,40,41
 172 326 172 326 219.5 301.5 c 128,-1,42
 267 277 267 277 326 302 c 0,43,44
 334 305 334 305 342 309 c 0,45,46
 346 311 346 311 351 314 c 1,30,31
EndSplineSet
EndChar

StartChar: colon
Encoding: 58 58 29
Width: 328
Flags: W
LayerCount: 2
Fore
SplineSet
164 134 m 1,0,-1
 204 134 l 1,1,-1
 204 37 l 1,2,-1
 164 37 l 1,3,-1
 124 37 l 1,4,-1
 124 134 l 1,5,-1
 164 134 l 1,0,-1
164 377 m 1,6,-1
 124 377 l 1,7,-1
 124 475 l 1,8,-1
 164 475 l 1,9,-1
 204 475 l 1,10,-1
 204 377 l 1,11,-1
 164 377 l 1,6,-1
EndSplineSet
EndChar

StartChar: semicolon
Encoding: 59 59 30
Width: 327
Flags: W
LayerCount: 2
Fore
SplineSet
119 -152 m 1,0,-1
 82 -137 l 1,1,2
 128 -28 128 -28 128 91 c 1,3,-1
 168 91 l 1,4,-1
 208 91 l 1,5,6
 208 -43 208 -43 156 -168 c 1,7,-1
 119 -152 l 1,0,-1
168 389 m 1,8,-1
 128 389 l 1,9,-1
 128 486 l 1,10,-1
 168 486 l 1,11,-1
 208 486 l 1,12,-1
 208 389 l 1,13,-1
 168 389 l 1,8,-1
EndSplineSet
EndChar

StartChar: less
Encoding: 60 60 31
Width: 448
Flags: W
LayerCount: 2
Fore
SplineSet
280 134 m 1,0,-1
 247 112 l 1,1,-1
 150 258 l 2,2,3
 135 280 135 280 150 302 c 2,4,-1
 247 448 l 1,5,-1
 280 426 l 1,6,-1
 314 404 l 1,7,-1
 231 280 l 1,8,-1
 314 156 l 1,9,-1
 280 134 l 1,0,-1
EndSplineSet
EndChar

StartChar: equal
Encoding: 61 61 32
Width: 642
Flags: W
LayerCount: 2
Fore
SplineSet
494 216 m 1,0,-1
 494 176 l 1,1,-1
 144 176 l 1,2,-1
 144 216 l 1,3,-1
 144 256 l 1,4,-1
 494 256 l 1,5,-1
 494 216 l 1,0,-1
494 362 m 1,6,-1
 494 322 l 1,7,-1
 144 322 l 1,8,-1
 144 362 l 1,9,-1
 144 402 l 1,10,-1
 494 402 l 1,11,-1
 494 362 l 1,6,-1
EndSplineSet
EndChar

StartChar: greater
Encoding: 62 62 33
Width: 438
Flags: W
LayerCount: 2
Fore
SplineSet
170 426 m 1,0,-1
 203 448 l 1,1,-1
 301 302 l 2,2,3
 315 280 315 280 301 258 c 2,4,-1
 203 112 l 1,5,-1
 170 134 l 1,6,-1
 137 156 l 1,7,-1
 219 280 l 1,8,-1
 137 404 l 1,9,-1
 170 426 l 1,0,-1
EndSplineSet
EndChar

StartChar: question
Encoding: 63 63 34
Width: 546
Flags: W
LayerCount: 2
Fore
SplineSet
62 682 m 1,0,-1
 36 713 l 1,1,2
 111 776 111 776 189 785 c 0,3,4
 245 792 245 792 295 775.5 c 128,-1,5
 345 759 345 759 380 726 c 128,-1,6
 415 693 415 693 437.5 648.5 c 128,-1,7
 460 604 460 604 466 555 c 0,8,9
 468 528 468 528 467.5 500.5 c 128,-1,10
 467 473 467 473 459 445.5 c 128,-1,11
 451 418 451 418 440 392 c 128,-1,12
 429 366 429 366 410 343 c 128,-1,13
 391 320 391 320 368 302.5 c 128,-1,14
 345 285 345 285 314 272.5 c 128,-1,15
 283 260 283 260 248 256 c 1,16,-1
 248 196 l 1,17,-1
 208 196 l 1,18,-1
 168 196 l 1,19,-1
 168 293 l 1,20,-1
 168 332 l 1,21,-1
 207 333 l 2,22,23
 257 334 257 334 294 351.5 c 128,-1,24
 331 369 331 369 351 397.5 c 128,-1,25
 371 426 371 426 380 457.5 c 128,-1,26
 389 489 389 489 388 523 c 0,27,28
 387 602 387 602 335.5 655 c 128,-1,29
 284 708 284 708 213 707 c 0,30,31
 152 706 152 706 88 652 c 1,32,-1
 62 682 l 1,0,-1
208 98 m 1,33,-1
 248 98 l 1,34,-1
 248 1 l 1,35,-1
 208 1 l 1,36,-1
 168 1 l 1,37,-1
 168 98 l 1,38,-1
 208 98 l 1,33,-1
EndSplineSet
EndChar

StartChar: at
Encoding: 64 64 35
Width: 847
Flags: W
LayerCount: 2
Fore
SplineSet
529 348 m 2,0,-1
 501 325 l 1,1,2
 495 332 495 332 489 337 c 0,3,4
 458 364 458 364 416.5 360.5 c 128,-1,5
 375 357 375 357 348 325 c 0,6,7
 318 284 318 284 321.5 248.5 c 128,-1,8
 325 213 325 213 354 183 c 0,9,10
 375 163 375 163 399.5 154.5 c 128,-1,11
 424 146 424 146 451.5 153 c 128,-1,12
 479 160 479 160 503 184 c 1,13,-1
 532 156 l 1,14,-1
 560 128 l 1,15,16
 520 87 520 87 469.5 76 c 128,-1,17
 419 65 419 65 375.5 79.5 c 128,-1,18
 332 94 332 94 298 126 c 0,19,20
 267 157 267 157 252 198 c 128,-1,21
 237 239 237 239 244.5 287 c 128,-1,22
 252 335 252 335 287 376 c 0,23,24
 335 434 335 434 410 440 c 128,-1,25
 485 446 485 446 541 398 c 0,26,27
 552 388 552 388 562 376 c 1,28,-1
 532 351 l 1,29,30
 532 351 532 351 529 348 c 2,0,-1
532 399 m 1,31,-1
 572 399 l 1,32,-1
 572 156 l 2,33,34
 572 143 572 143 585 135 c 0,35,36
 597 130 597 130 612.5 128.5 c 128,-1,37
 628 127 628 127 648 139 c 128,-1,38
 668 151 668 151 682 176 c 0,39,40
 716 235 716 235 718 296 c 128,-1,41
 720 357 720 357 696 408 c 128,-1,42
 672 459 672 459 627 499 c 0,43,44
 594 529 594 529 555 548 c 128,-1,45
 516 567 516 567 472 573.5 c 128,-1,46
 428 580 428 580 384 572.5 c 128,-1,47
 340 565 340 565 295 539 c 128,-1,48
 250 513 250 513 211 470 c 0,49,50
 153 405 153 405 134 330.5 c 128,-1,51
 115 256 115 256 130.5 190 c 128,-1,52
 146 124 146 124 189 65 c 0,53,54
 214 32 214 32 245.5 5 c 128,-1,55
 277 -22 277 -22 313 -40.5 c 128,-1,56
 349 -59 349 -59 390 -67.5 c 128,-1,57
 431 -76 431 -76 472.5 -73.5 c 128,-1,58
 514 -71 514 -71 558.5 -54 c 128,-1,59
 603 -37 603 -37 644 -6 c 1,60,-1
 668 -39 l 1,61,-1
 692 -71 l 1,62,63
 616 -127 616 -127 532 -145 c 128,-1,64
 448 -163 448 -163 373.5 -145.5 c 128,-1,65
 299 -128 299 -128 234.5 -86 c 128,-1,66
 170 -44 170 -44 125 18 c 0,67,68
 72 89 72 89 53 173 c 128,-1,69
 34 257 34 257 57.5 350.5 c 128,-1,70
 81 444 81 444 151 523 c 0,71,72
 211 590 211 590 284 623.5 c 128,-1,73
 357 657 357 657 427.5 656 c 128,-1,74
 498 655 498 655 563 630 c 128,-1,75
 628 605 628 605 680 559 c 0,76,77
 737 508 737 508 768.5 441.5 c 128,-1,78
 800 375 800 375 797.5 293.5 c 128,-1,79
 795 212 795 212 751 136 c 0,80,81
 727 94 727 94 689.5 71 c 128,-1,82
 652 48 652 48 615 48.5 c 128,-1,83
 578 49 578 49 545 66 c 0,84,85
 521 79 521 79 506.5 103 c 128,-1,86
 492 127 492 127 492 156 c 2,87,-1
 492 399 l 1,88,-1
 532 399 l 1,31,-1
EndSplineSet
EndChar

StartChar: A
Encoding: 65 65 36
Width: 842
Flags: W
LayerCount: 2
Fore
SplineSet
141 40 m 5,0,-1
 104 55 l 5,1,-1
 384 708 l 6,2,3
 388 718 388 718 397.5 724.5 c 132,-1,4
 407 731 407 731 418 731.5 c 132,-1,5
 429 732 429 732 439 727 c 4,6,7
 452 721 452 721 457 708 c 6,8,-1
 737 55 l 5,9,-1
 700 40 l 5,10,-1
 663 24 l 5,11,-1
 421 590 l 5,12,-1
 178 24 l 5,13,-1
 141 40 l 5,0,-1
234 226 m 5,14,-1
 234 266 l 5,15,-1
 607 266 l 5,16,-1
 607 226 l 5,17,-1
 607 186 l 5,18,-1
 234 186 l 5,19,-1
 234 226 l 5,14,-1
45 40 m 5,20,-1
 45 80 l 5,21,-1
 238 80 l 5,22,-1
 238 40 l 5,23,-1
 238 0 l 5,24,-1
 45 0 l 5,25,-1
 45 40 l 5,20,-1
604 40 m 5,26,-1
 604 80 l 5,27,-1
 797 80 l 5,28,-1
 797 40 l 5,29,-1
 797 0 l 5,30,-1
 604 0 l 5,31,-1
 604 40 l 5,26,-1
278 692 m 5,32,-1
 278 732 l 5,33,-1
 421 732 l 5,34,-1
 421 692 l 5,35,-1
 421 652 l 5,36,-1
 278 652 l 5,37,-1
 278 692 l 5,32,-1
EndSplineSet
EndChar

StartChar: B
Encoding: 66 66 37
Width: 630
Flags: W
LayerCount: 2
Fore
SplineSet
70 44 m 1,0,-1
 70 84 l 1,1,-1
 127 84 l 1,2,-1
 127 696 l 2,3,4
 127 703 127 703 130 710.5 c 128,-1,5
 133 718 133 718 137.5 723 c 128,-1,6
 142 728 142 728 149 731.5 c 128,-1,7
 156 735 156 735 163 736 c 0,8,9
 284 746 284 746 371 674 c 0,10,11
 413 638 413 638 435.5 590 c 128,-1,12
 458 542 458 542 453 488 c 128,-1,13
 448 434 448 434 412 391 c 1,14,-1
 381 416 l 1,15,-1
 350 442 l 1,16,17
 370 466 370 466 373.5 496.5 c 128,-1,18
 377 527 377 527 363 557.5 c 128,-1,19
 349 588 349 588 320 612 c 0,20,21
 273 652 273 652 207 656 c 1,22,-1
 207 44 l 2,23,24
 207 35 207 35 202 26 c 128,-1,25
 197 17 197 17 187.5 10.5 c 128,-1,26
 178 4 178 4 167 4 c 2,27,-1
 70 4 l 1,28,-1
 70 44 l 1,0,-1
167 416 m 1,29,-1
 167 456 l 1,30,-1
 381 456 l 2,31,32
 451 456 451 456 505 412 c 0,33,34
 572 356 572 356 579.5 267 c 128,-1,35
 587 178 587 178 523 98 c 0,36,37
 504 75 504 75 481 57.5 c 128,-1,38
 458 40 458 40 430 30.5 c 128,-1,39
 402 21 402 21 380 14.5 c 128,-1,40
 358 8 358 8 323 6 c 128,-1,41
 288 4 288 4 270.5 3 c 128,-1,42
 253 2 253 2 215 3 c 128,-1,43
 177 4 177 4 167 4 c 1,44,-1
 167 44 l 1,45,-1
 167 84 l 1,46,47
 174 84 174 84 189 84 c 0,48,49
 235 84 235 84 258 84 c 128,-1,50
 281 84 281 84 318 87.5 c 128,-1,51
 355 91 355 91 377 97.5 c 128,-1,52
 399 104 399 104 422.5 117 c 128,-1,53
 446 130 446 130 462 149 c 0,54,55
 504 205 504 205 499.5 260.5 c 128,-1,56
 495 316 495 316 453 351 c 0,57,58
 422 376 422 376 381 376 c 2,59,-1
 167 376 l 1,60,-1
 167 416 l 1,29,-1
167 696 m 1,61,-1
 167 656 l 1,62,-1
 70 656 l 1,63,-1
 70 696 l 1,64,-1
 70 736 l 1,65,-1
 167 736 l 1,66,-1
 167 696 l 1,61,-1
EndSplineSet
EndChar

StartChar: C
Encoding: 67 67 38
Width: 755
Flags: W
LayerCount: 2
Fore
SplineSet
636 748 m 5,0,-1
 676 748 l 5,1,-1
 676 604 l 6,2,3
 676 593 676 593 670 583.5 c 132,-1,4
 664 574 664 574 654 569 c 132,-1,5
 644 564 644 564 633 565 c 4,6,7
 616 566 616 566 605 579 c 4,8,9
 590 597 590 597 573 611 c 4,10,11
 536 643 536 643 502 655.5 c 4,12,13
 439 678 439 678 422 679.5 c 4,14,15
 381 682 381 682 341.5 679 c 132,-1,16
 302 676 302 676 265.5 649 c 132,-1,17
 229 622 229 622 201 589 c 4,18,19
 150 527 150 527 138 460.5 c 4,20,21
 125 383 125 383 141 323 c 4,22,23
 156 268 156 268 196 208 c 4,24,25
 223 168 223 168 257.5 138 c 132,-1,26
 292 108 292 108 334 89.5 c 132,-1,27
 376 71 376 71 420.5 67 c 132,-1,28
 465 63 465 63 515 77.5 c 132,-1,29
 565 92 565 92 613 125 c 5,30,-1
 636 92 l 5,31,-1
 659 59 l 5,32,33
 584 8 584 8 505 -7 c 132,-1,34
 426 -22 426 -22 357.5 -3 c 132,-1,35
 289 16 289 16 230.5 58.5 c 132,-1,36
 172 101 172 101 130 162 c 4,37,38
 95 213 95 213 75.5 269.5 c 132,-1,39
 56 326 56 326 52.5 392 c 132,-1,40
 49 458 49 458 71 521 c 132,-1,41
 93 584 93 584 140 640 c 4,42,43
 197 708 197 708 277 737 c 4,44,45
 351 763 351 763 441 749.5 c 4,46,47
 539 735 539 735 596 694 c 5,48,-1
 596 748 l 5,49,-1
 636 748 l 5,0,-1
EndSplineSet
EndChar

StartChar: D
Encoding: 68 68 39
Width: 651
Flags: W
LayerCount: 2
Fore
SplineSet
168 -6 m 1,0,-1
 72 -6 l 1,1,-1
 72 74 l 1,2,-1
 128 74 l 1,3,-1
 128 706 l 2,4,5
 128 718 128 718 134.5 727.5 c 128,-1,6
 141 737 141 737 150.5 741.5 c 128,-1,7
 160 746 160 746 168 746 c 0,8,9
 355 746 355 746 485 616 c 0,10,11
 549 552 549 552 578.5 458.5 c 128,-1,12
 608 365 608 365 591 268 c 128,-1,13
 574 171 574 171 508.5 105.5 c 128,-1,14
 443 40 443 40 361 17 c 128,-1,15
 279 -6 279 -6 169 -6 c 1,16,-1
 169 38 l 1,17,-1
 168 -6 l 1,0,-1
208 76 m 1,18,19
 265 80 265 80 302 86.5 c 128,-1,20
 339 93 339 93 379.5 112 c 128,-1,21
 420 131 420 131 452 163 c 0,22,23
 500 210 500 210 513 283.5 c 128,-1,24
 526 357 526 357 503.5 432 c 128,-1,25
 481 507 481 507 428 559 c 0,26,27
 335 653 335 653 208 664 c 1,28,-1
 208 76 l 1,18,19
72 706 m 1,29,-1
 72 746 l 1,30,-1
 168 746 l 1,31,-1
 168 706 l 1,32,-1
 168 666 l 1,33,-1
 72 666 l 1,34,-1
 72 706 l 1,29,-1
EndSplineSet
EndChar

StartChar: E
Encoding: 69 69 40
Width: 686
Flags: W
LayerCount: 2
Fore
SplineSet
159 40 m 1,0,-1
 119 40 l 1,1,-1
 119 692 l 2,2,3
 119 709 119 709 132 720.5 c 128,-1,4
 145 732 145 732 159 732 c 2,5,-1
 531 732 l 1,6,-1
 531 652 l 1,7,-1
 199 652 l 1,8,-1
 199 40 l 1,9,-1
 159 40 l 1,0,-1
159 385 m 1,10,-1
 159 425 l 1,11,-1
 485 425 l 1,12,-1
 485 385 l 1,13,-1
 485 345 l 1,14,-1
 159 345 l 1,15,-1
 159 385 l 1,10,-1
159 40 m 1,16,-1
 159 80 l 1,17,-1
 578 80 l 1,18,-1
 578 0 l 1,19,-1
 159 0 l 1,20,-1
 159 40 l 1,16,-1
62 40 m 1,21,-1
 62 80 l 1,22,-1
 159 80 l 1,23,-1
 159 40 l 1,24,-1
 159 0 l 1,25,-1
 62 0 l 1,26,-1
 62 40 l 1,21,-1
62 692 m 1,27,-1
 62 732 l 1,28,-1
 159 732 l 1,29,-1
 159 692 l 1,30,-1
 159 652 l 1,31,-1
 62 652 l 1,32,-1
 62 692 l 1,27,-1
531 595 m 1,33,-1
 491 595 l 1,34,-1
 491 732 l 1,35,-1
 531 732 l 1,36,-1
 571 732 l 1,37,-1
 571 595 l 1,38,-1
 531 595 l 1,33,-1
578 137 m 1,39,-1
 618 137 l 1,40,-1
 618 0 l 1,41,-1
 578 0 l 1,42,-1
 538 0 l 1,43,-1
 538 137 l 1,44,-1
 578 137 l 1,39,-1
485 481 m 1,45,-1
 525 481 l 1,46,-1
 525 288 l 1,47,-1
 485 288 l 1,48,-1
 445 288 l 1,49,-1
 445 481 l 1,50,-1
 485 481 l 1,45,-1
EndSplineSet
EndChar

StartChar: F
Encoding: 70 70 41
Width: 602
Flags: W
LayerCount: 2
Fore
SplineSet
161 42 m 1,0,-1
 121 42 l 1,1,-1
 121 694 l 2,2,3
 121 711 121 711 134 722.5 c 128,-1,4
 147 734 147 734 161 734 c 2,5,-1
 534 734 l 1,6,-1
 533 731 l 1,7,-1
 534 654 l 1,8,-1
 201 654 l 1,9,-1
 201 42 l 1,10,-1
 161 42 l 1,0,-1
161 387 m 1,11,-1
 161 427 l 1,12,-1
 441 427 l 1,13,-1
 441 387 l 1,14,-1
 441 347 l 1,15,-1
 161 347 l 1,16,-1
 161 387 l 1,11,-1
161 42 m 1,17,-1
 161 82 l 1,18,-1
 279 82 l 1,19,-1
 279 42 l 1,20,-1
 279 2 l 1,21,-1
 161 2 l 1,22,-1
 161 42 l 1,17,-1
66 42 m 1,23,-1
 66 82 l 1,24,-1
 161 82 l 1,25,-1
 161 42 l 1,26,-1
 161 2 l 1,27,-1
 66 2 l 1,28,-1
 66 42 l 1,23,-1
66 694 m 1,29,-1
 66 734 l 1,30,-1
 161 734 l 1,31,-1
 161 694 l 1,32,-1
 161 654 l 1,33,-1
 66 654 l 1,34,-1
 66 694 l 1,29,-1
534 597 m 1,35,-1
 494 597 l 1,36,-1
 493 731 l 1,37,-1
 533 731 l 1,38,-1
 573 731 l 1,39,-1
 574 597 l 1,40,-1
 534 597 l 1,35,-1
66 42 m 1,41,-1
 66 82 l 1,42,-1
 279 82 l 1,43,-1
 279 42 l 1,44,-1
 279 2 l 1,45,-1
 66 2 l 1,46,-1
 66 42 l 1,41,-1
441 483 m 1,47,-1
 481 483 l 1,48,-1
 481 290 l 1,49,-1
 441 290 l 1,50,-1
 401 290 l 1,51,-1
 401 483 l 1,52,-1
 441 483 l 1,47,-1
EndSplineSet
EndChar

StartChar: G
Encoding: 71 71 42
Width: 802
Flags: W
LayerCount: 2
Fore
SplineSet
500 360 m 1,0,-1
 736 360 l 1,1,-1
 736 280 l 1,2,-1
 680 280 l 1,3,-1
 680 87 l 2,4,5
 680 66 680 66 662 54 c 0,6,7
 588 3 588 3 509 -12 c 128,-1,8
 430 -27 430 -27 361.5 -8 c 128,-1,9
 293 11 293 11 234 53.5 c 128,-1,10
 175 96 175 96 133 157 c 0,11,12
 99 208 99 208 79.5 264.5 c 128,-1,13
 60 321 60 321 56.5 387 c 128,-1,14
 53 453 53 453 75 516 c 128,-1,15
 97 579 97 579 143 635 c 0,16,17
 189 690 189 690 251.5 721 c 128,-1,18
 314 752 314 752 379 750 c 128,-1,19
 444 748 444 748 509.5 728 c 4,20,21
 571 710 571 710 628 660 c 0,22,23
 642 648 642 648 670 617 c 0,24,25
 680 606 680 606 680 591 c 2,26,-1
 680 505 l 1,27,-1
 600 505 l 1,28,-1
 600 576 l 1,29,30
 588 588 588 588 577 598 c 0,31,32
 523 644 523 644 454 662.5 c 128,-1,33
 385 681 385 681 318 661 c 0,34,35
 253 641 253 641 205 584 c 128,-1,36
 157 527 157 527 143 461.5 c 128,-1,37
 129 396 129 396 142.5 334.5 c 128,-1,38
 156 273 156 273 189 218 c 0,39,40
 232 148 232 148 295.5 106.5 c 128,-1,41
 359 65 359 65 438 61.5 c 128,-1,42
 517 58 517 58 600 109 c 1,43,-1
 600 280 l 1,44,-1
 500 280 l 1,45,-1
 500 360 l 1,0,-1
EndSplineSet
EndChar

StartChar: H
Encoding: 72 72 43
Width: 722
Flags: W
LayerCount: 2
Fore
SplineSet
177 41 m 1,0,-1
 137 41 l 1,1,-1
 137 693 l 1,2,-1
 177 693 l 1,3,-1
 217 693 l 1,4,-1
 217 41 l 1,5,-1
 177 41 l 1,0,-1
177 386 m 1,6,-1
 177 426 l 1,7,-1
 550 426 l 1,8,-1
 550 386 l 1,9,-1
 550 346 l 1,10,-1
 177 346 l 1,11,-1
 177 386 l 1,6,-1
550 693 m 1,12,-1
 590 693 l 1,13,-1
 590 41 l 1,14,-1
 550 41 l 1,15,-1
 510 41 l 1,16,-1
 510 693 l 1,17,-1
 550 693 l 1,12,-1
81 41 m 1,18,-1
 81 81 l 1,19,-1
 274 81 l 1,20,-1
 274 41 l 1,21,-1
 274 1 l 1,22,-1
 81 1 l 1,23,-1
 81 41 l 1,18,-1
453 41 m 1,24,-1
 453 81 l 1,25,-1
 647 81 l 1,26,-1
 647 41 l 1,27,-1
 647 1 l 1,28,-1
 453 1 l 1,29,-1
 453 41 l 1,24,-1
81 693 m 1,30,-1
 81 733 l 1,31,-1
 274 733 l 1,32,-1
 274 693 l 1,33,-1
 274 653 l 1,34,-1
 81 653 l 1,35,-1
 81 693 l 1,30,-1
453 693 m 1,36,-1
 453 733 l 1,37,-1
 647 733 l 1,38,-1
 647 693 l 1,39,-1
 647 653 l 1,40,-1
 453 653 l 1,41,-1
 453 693 l 1,36,-1
EndSplineSet
EndChar

StartChar: I
Encoding: 73 73 44
Width: 343
Flags: W
LayerCount: 2
Fore
SplineSet
170 42 m 5,0,-1
 130 42 l 5,1,-1
 130 694 l 5,2,-1
 170 694 l 5,3,-1
 210 694 l 5,4,-1
 210 42 l 5,5,-1
 170 42 l 5,0,-1
74 42 m 5,6,-1
 74 82 l 5,7,-1
 267 82 l 5,8,-1
 267 42 l 5,9,-1
 267 2 l 5,10,-1
 74 2 l 5,11,-1
 74 42 l 5,6,-1
74 694 m 5,12,-1
 74 734 l 5,13,-1
 267 734 l 5,14,-1
 267 694 l 5,15,-1
 267 654 l 5,16,-1
 74 654 l 5,17,-1
 74 694 l 5,12,-1
EndSplineSet
EndChar

StartChar: J
Encoding: 74 74 45
Width: 375
Flags: W
LayerCount: 2
Fore
SplineSet
77 59 m 2,0,-1
 80 79 l 1,1,2
 128 70 128 70 167.5 103.5 c 128,-1,3
 207 137 207 137 217 196 c 0,4,5
 220 210 220 210 220 226 c 2,6,-1
 220 651 l 1,7,-1
 95 651 l 1,8,-1
 95 691 l 1,9,-1
 95 731 l 1,10,-1
 280 731 l 2,11,12
 286 731 286 731 289.5 730.5 c 128,-1,13
 293 730 293 730 295.5 730 c 128,-1,14
 298 730 298 730 299 727.5 c 128,-1,15
 300 725 300 725 300 724.5 c 128,-1,16
 300 724 300 724 300 719 c 128,-1,17
 300 714 300 714 300 711 c 2,18,-1
 300 226 l 2,19,20
 300 204 300 204 296 182 c 0,21,22
 281 96 281 96 216 40.5 c 128,-1,23
 151 -15 151 -15 67 0 c 1,24,-1
 74 39 l 2,25,26
 74 40 74 40 74 42 c 0,27,28
 75 49 75 49 77 59 c 2,0,-1
EndSplineSet
EndChar

StartChar: K
Encoding: 75 75 46
Width: 730
Flags: W
LayerCount: 2
Fore
SplineSet
168 40 m 1,0,-1
 128 40 l 1,1,-1
 128 692 l 1,2,-1
 168 692 l 1,3,-1
 208 692 l 1,4,-1
 208 40 l 1,5,-1
 168 40 l 1,0,-1
168 338 m 1,6,-1
 139 365 l 1,7,-1
 465 719 l 1,8,-1
 494 692 l 1,9,-1
 524 665 l 1,10,-1
 198 311 l 1,11,-1
 168 338 l 1,6,-1
272 413 m 1,12,-1
 292 439 l 1,13,-1
 618 66 l 1,14,-1
 588 40 l 1,15,-1
 557 14 l 1,16,-1
 231 386 l 1,17,-1
 272 413 l 1,12,-1
72 40 m 1,18,-1
 72 80 l 1,19,-1
 265 80 l 1,20,-1
 265 40 l 1,21,-1
 265 0 l 1,22,-1
 72 0 l 1,23,-1
 72 40 l 1,18,-1
72 692 m 1,24,-1
 72 732 l 1,25,-1
 265 732 l 1,26,-1
 265 692 l 1,27,-1
 265 652 l 1,28,-1
 72 652 l 1,29,-1
 72 692 l 1,24,-1
398 692 m 1,30,-1
 398 732 l 1,31,-1
 591 732 l 1,32,-1
 591 692 l 1,33,-1
 591 652 l 1,34,-1
 398 652 l 1,35,-1
 398 692 l 1,30,-1
491 40 m 1,36,-1
 491 80 l 1,37,-1
 684 80 l 1,38,-1
 684 40 l 1,39,-1
 684 0 l 1,40,-1
 491 0 l 1,41,-1
 491 40 l 1,36,-1
EndSplineSet
EndChar

StartChar: L
Encoding: 76 76 47
Width: 650
Flags: W
LayerCount: 2
Fore
SplineSet
169 41 m 1,0,-1
 129 41 l 1,1,-1
 129 693 l 1,2,-1
 169 693 l 1,3,-1
 209 693 l 1,4,-1
 209 41 l 1,5,-1
 169 41 l 1,0,-1
73 41 m 1,6,-1
 73 81 l 1,7,-1
 502 81 l 1,8,-1
 502 148 l 1,9,-1
 542 148 l 1,10,-1
 582 148 l 1,11,-1
 582 21 l 2,12,13
 582 19 582 19 582 15 c 128,-1,14
 582 11 582 11 582 10 c 128,-1,15
 582 9 582 9 581.5 6.5 c 128,-1,16
 581 4 581 4 580 3.5 c 128,-1,17
 579 3 579 3 576.5 2.5 c 128,-1,18
 574 2 574 2 570.5 1.5 c 128,-1,19
 567 1 567 1 562 1 c 2,20,-1
 73 1 l 1,21,-1
 73 41 l 1,6,-1
73 693 m 1,22,-1
 73 733 l 1,23,-1
 266 733 l 1,24,-1
 266 693 l 1,25,-1
 266 653 l 1,26,-1
 73 653 l 1,27,-1
 73 693 l 1,22,-1
EndSplineSet
EndChar

StartChar: M
Encoding: 77 77 48
Width: 906
Flags: W
LayerCount: 2
Fore
SplineSet
174 40 m 1,0,-1
 134 40 l 1,1,-1
 134 692 l 2,2,3
 134 709 134 709 147 721 c 128,-1,4
 160 733 160 733 177 732 c 0,5,6
 198 730 198 730 209 711 c 2,7,-1
 453 263 l 1,8,-1
 697 711 l 2,9,10
 702 719 702 719 708.5 724 c 128,-1,11
 715 729 715 729 723 731 c 128,-1,12
 731 733 731 733 739 731.5 c 128,-1,13
 747 730 747 730 754 726 c 0,14,15
 773 714 773 714 773 692 c 2,16,-1
 773 40 l 1,17,-1
 733 40 l 1,18,-1
 693 40 l 1,19,-1
 693 535 l 1,20,-1
 488 161 l 2,21,22
 483 152 483 152 475 146 c 0,23,24
 461 137 461 137 443.5 141 c 128,-1,25
 426 145 426 145 418 161 c 2,26,-1
 214 535 l 1,27,-1
 214 40 l 1,28,-1
 174 40 l 1,0,-1
174 692 m 1,29,-1
 174 652 l 1,30,-1
 77 652 l 1,31,-1
 77 692 l 1,32,-1
 77 732 l 1,33,-1
 174 732 l 1,34,-1
 174 692 l 1,29,-1
829 692 m 1,35,-1
 829 652 l 1,36,-1
 733 652 l 1,37,-1
 733 692 l 1,38,-1
 733 732 l 1,39,-1
 829 732 l 1,40,-1
 829 692 l 1,35,-1
77 40 m 1,41,-1
 77 80 l 1,42,-1
 270 80 l 1,43,-1
 270 40 l 1,44,-1
 270 0 l 1,45,-1
 77 0 l 1,46,-1
 77 40 l 1,41,-1
636 40 m 1,47,-1
 636 80 l 1,48,-1
 829 80 l 1,49,-1
 829 40 l 1,50,-1
 829 0 l 1,51,-1
 636 0 l 1,52,-1
 636 40 l 1,47,-1
EndSplineSet
EndChar

StartChar: N
Encoding: 78 78 49
Width: 804
Flags: W
LayerCount: 2
Fore
SplineSet
177 41 m 1,0,-1
 137 41 l 1,1,-1
 137 693 l 2,2,3
 137 705 137 705 143 714.5 c 128,-1,4
 149 724 149 724 159 729 c 128,-1,5
 169 734 169 734 180 733 c 0,6,7
 199 732 199 732 210 716 c 2,8,-1
 603 166 l 1,9,-1
 603 693 l 1,10,-1
 643 693 l 1,11,-1
 683 693 l 1,12,-1
 683 41 l 2,13,14
 683 23 683 23 669 11 c 0,15,16
 656 -1 656 -1 638 1.5 c 128,-1,17
 620 4 620 4 610 18 c 2,18,-1
 217 568 l 1,19,-1
 217 41 l 1,20,-1
 177 41 l 1,0,-1
81 41 m 1,21,-1
 81 81 l 1,22,-1
 274 81 l 1,23,-1
 274 41 l 1,24,-1
 274 1 l 1,25,-1
 81 1 l 1,26,-1
 81 41 l 1,21,-1
546 693 m 1,27,-1
 546 733 l 1,28,-1
 740 733 l 1,29,-1
 740 693 l 1,30,-1
 740 653 l 1,31,-1
 546 653 l 1,32,-1
 546 693 l 1,27,-1
76 693 m 1,33,-1
 76 733 l 1,34,-1
 177 733 l 1,35,-1
 177 693 l 1,36,-1
 177 653 l 1,37,-1
 76 653 l 1,38,-1
 76 693 l 1,33,-1
EndSplineSet
EndChar

StartChar: O
Encoding: 79 79 50
Width: 900
Flags: W
LayerCount: 2
Fore
SplineSet
178 622 m 1,0,-1
 209 596 l 1,1,2
 173 554 173 554 154 507 c 128,-1,3
 135 460 135 460 133 410.5 c 128,-1,4
 131 361 131 361 144.5 318 c 128,-1,5
 158 275 158 275 179.5 237.5 c 128,-1,6
 201 200 201 200 232 167 c 0,7,8
 274 122 274 122 326.5 95.5 c 128,-1,9
 379 69 379 69 433.5 62 c 128,-1,10
 488 55 488 55 549.5 73 c 128,-1,11
 611 91 611 91 666 142 c 1,12,-1
 694 113 l 1,13,-1
 721 84 l 1,14,15
 653 20 653 20 575 -2.5 c 128,-1,16
 497 -25 497 -25 427 -17 c 128,-1,17
 357 -9 357 -9 291 24.5 c 128,-1,18
 225 58 225 58 174 112 c 0,19,20
 143 145 143 145 119 184 c 128,-1,21
 95 223 95 223 77 266 c 128,-1,22
 59 309 59 309 55 355.5 c 128,-1,23
 51 402 51 402 58 454.5 c 128,-1,24
 65 507 65 507 87.5 555.5 c 128,-1,25
 110 604 110 604 147 648 c 1,26,-1
 178 622 l 1,0,-1
694 113 m 1,27,-1
 666 142 l 1,28,29
 674 150 674 150 682 159 c 0,30,31
 724 204 724 204 748 281 c 0,32,33
 770 350 770 350 756.5 408.5 c 0,34,35
 738 485 738 485 718.5 519 c 0,36,37
 696 557 696 557 639 610 c 0,38,39
 594 651 594 651 541 673 c 128,-1,40
 488 695 488 695 433 696.5 c 128,-1,41
 378 698 378 698 318.5 675.5 c 128,-1,42
 259 653 259 653 208 595 c 1,43,-1
 178 622 l 1,44,-1
 148 649 l 1,45,46
 211 720 211 720 286.5 749 c 128,-1,47
 362 778 362 778 432 776 c 128,-1,48
 502 774 502 774 569.5 746.5 c 128,-1,49
 637 719 637 719 694.5 670.5 c 128,-1,50
 752 622 752 622 787.5 559 c 0,51,52
 817 505 817 505 835 417.5 c 0,53,54
 849 347 849 347 824 258 c 0,55,56
 798 166 798 166 742 106 c 0,57,58
 732 95 732 95 722 85 c 1,59,-1
 694 113 l 1,27,-1
EndSplineSet
EndChar

StartChar: P
Encoding: 80 80 51
Width: 608
Flags: W
LayerCount: 2
Fore
SplineSet
221 359 m 1,0,1
 327 358 327 358 386.5 371.5 c 128,-1,2
 446 385 446 385 473 433 c 0,3,4
 492 467 492 467 486.5 502.5 c 128,-1,5
 481 538 481 538 456.5 569.5 c 128,-1,6
 432 601 432 601 394 623 c 0,7,8
 387 627 387 627 380.5 630 c 128,-1,9
 374 633 374 633 368 635.5 c 128,-1,10
 362 638 362 638 354 640 c 128,-1,11
 346 642 346 642 340.5 643 c 128,-1,12
 335 644 335 644 325 645 c 128,-1,13
 315 646 315 646 309 647 c 128,-1,14
 303 648 303 648 290.5 648.5 c 128,-1,15
 278 649 278 649 270.5 649.5 c 128,-1,16
 263 650 263 650 247 650.5 c 128,-1,17
 231 651 231 651 221 651 c 1,18,-1
 221 359 l 1,0,1
221 279 m 1,19,-1
 221 40 l 1,20,-1
 181 40 l 1,21,-1
 141 40 l 1,22,-1
 141 319 l 1,23,-1
 141 692 l 2,24,25
 141 709 141 709 153.5 720.5 c 128,-1,26
 166 732 166 732 181 732 c 0,27,28
 286 732 286 732 336.5 725.5 c 128,-1,29
 387 719 387 719 433 693 c 0,30,31
 519 644 519 644 552 557.5 c 128,-1,32
 585 471 585 471 542 393 c 0,33,34
 526 364 526 364 502 343 c 128,-1,35
 478 322 478 322 452.5 310.5 c 128,-1,36
 427 299 427 299 397 291 c 128,-1,37
 367 283 367 283 337.5 281.5 c 128,-1,38
 308 280 308 280 278 279 c 128,-1,39
 248 278 248 278 221 279 c 1,19,-1
85 40 m 1,40,-1
 85 80 l 1,41,-1
 301 80 l 5,42,-1
 301 40 l 5,43,-1
 301 0 l 5,44,-1
 85 0 l 1,45,-1
 85 40 l 1,40,-1
85 692 m 1,46,-1
 85 732 l 1,47,-1
 181 732 l 1,48,-1
 181 692 l 1,49,-1
 181 652 l 1,50,-1
 85 652 l 1,51,-1
 85 692 l 1,46,-1
EndSplineSet
EndChar

StartChar: Q
Encoding: 81 81 52
Width: 914
Flags: W
LayerCount: 2
Fore
SplineSet
184 622 m 5,0,-1
 215 596 l 5,1,2
 179 554 179 554 160 507 c 132,-1,3
 141 460 141 460 139 410.5 c 132,-1,4
 137 361 137 361 150.5 318 c 132,-1,5
 164 275 164 275 185.5 237.5 c 132,-1,6
 207 200 207 200 238 167 c 4,7,8
 280 122 280 122 332.5 95.5 c 132,-1,9
 385 69 385 69 439.5 62 c 132,-1,10
 494 55 494 55 555.5 73 c 132,-1,11
 617 91 617 91 672 142 c 5,12,-1
 700 113 l 5,13,-1
 727 84 l 5,14,15
 659 20 659 20 581 -2.5 c 132,-1,16
 503 -25 503 -25 433 -17 c 132,-1,17
 363 -9 363 -9 297 24.5 c 132,-1,18
 231 58 231 58 180 112 c 4,19,20
 149 145 149 145 125 184 c 132,-1,21
 101 223 101 223 83 266 c 132,-1,22
 65 309 65 309 61 355.5 c 132,-1,23
 57 402 57 402 64 454.5 c 132,-1,24
 71 507 71 507 93.5 555.5 c 132,-1,25
 116 604 116 604 153 648 c 5,26,-1
 184 622 l 5,0,-1
700 113 m 5,27,-1
 672 142 l 5,28,29
 680 150 680 150 688 159 c 4,30,31
 730 204 730 204 754 281 c 4,32,33
 774 346 774 346 760.5 406.5 c 4,34,35
 743 480 743 480 721.5 517 c 4,36,37
 694 565 694 565 645 610 c 4,38,39
 600 651 600 651 547 673 c 132,-1,40
 494 695 494 695 439 696.5 c 132,-1,41
 384 698 384 698 324.5 675.5 c 132,-1,42
 265 653 265 653 214 595 c 5,43,-1
 184 622 l 5,44,-1
 154 649 l 5,45,46
 217 720 217 720 292.5 749 c 132,-1,47
 368 778 368 778 438 776 c 132,-1,48
 508 774 508 774 575.5 746.5 c 132,-1,49
 643 719 643 719 699 669.5 c 132,-1,50
 755 620 755 620 789.5 557 c 132,-1,51
 824 494 824 494 839 415.5 c 4,52,53
 853.531111766 339.453848422 853.531111766 339.453848422 830 258 c 4,54,55
 804 166 804 166 748 106 c 4,56,57
 738 95 738 95 728 85 c 5,58,-1
 700 113 l 5,27,-1
453 339 m 1,59,-1
 485 364 l 1,60,-1
 751 24 l 1,61,-1
 720 0 l 1,62,-1
 689 -25 l 1,63,-1
 422 314 l 1,64,-1
 453 339 l 1,59,-1
453 339 m 1,65,-1
 485 364 l 1,66,-1
 751 24 l 1,67,-1
 720 0 l 1,68,-1
 689 -25 l 1,69,-1
 422 314 l 1,70,-1
 453 339 l 1,65,-1
EndSplineSet
EndChar

StartChar: R
Encoding: 82 82 53
Width: 671
Flags: W
LayerCount: 2
Fore
SplineSet
226 359 m 1,0,1
 332 358 332 358 391.5 371.5 c 128,-1,2
 451 385 451 385 478 433 c 0,3,4
 497 468 497 468 491.5 503.5 c 128,-1,5
 486 539 486 539 461.5 571.5 c 128,-1,6
 437 604 437 604 399 626 c 0,7,8
 386 634 386 634 374 638.5 c 128,-1,9
 362 643 362 643 344 645 c 128,-1,10
 326 647 326 647 315.5 648 c 128,-1,11
 305 649 305 649 274 650 c 128,-1,12
 243 651 243 651 226 651 c 1,13,-1
 226 359 l 1,0,1
226 279 m 1,14,-1
 226 40 l 1,15,-1
 186 40 l 1,16,-1
 146 40 l 1,17,-1
 146 319 l 1,18,-1
 146 692 l 2,19,20
 146 709 146 709 158.5 720.5 c 128,-1,21
 171 732 171 732 186 732 c 0,22,23
 250 732 250 732 270.5 731.5 c 128,-1,24
 291 731 291 731 329.5 728 c 128,-1,25
 368 725 368 725 391 717.5 c 128,-1,26
 414 710 414 710 438 696 c 0,27,28
 523 647 523 647 556.5 559 c 128,-1,29
 590 471 590 471 547 393 c 0,30,31
 531 364 531 364 507 343 c 128,-1,32
 483 322 483 322 457.5 310.5 c 128,-1,33
 432 299 432 299 402 291 c 128,-1,34
 372 283 372 283 342.5 281.5 c 128,-1,35
 313 280 313 280 283 279 c 128,-1,36
 253 278 253 278 226 279 c 1,14,-1
512 40 m 1,37,-1
 479 18 l 1,38,-1
 293 297 l 1,39,-1
 326 319 l 1,40,-1
 359 342 l 1,41,-1
 546 62 l 1,42,-1
 512 40 l 1,37,-1
90 40 m 1,43,-1
 90 80 l 1,44,-1
 280 80 l 1,45,-1
 280 40 l 1,46,-1
 280 0 l 1,47,-1
 90 0 l 1,48,-1
 90 40 l 1,43,-1
416 40 m 1,49,-1
 416 80 l 1,50,-1
 606 80 l 1,51,-1
 606 40 l 1,52,-1
 606 0 l 1,53,-1
 416 0 l 1,54,-1
 416 40 l 1,49,-1
90 692 m 1,55,-1
 90 732 l 1,56,-1
 186 732 l 1,57,-1
 186 692 l 1,58,-1
 186 652 l 1,59,-1
 90 652 l 1,60,-1
 90 692 l 1,55,-1
EndSplineSet
EndChar

StartChar: S
Encoding: 83 83 54
Width: 665
Flags: W
LayerCount: 2
Fore
SplineSet
494 718 m 1,0,-1
 519 718 l 1,1,-1
 559 718 l 1,2,-1
 559 574 l 2,3,4
 559 557 559 557 546 545 c 128,-1,5
 533 533 533 533 516 534 c 0,6,7
 495 536 495 536 484 554 c 0,8,9
 447 619 447 619 383 641 c 0,10,11
 305 667 305 667 263 651 c 0,12,13
 208 630 208 630 184 570 c 0,14,15
 173 542 173 542 187.5 519 c 128,-1,16
 202 496 202 496 238 476.5 c 128,-1,17
 274 457 274 457 315.5 439 c 128,-1,18
 357 421 357 421 413.5 392.5 c 128,-1,19
 470 364 470 364 513 334 c 0,20,21
 553 306 553 306 574.5 270.5 c 128,-1,22
 596 235 596 235 592 186 c 128,-1,23
 588 137 588 137 552 85 c 0,24,25
 550 82 550 82 547 80 c 0,26,27
 523 55 523 55 494 37 c 0,28,29
 424 -7 424 -7 342 -11 c 128,-1,30
 260 -15 260 -15 186 23 c 0,31,32
 108 63 108 63 66 133 c 0,33,34
 60 143 60 143 60 155 c 2,35,-1
 60 240 l 1,36,-1
 100 240 l 1,37,-1
 140 240 l 1,38,-1
 140 167 l 1,39,40
 194 89 194 89 289 72.5 c 0,41,42
 379 57 379 57 460 111 c 0,43,44
 481 125 481 125 488 134 c 0,45,46
 511 164 511 164 515 193.5 c 0,47,48
 518 218 518 218 506 234.5 c 0,49,50
 491 256 491 256 465 271 c 0,51,52
 450 280 450 280 425 292 c 128,-1,53
 400 304 400 304 373.5 315 c 128,-1,54
 347 326 347 326 315 340.5 c 128,-1,55
 283 355 283 355 254.5 369.5 c 128,-1,56
 226 384 226 384 197 402.5 c 128,-1,57
 168 421 168 421 148.5 440.5 c 128,-1,58
 129 460 129 460 114 485 c 128,-1,59
 99 510 99 510 99 537 c 0,60,61
 99 569 99 569 109 598 c 0,62,63
 125 644 125 644 158.5 677 c 128,-1,64
 192 710 192 710 233 724.5 c 0,65,66
 267 737 267 737 320.5 740 c 0,67,68
 337 741 337 741 410 719 c 0,69,70
 420 716 420 716 456 699 c 0,71,72
 481 687 481 687 489 689.5 c 128,-1,73
 497 692 497 692 494 718 c 1,0,-1
EndSplineSet
EndChar

StartChar: T
Encoding: 84 84 55
Width: 575
Flags: W
LayerCount: 2
Fore
SplineSet
293 40 m 5,0,-1
 253 40 l 5,1,-1
 253 692 l 5,2,-1
 293 692 l 5,3,-1
 333 692 l 5,4,-1
 333 40 l 5,5,-1
 293 40 l 5,0,-1
61 595 m 5,6,-1
 21 595 l 5,7,-1
 21 712 l 6,8,9
 21 718 21 718 21.5 722 c 132,-1,10
 22 726 22 726 22 728 c 132,-1,11
 22 730 22 730 24.5 731 c 132,-1,12
 27 732 27 732 27.5 732.5 c 132,-1,13
 28 733 28 733 33 732.5 c 132,-1,14
 38 732 38 732 41 732 c 6,15,-1
 546 732 l 6,16,17
 553 732 553 732 556.5 731.5 c 132,-1,18
 560 731 560 731 562.5 731 c 132,-1,19
 565 731 565 731 565.5 728.5 c 132,-1,20
 566 726 566 726 566.5 725 c 132,-1,21
 567 724 567 724 566.5 719 c 132,-1,22
 566 714 566 714 566 712 c 6,23,-1
 566 595 l 5,24,-1
 526 595 l 5,25,-1
 486 595 l 5,26,-1
 486 652 l 5,27,-1
 101 652 l 5,28,-1
 101 595 l 5,29,-1
 61 595 l 5,6,-1
197 40 m 5,30,-1
 197 80 l 5,31,-1
 390 80 l 5,32,-1
 390 40 l 5,33,-1
 390 0 l 5,34,-1
 197 0 l 5,35,-1
 197 40 l 5,30,-1
EndSplineSet
EndChar

StartChar: U
Encoding: 85 85 56
Width: 785
Flags: W
LayerCount: 2
Fore
SplineSet
710 40 m 5,0,-1
 710 0 l 5,1,-1
 613 0 l 6,2,3
 596 0 596 0 584.5 13 c 132,-1,4
 573 26 573 26 573 40 c 6,5,-1
 573 652 l 5,6,-1
 517 652 l 5,7,-1
 517 692 l 5,8,-1
 517 732 l 5,9,-1
 633 732 l 6,10,11
 635 732 635 732 639 732 c 132,-1,12
 643 732 643 732 644.5 732 c 132,-1,13
 646 732 646 732 648 731.5 c 132,-1,14
 650 731 650 731 650.5 730 c 132,-1,15
 651 729 651 729 652 726.5 c 132,-1,16
 653 724 653 724 653 720.5 c 132,-1,17
 653 717 653 717 653 712 c 6,18,-1
 653 80 l 5,19,-1
 710 80 l 5,20,-1
 710 40 l 5,0,-1
613 133 m 5,21,-1
 633 99 l 5,22,23
 573 64 573 64 510 39.5 c 132,-1,24
 447 15 447 15 388.5 2.5 c 132,-1,25
 330 -10 330 -10 278 -10 c 4,26,27
 205 -10 205 -10 156 29 c 132,-1,28
 107 68 107 68 107 143 c 6,29,-1
 107 652 l 5,30,-1
 52 652 l 5,31,-1
 52 692 l 5,32,-1
 52 732 l 5,33,-1
 167 732 l 6,34,35
 170 732 170 732 174 732 c 132,-1,36
 178 732 178 732 179 732 c 132,-1,37
 180 732 180 732 182 731.5 c 132,-1,38
 184 731 184 731 184.5 730 c 132,-1,39
 185 729 185 729 186 726.5 c 132,-1,40
 187 724 187 724 187 720.5 c 132,-1,41
 187 717 187 717 187 712 c 6,42,-1
 187 143 l 6,43,44
 187 103 187 103 207.5 86.5 c 132,-1,45
 228 70 228 70 278 70 c 4,46,47
 341 70 341 70 426 95 c 132,-1,48
 511 120 511 120 593 168 c 5,49,-1
 613 133 l 5,21,-1
EndSplineSet
EndChar

StartChar: V
Encoding: 86 86 57
Width: 739
Flags: W
LayerCount: 2
Fore
SplineSet
637 691 m 1,0,-1
 673 675 l 1,1,-1
 406 23 l 2,2,3
 399 7 399 7 382.5 1 c 128,-1,4
 366 -5 366 -5 351 3 c 0,5,6
 338 10 338 10 332 23 c 2,7,-1
 65 675 l 1,8,-1
 102 691 l 1,9,-1
 138 707 l 1,10,-1
 369 140 l 1,11,-1
 600 707 l 1,12,-1
 637 691 l 1,0,-1
15 691 m 1,13,-1
 15 731 l 1,14,-1
 208 731 l 1,15,-1
 208 691 l 1,16,-1
 208 651 l 1,17,-1
 15 651 l 1,18,-1
 15 691 l 1,13,-1
530 691 m 1,19,-1
 530 731 l 1,20,-1
 723 731 l 1,21,-1
 723 691 l 1,22,-1
 723 651 l 1,23,-1
 530 651 l 1,24,-1
 530 691 l 1,19,-1
EndSplineSet
EndChar

StartChar: W
Encoding: 87 87 58
Width: 1023
Flags: W
LayerCount: 2
Fore
SplineSet
105 691 m 1,0,-1
 143 702 l 1,1,-1
 283 160 l 1,2,-1
 472 614 l 2,3,4
 479 630 479 630 495.5 636 c 128,-1,5
 512 642 512 642 527 634 c 0,6,7
 540 627 540 627 546 614 c 2,8,-1
 735 160 l 1,9,-1
 875 702 l 1,10,-1
 913 691 l 1,11,-1
 952 680 l 1,12,-1
 780 28 l 2,13,14
 776 12 776 12 760 4 c 0,15,16
 749 -1 749 -1 738.5 -0.5 c 128,-1,17
 728 0 728 0 718.5 7 c 128,-1,18
 709 14 709 14 705 24 c 2,19,-1
 509 494 l 1,20,-1
 313 24 l 2,21,22
 306 8 306 8 290 2 c 128,-1,23
 274 -4 274 -4 258 4 c 128,-1,24
 242 12 242 12 238 28 c 2,25,-1
 66 680 l 1,26,-1
 105 691 l 1,0,-1
13 691 m 1,27,-1
 13 731 l 1,28,-1
 206 731 l 1,29,-1
 206 691 l 1,30,-1
 206 651 l 1,31,-1
 13 651 l 1,32,-1
 13 691 l 1,27,-1
812 691 m 1,33,-1
 812 731 l 1,34,-1
 1005 731 l 1,35,-1
 1005 691 l 1,36,-1
 1005 651 l 1,37,-1
 812 651 l 1,38,-1
 812 691 l 1,33,-1
EndSplineSet
EndChar

StartChar: X
Encoding: 88 88 59
Width: 790
Flags: W
LayerCount: 2
Fore
SplineSet
164 692 m 1,0,-1
 206 715 l 1,1,-1
 662 63 l 1,2,-1
 630 40 l 1,3,-1
 597 17 l 1,4,-1
 141 669 l 1,5,-1
 164 692 l 1,0,-1
620 692 m 1,6,-1
 652 669 l 1,7,-1
 429 343 l 1,8,-1
 397 366 l 1,9,-1
 364 389 l 1,10,-1
 587 715 l 1,11,-1
 620 692 l 1,6,-1
397 366 m 1,12,-1
 429 343 l 1,13,-1
 196 17 l 1,14,-1
 164 40 l 1,15,-1
 131 63 l 1,16,-1
 364 389 l 1,17,-1
 397 366 l 1,12,-1
77 692 m 1,18,-1
 77 732 l 1,19,-1
 270 732 l 1,20,-1
 270 692 l 1,21,-1
 270 652 l 1,22,-1
 77 652 l 1,23,-1
 77 692 l 1,18,-1
67 40 m 1,24,-1
 67 80 l 1,25,-1
 260 80 l 1,26,-1
 260 40 l 1,27,-1
 260 0 l 1,28,-1
 67 0 l 1,29,-1
 67 40 l 1,24,-1
523 692 m 1,30,-1
 523 732 l 1,31,-1
 716 732 l 1,32,-1
 716 692 l 1,33,-1
 716 652 l 1,34,-1
 523 652 l 1,35,-1
 523 692 l 1,30,-1
533 40 m 1,36,-1
 533 80 l 1,37,-1
 726 80 l 1,38,-1
 726 40 l 1,39,-1
 726 0 l 1,40,-1
 533 0 l 1,41,-1
 533 40 l 1,36,-1
EndSplineSet
EndChar

StartChar: Y
Encoding: 89 89 60
Width: 693
Flags: W
LayerCount: 2
Fore
SplineSet
110 693 m 5,0,-1
 143 716 l 5,1,-1
 376 390 l 6,2,3
 383 380 383 380 383 367 c 6,4,-1
 383 41 l 5,5,-1
 343 41 l 5,6,-1
 303 41 l 5,7,-1
 303 354 l 5,8,-1
 78 670 l 5,9,-1
 110 693 l 5,0,-1
576 693 m 5,10,-1
 608 670 l 5,11,-1
 376 344 l 5,12,-1
 343 367 l 5,13,-1
 310 390 l 5,14,-1
 543 716 l 5,15,-1
 576 693 l 5,10,-1
14 693 m 5,16,-1
 14 733 l 5,17,-1
 207 733 l 5,18,-1
 207 693 l 5,19,-1
 207 653 l 5,20,-1
 14 653 l 5,21,-1
 14 693 l 5,16,-1
479 693 m 5,22,-1
 479 733 l 5,23,-1
 672 733 l 5,24,-1
 672 693 l 5,25,-1
 672 653 l 5,26,-1
 479 653 l 5,27,-1
 479 693 l 5,22,-1
246 41 m 5,28,-1
 246 81 l 5,29,-1
 440 81 l 5,30,-1
 440 41 l 5,31,-1
 440 1 l 5,32,-1
 246 1 l 5,33,-1
 246 41 l 5,28,-1
EndSplineSet
EndChar

StartChar: Z
Encoding: 90 90 61
Width: 699
Flags: W
LayerCount: 2
Fore
SplineSet
132 595 m 1,0,-1
 92 595 l 1,1,-1
 92 711 l 2,2,3
 92 718 92 718 92.5 721.5 c 128,-1,4
 93 725 93 725 93 727.5 c 128,-1,5
 93 730 93 730 95.5 730.5 c 128,-1,6
 98 731 98 731 99 731.5 c 128,-1,7
 100 732 100 732 105 731.5 c 128,-1,8
 110 731 110 731 112 731 c 2,9,-1
 599 731 l 2,10,11
 610 731 610 731 615 725 c 128,-1,12
 620 719 620 719 620 709.5 c 128,-1,13
 620 700 620 700 619 688 c 0,14,15
 618 677 618 677 612 668 c 2,16,-1
 191 79 l 1,17,-1
 539 79 l 1,18,-1
 539 136 l 1,19,-1
 579 136 l 1,20,-1
 619 136 l 1,21,-1
 619 19 l 2,22,23
 619 17 619 17 619 13 c 128,-1,24
 619 9 619 9 619 8 c 128,-1,25
 619 7 619 7 618.5 4.5 c 128,-1,26
 618 2 618 2 617 1.5 c 128,-1,27
 616 1 616 1 613.5 0.5 c 128,-1,28
 611 0 611 0 607.5 -0.5 c 128,-1,29
 604 -1 604 -1 599 -1 c 2,30,-1
 113 -1 l 2,31,32
 102 -1 102 -1 93 5 c 0,33,34
 78 14 78 14 74.5 31.5 c 128,-1,35
 71 49 71 49 81 63 c 2,36,-1
 501 651 l 1,37,-1
 172 651 l 1,38,-1
 172 595 l 1,39,-1
 132 595 l 1,0,-1
EndSplineSet
EndChar

StartChar: bracketleft
Encoding: 91 91 62
Width: 399
Flags: W
LayerCount: 2
Fore
SplineSet
278 776 m 1,0,-1
 278 736 l 1,1,-1
 206 736 l 1,2,-1
 206 37 l 1,3,-1
 278 37 l 1,4,-1
 278 -3 l 1,5,-1
 278 -43 l 1,6,-1
 146 -43 l 2,7,8
 143 -43 143 -43 139 -43 c 128,-1,9
 135 -43 135 -43 134 -43 c 128,-1,10
 133 -43 133 -43 131 -42.5 c 128,-1,11
 129 -42 129 -42 128.5 -41 c 128,-1,12
 128 -40 128 -40 127 -37.5 c 128,-1,13
 126 -35 126 -35 126 -31.5 c 128,-1,14
 126 -28 126 -28 126 -23 c 2,15,-1
 126 796 l 2,16,17
 126 798 126 798 125.5 802 c 128,-1,18
 125 806 125 806 125 807 c 128,-1,19
 125 808 125 808 126 810.5 c 128,-1,20
 127 813 127 813 128 813.5 c 128,-1,21
 129 814 129 814 131.5 814.5 c 128,-1,22
 134 815 134 815 137 815.5 c 128,-1,23
 140 816 140 816 146 816 c 2,24,-1
 278 816 l 1,25,-1
 278 776 l 1,0,-1
EndSplineSet
EndChar

StartChar: bracketright
Encoding: 93 93 63
Width: 388
Flags: W
LayerCount: 2
Fore
SplineSet
108 776 m 1,0,-1
 108 736 l 1,1,-1
 180 736 l 1,2,-1
 180 37 l 1,3,-1
 108 37 l 1,4,-1
 108 -3 l 1,5,-1
 108 -43 l 1,6,-1
 240 -43 l 2,7,8
 242 -43 242 -43 247 -43 c 128,-1,9
 252 -43 252 -43 253 -43 c 128,-1,10
 254 -43 254 -43 256.5 -42 c 128,-1,11
 259 -41 259 -41 259 -39 c 128,-1,12
 259 -37 259 -37 259.5 -33 c 128,-1,13
 260 -29 260 -29 260 -23 c 2,14,-1
 260 796 l 2,15,16
 260 798 260 798 260 802 c 128,-1,17
 260 806 260 806 260 807 c 128,-1,18
 260 808 260 808 259.5 810.5 c 128,-1,19
 259 813 259 813 258 813.5 c 128,-1,20
 257 814 257 814 254.5 814.5 c 128,-1,21
 252 815 252 815 248.5 815.5 c 128,-1,22
 245 816 245 816 240 816 c 2,23,-1
 108 816 l 1,24,-1
 108 776 l 1,0,-1
EndSplineSet
EndChar

StartChar: asciicircum
Encoding: 94 94 64
Width: 434
Flags: W
LayerCount: 2
Fore
SplineSet
72 791 m 5,0,-1
 50 824 l 5,1,-1
 196 921 l 6,2,3
 218 936 218 936 240 921 c 6,4,-1
 386 824 l 5,5,-1
 364 791 l 5,6,-1
 342 757 l 5,7,-1
 218 840 l 5,8,-1
 94 757 l 5,9,-1
 72 791 l 5,0,-1
EndSplineSet
EndChar

StartChar: underscore
Encoding: 95 95 65
Width: 576
Flags: W
LayerCount: 2
Fore
SplineSet
484 -39 m 1,0,-1
 484 -79 l 1,1,-1
 95 -79 l 1,2,-1
 95 -39 l 1,3,-1
 95 1 l 1,4,-1
 484 1 l 1,5,-1
 484 -39 l 1,0,-1
EndSplineSet
EndChar

StartChar: grave
Encoding: 96 96 66
Width: 536
Flags: W
LayerCount: 2
Fore
SplineSet
118 811 m 5,0,-1
 131 849 l 5,1,-1
 423 752 l 5,2,-1
 410 714 l 5,3,-1
 398 676 l 5,4,-1
 106 773 l 5,5,-1
 118 811 l 5,0,-1
EndSplineSet
EndChar

StartChar: a
Encoding: 97 97 67
Width: 549
Flags: W
LayerCount: 2
Fore
SplineSet
131 398 m 1,0,-1
 93 412 l 1,1,2
 107 451 107 451 134 478.5 c 128,-1,3
 161 506 161 506 193 519 c 128,-1,4
 225 532 225 532 261 533 c 0,5,6
 334 534 334 534 391 484.5 c 128,-1,7
 448 435 448 435 450 352 c 2,8,-1
 450 82 l 1,9,-1
 507 82 l 1,10,-1
 507 42 l 1,11,-1
 507 2 l 1,12,-1
 410 2 l 2,13,14
 396 2 396 2 383 13.5 c 128,-1,15
 370 25 370 25 370 42 c 2,16,-1
 370 351 l 2,17,18
 369 399 369 399 337 426.5 c 128,-1,19
 305 454 305 454 262 453 c 0,20,21
 192 451 192 451 168 384 c 1,22,-1
 131 398 l 1,0,-1
410 265 m 1,23,-1
 410 225 l 1,24,-1
 147 225 l 1,25,26
 142 221 142 221 139 217 c 0,27,28
 128 205 128 205 127 184.5 c 128,-1,29
 126 164 126 164 137.5 141 c 128,-1,30
 149 118 149 118 170 99 c 0,31,32
 195 79 195 79 226 72 c 128,-1,33
 257 65 257 65 299.5 81 c 128,-1,34
 342 97 342 97 379 142 c 1,35,-1
 410 116 l 1,36,-1
 441 90 l 1,37,38
 391 31 391 31 328.5 7.5 c 128,-1,39
 266 -16 266 -16 212.5 -6 c 128,-1,40
 159 4 159 4 119 38 c 0,41,42
 86 66 86 66 65.5 105 c 128,-1,43
 45 144 45 144 46.5 189 c 128,-1,44
 48 234 48 234 78 269 c 0,45,46
 93 287 93 287 115 300 c 0,47,48
 124 305 124 305 135 305 c 2,49,-1
 410 305 l 1,50,-1
 410 265 l 1,23,-1
EndSplineSet
EndChar

StartChar: b
Encoding: 98 98 68
Width: 642
Flags: W
LayerCount: 2
Fore
SplineSet
156 406 m 1,0,-1
 125 430 l 1,1,2
 170 489 170 489 228 514.5 c 128,-1,3
 286 540 286 540 340 534 c 0,4,5
 403 528 403 528 453 498 c 0,6,7
 519 458 519 458 554 407 c 0,8,9
 597 345 597 345 606.5 267 c 128,-1,10
 616 189 616 189 573 112 c 0,11,12
 553 77 553 77 522 51 c 0,13,14
 468 5 468 5 397 -5.5 c 128,-1,15
 326 -16 326 -16 250.5 10.5 c 128,-1,16
 175 37 175 37 126 97 c 1,17,-1
 156 122 l 1,18,-1
 187 148 l 1,19,20
 215 114 215 114 252.5 95 c 128,-1,21
 290 76 290 76 332 73 c 128,-1,22
 374 70 374 70 409.5 80 c 128,-1,23
 445 90 445 90 471 112 c 0,24,25
 491 129 491 129 504 152 c 0,26,27
 534 207 534 207 527 263 c 0,28,29
 520 322 520 322 487.5 364 c 0,30,31
 458 402 458 402 413 428 c 0,32,33
 375 450 375 450 333 454.5 c 0,34,35
 297 459 297 459 259 441 c 128,-1,36
 221 423 221 423 188 381 c 1,37,-1
 156 406 l 1,0,-1
54 787 m 1,38,-1
 54 827 l 1,39,-1
 171 827 l 2,40,41
 177 827 177 827 181 826.5 c 128,-1,42
 185 826 185 826 187 826 c 128,-1,43
 189 826 189 826 190 823.5 c 128,-1,44
 191 821 191 821 191 820 c 128,-1,45
 191 819 191 819 191 814 c 128,-1,46
 191 809 191 809 191 807 c 2,47,-1
 191 22 l 2,48,49
 191 15 191 15 190.5 11.5 c 128,-1,50
 190 8 190 8 190 5.5 c 128,-1,51
 190 3 190 3 187.5 2.5 c 128,-1,52
 185 2 185 2 184 1.5 c 128,-1,53
 183 1 183 1 178 1.5 c 128,-1,54
 173 2 173 2 171 2 c 2,55,-1
 54 2 l 1,56,-1
 54 42 l 1,57,-1
 54 82 l 1,58,-1
 111 82 l 1,59,-1
 111 747 l 1,60,-1
 54 747 l 1,61,-1
 54 787 l 1,38,-1
EndSplineSet
EndChar

StartChar: c
Encoding: 99 99 69
Width: 584
Flags: W
LayerCount: 2
Fore
SplineSet
459 534 m 2,0,-1
 493 534 l 1,1,-1
 527 534 l 1,2,-1
 527 387 l 2,3,4
 527 370 527 370 514 358 c 128,-1,5
 501 346 501 346 484 347 c 0,6,7
 463 349 463 349 452 367 c 0,8,9
 433 400 433 400 381 431 c 0,10,11
 341 454 341 454 295.5 459 c 128,-1,12
 250 464 250 464 212 441 c 128,-1,13
 174 418 174 418 149 375 c 0,14,15
 130 342 130 342 125.5 304 c 128,-1,16
 121 266 121 266 130.5 235.5 c 128,-1,17
 140 205 140 205 156 179 c 128,-1,18
 172 153 172 153 196 131 c 0,19,20
 233 95 233 95 276 80.5 c 128,-1,21
 319 66 319 66 367.5 78.5 c 128,-1,22
 416 91 416 91 458 135 c 1,23,-1
 487 108 l 1,24,-1
 516 80 l 1,25,26
 457 19 457 19 386.5 1 c 128,-1,27
 316 -17 316 -17 253.5 3.5 c 128,-1,28
 191 24 191 24 140 73 c 0,29,30
 97 115 97 115 71.5 166.5 c 128,-1,31
 46 218 46 218 45.5 286.5 c 128,-1,32
 45 355 45 355 80 415 c 0,33,34
 116 478 116 478 180 511 c 0,35,36
 230 537 230 537 308.5 532 c 0,37,38
 364.988978381 529.007206443 364.988978381 529.007206443 417 495 c 0,39,40
 443 478 443 478 453 491 c 0,41,42
 454 492.727272727 454 492.727272727 454 506 c 0,43,44
 455 534 455 534 459 534 c 2,0,-1
EndSplineSet
EndChar

StartChar: d
Encoding: 100 100 70
Width: 673
Flags: W
LayerCount: 2
Fore
SplineSet
507 377 m 1,0,-1
 477 351 l 1,1,2
 460 371 460 371 440 388 c 0,3,4
 369 447 369 447 290.5 450 c 128,-1,5
 212 453 212 453 165 397 c 0,6,7
 129 354 129 354 122.5 299 c 128,-1,8
 116 244 116 244 135.5 196.5 c 128,-1,9
 155 149 155 149 194 117 c 0,10,11
 233 83 233 83 280 71.5 c 128,-1,12
 327 60 327 60 380 77.5 c 128,-1,13
 433 95 433 95 477 147 c 1,14,-1
 508 122 l 1,15,-1
 538 96 l 1,16,17
 494 44 494 44 440 16.5 c 128,-1,18
 386 -11 386 -11 333 -12 c 128,-1,19
 280 -13 280 -13 231 4.5 c 128,-1,20
 182 22 182 22 142 56 c 0,21,22
 91 99 91 99 64 164.5 c 128,-1,23
 37 230 37 230 45.5 307.5 c 128,-1,24
 54 385 54 385 104 449 c 0,25,26
 152 509 152 509 223 525.5 c 128,-1,27
 294 542 294 542 363 520.5 c 128,-1,28
 432 499 432 499 491 449 c 0,29,30
 517 428 517 428 538 402 c 1,31,-1
 507 377 l 1,0,-1
613 786 m 1,32,-1
 613 746 l 1,33,-1
 556 746 l 1,34,-1
 556 80 l 1,35,-1
 613 80 l 1,36,-1
 613 40 l 1,37,-1
 613 0 l 1,38,-1
 496 0 l 2,39,40
 494 0 494 0 490 0 c 128,-1,41
 486 0 486 0 484.5 0 c 128,-1,42
 483 0 483 0 481 0.5 c 128,-1,43
 479 1 479 1 478.5 2 c 128,-1,44
 478 3 478 3 477 5.5 c 128,-1,45
 476 8 476 8 476 11.5 c 128,-1,46
 476 15 476 15 476 20 c 2,47,-1
 476 806 l 2,48,49
 476 808 476 808 476 812 c 128,-1,50
 476 816 476 816 476 817 c 128,-1,51
 476 818 476 818 476.5 820.5 c 128,-1,52
 477 823 477 823 478 823.5 c 128,-1,53
 479 824 479 824 481.5 824.5 c 128,-1,54
 484 825 484 825 487.5 825.5 c 128,-1,55
 491 826 491 826 496 826 c 2,56,-1
 613 826 l 1,57,-1
 613 786 l 1,32,-1
EndSplineSet
EndChar

StartChar: e
Encoding: 101 101 71
Width: 595
Flags: W
LayerCount: 2
Fore
SplineSet
102 243 m 5,0,-1
 88 281 l 5,1,-1
 479 359 l 5,2,-1
 529 369 l 5,3,-1
 538 291 l 5,4,-1
 116 206 l 5,5,-1
 102 243 l 5,0,-1
492 353 m 5,6,-1
 455 339 l 5,7,8
 437 387 437 387 389 420 c 4,9,10
 351 446 351 446 308.5 454 c 4,11,12
 256 463 256 463 222 447.5 c 4,13,14
 178 427 178 427 153 387 c 4,15,16
 82 271 82 271 172 152 c 4,17,18
 204 110 204 110 258 88 c 132,-1,19
 312 66 312 66 367.5 71.5 c 132,-1,20
 423 77 423 77 473 114 c 5,21,-1
 497 82 l 5,22,-1
 521 50 l 5,23,24
 452 -1 452 -1 374 -8 c 132,-1,25
 296 -15 296 -15 223.5 16 c 132,-1,26
 151 47 151 47 108 104 c 4,27,28
 74 150 74 150 57 199.5 c 132,-1,29
 40 249 40 249 45.5 313.5 c 132,-1,30
 51 378 51 378 86 431 c 4,31,32
 126 491 126 491 188 517.5 c 132,-1,33
 250 544 250 544 315 533.5 c 132,-1,34
 380 523 380 523 434 487 c 4,35,36
 502 441 502 441 530 366 c 5,37,-1
 492 353 l 5,6,-1
EndSplineSet
EndChar

StartChar: f
Encoding: 102 102 72
Width: 475
Flags: W
LayerCount: 2
Fore
SplineSet
461 747 m 1,0,-1
 441 712 l 1,1,2
 410 730 410 730 375 730 c 0,3,4
 315 730 315 730 268 681.5 c 128,-1,5
 221 633 221 633 221 560 c 2,6,-1
 221 40 l 1,7,-1
 181 40 l 1,8,-1
 141 40 l 1,9,-1
 141 560 l 2,10,11
 141 665 141 665 211 737.5 c 128,-1,12
 281 810 281 810 375 810 c 0,13,14
 431 810 431 810 481 781 c 1,15,-1
 461 747 l 1,0,-1
63 482 m 1,16,-1
 63 522 l 1,17,-1
 392 522 l 1,18,-1
 392 482 l 1,19,-1
 392 442 l 1,20,-1
 63 442 l 1,21,-1
 63 482 l 1,16,-1
85 40 m 1,22,-1
 85 80 l 1,23,-1
 296 80 l 1,24,-1
 296 40 l 1,25,-1
 296 0 l 1,26,-1
 85 0 l 1,27,-1
 85 40 l 1,22,-1
EndSplineSet
EndChar

StartChar: g
Encoding: 103 103 73
Width: 642
Flags: W
LayerCount: 2
Fore
SplineSet
499 377 m 1,0,-1
 469 351 l 1,1,2
 452 371 452 371 432 388 c 0,3,4
 361 447 361 447 282.5 450 c 128,-1,5
 204 453 204 453 157 397 c 0,6,7
 130 364 130 364 119.5 324 c 128,-1,8
 109 284 109 284 114.5 246.5 c 128,-1,9
 120 209 120 209 138.5 175 c 128,-1,10
 157 141 157 141 186 117 c 0,11,12
 225 83 225 83 272 71.5 c 128,-1,13
 319 60 319 60 372 77.5 c 128,-1,14
 425 95 425 95 469 147 c 1,15,-1
 500 122 l 1,16,-1
 530 96 l 1,17,18
 486 44 486 44 432 16.5 c 128,-1,19
 378 -11 378 -11 325 -12 c 128,-1,20
 272 -13 272 -13 223 4.5 c 128,-1,21
 174 22 174 22 134 56 c 0,22,23
 83 99 83 99 56 164.5 c 128,-1,24
 29 230 29 230 37.5 307.5 c 128,-1,25
 46 385 46 385 96 449 c 0,26,27
 144 509 144 509 215 525.5 c 128,-1,28
 286 542 286 542 355 520.5 c 128,-1,29
 424 499 424 499 483 449 c 0,30,31
 509 428 509 428 530 402 c 1,32,-1
 499 377 l 1,0,-1
587 480 m 1,33,-1
 587 440 l 1,34,-1
 530 440 l 1,35,-1
 530 -60 l 2,36,37
 530 -133 530 -133 475 -180 c 0,38,39
 428 -219 428 -219 360 -224.5 c 128,-1,40
 292 -230 292 -230 218.5 -197 c 128,-1,41
 145 -164 145 -164 87 -95 c 1,42,-1
 118 -69 l 1,43,-1
 149 -44 l 1,44,45
 184 -86 184 -86 226 -111 c 128,-1,46
 268 -136 268 -136 305 -141 c 128,-1,47
 342 -146 342 -146 373 -140 c 128,-1,48
 404 -134 404 -134 424 -118 c 0,49,50
 450 -96 450 -96 450 -60 c 2,51,-1
 450 500 l 2,52,53
 450 503 450 503 450 506.5 c 128,-1,54
 450 510 450 510 450 511.5 c 128,-1,55
 450 513 450 513 450.5 515 c 128,-1,56
 451 517 451 517 452 517.5 c 128,-1,57
 453 518 453 518 455.5 519 c 128,-1,58
 458 520 458 520 461.5 520 c 128,-1,59
 465 520 465 520 470 520 c 2,60,-1
 587 520 l 1,61,-1
 587 480 l 1,33,-1
EndSplineSet
EndChar

StartChar: h
Encoding: 104 104 74
Width: 644
Flags: W
LayerCount: 2
Fore
SplineSet
63 41 m 1,0,-1
 63 81 l 1,1,-1
 256 81 l 1,2,-1
 256 41 l 1,3,-1
 256 1 l 1,4,-1
 63 1 l 1,5,-1
 63 41 l 1,0,-1
399 41 m 1,6,-1
 399 81 l 1,7,-1
 592 81 l 1,8,-1
 592 41 l 1,9,-1
 592 1 l 1,10,-1
 399 1 l 1,11,-1
 399 41 l 1,6,-1
159 41 m 1,12,-1
 119 41 l 1,13,-1
 119 720 l 1,14,-1
 63 720 l 1,15,-1
 63 760 l 1,16,-1
 63 800 l 1,17,-1
 179 800 l 2,18,19
 182 800 182 800 186 800 c 128,-1,20
 190 800 190 800 191 800.5 c 128,-1,21
 192 801 192 801 194.5 800 c 128,-1,22
 197 799 197 799 197 798 c 128,-1,23
 197 797 197 797 198 794.5 c 128,-1,24
 199 792 199 792 199 789 c 128,-1,25
 199 786 199 786 199 780 c 2,26,-1
 199 41 l 1,27,-1
 159 41 l 1,12,-1
159 405 m 1,28,-1
 134 435 l 1,29,30
 172 467 172 467 217 490 c 128,-1,31
 262 513 262 513 304.5 524 c 128,-1,32
 347 535 347 535 385 535 c 0,33,34
 425 535 425 535 458 521 c 128,-1,35
 491 507 491 507 513 477 c 128,-1,36
 535 447 535 447 535 405 c 2,37,-1
 535 41 l 1,38,-1
 495 41 l 1,39,-1
 455 41 l 1,40,-1
 455 405 l 2,41,42
 455 455 455 455 385 455 c 0,43,44
 339 455 339 455 284.5 438 c 128,-1,45
 230 421 230 421 185 383 c 1,46,-1
 159 405 l 1,28,-1
EndSplineSet
EndChar

StartChar: i
Encoding: 105 105 75
Width: 345
Flags: W
LayerCount: 2
Fore
SplineSet
173 43 m 1,0,-1
 133 43 l 1,1,-1
 133 443 l 1,2,-1
 76 443 l 1,3,-1
 76 483 l 1,4,-1
 76 523 l 1,5,-1
 193 523 l 2,6,7
 195 523 195 523 198.5 523 c 128,-1,8
 202 523 202 523 203 523 c 128,-1,9
 204 523 204 523 206 523 c 128,-1,10
 208 523 208 523 209 522 c 128,-1,11
 210 521 210 521 211 520 c 128,-1,12
 212 519 212 519 212 516.5 c 128,-1,13
 212 514 212 514 212.5 511 c 128,-1,14
 213 508 213 508 213 503 c 2,15,-1
 213 43 l 1,16,-1
 173 43 l 1,0,-1
126 603 m 1,17,-1
 108 639 l 1,18,-1
 201 686 l 1,19,-1
 219 650 l 1,20,-1
 237 614 l 1,21,-1
 144 567 l 1,22,-1
 126 603 l 1,17,-1
76 40 m 1,23,-1
 76 80 l 1,24,-1
 269 80 l 1,25,-1
 269 40 l 1,26,-1
 269 0 l 1,27,-1
 76 0 l 1,28,-1
 76 40 l 1,23,-1
EndSplineSet
EndChar

StartChar: j
Encoding: 106 106 76
Width: 292
Flags: W
LayerCount: 2
Fore
SplineSet
32 -159 m 1,0,-1
 52 -125 l 1,1,2
 67 -135 67 -135 87.5 -128 c 128,-1,3
 108 -121 108 -121 121 -98 c 0,4,5
 131 -80 131 -80 131 -57 c 2,6,-1
 131 443 l 1,7,-1
 52 443 l 1,8,-1
 52 523 l 1,9,-1
 191 523 l 2,10,11
 198 523 198 523 201.5 522.5 c 128,-1,12
 205 522 205 522 207.5 522 c 128,-1,13
 210 522 210 522 210.5 519.5 c 128,-1,14
 211 517 211 517 211.5 516.5 c 128,-1,15
 212 516 212 516 211.5 511 c 128,-1,16
 211 506 211 506 211 503 c 2,17,-1
 211 -57 l 2,18,19
 211 -101 211 -101 190 -138 c 0,20,21
 163 -185 163 -185 113.5 -203 c 128,-1,22
 64 -221 64 -221 12 -194 c 1,23,-1
 32 -159 l 1,0,-1
115 591 m 1,24,-1
 97 627 l 1,25,-1
 190 674 l 1,26,-1
 208 638 l 1,27,-1
 226 602 l 1,28,-1
 133 556 l 1,29,-1
 115 591 l 1,24,-1
EndSplineSet
EndChar

StartChar: k
Encoding: 107 107 77
Width: 651
Flags: W
LayerCount: 2
Fore
SplineSet
158 39 m 1,0,-1
 118 39 l 1,1,-1
 118 720 l 1,2,-1
 61 720 l 1,3,-1
 61 760 l 1,4,-1
 61 800 l 1,5,-1
 179 800 l 2,6,7
 181 800 181 800 185 800 c 128,-1,8
 189 800 189 800 190 800.5 c 128,-1,9
 191 801 191 801 193 800 c 128,-1,10
 195 799 195 799 195.5 798 c 128,-1,11
 196 797 196 797 197 794.5 c 128,-1,12
 198 792 198 792 198 789 c 128,-1,13
 198 786 198 786 198 780 c 2,14,-1
 198 39 l 1,15,-1
 158 39 l 1,0,-1
464 523 m 1,16,-1
 486 490 l 1,17,-1
 180 285 l 1,18,-1
 158 318 l 1,19,-1
 136 352 l 1,20,-1
 442 556 l 1,21,-1
 464 523 l 1,16,-1
232 365 m 1,22,-1
 262 392 l 1,23,-1
 560 66 l 1,24,-1
 530 39 l 1,25,-1
 501 12 l 1,26,-1
 203 338 l 1,27,-1
 232 365 l 1,22,-1
61 39 m 1,28,-1
 61 79 l 1,29,-1
 254 79 l 1,30,-1
 254 39 l 1,31,-1
 254 -1 l 1,32,-1
 61 -1 l 1,33,-1
 61 39 l 1,28,-1
429 39 m 1,34,-1
 429 79 l 1,35,-1
 622 79 l 1,36,-1
 622 39 l 1,37,-1
 622 -1 l 1,38,-1
 429 -1 l 1,39,-1
 429 39 l 1,34,-1
EndSplineSet
EndChar

StartChar: l
Encoding: 108 108 78
Width: 304
Flags: W
LayerCount: 2
Fore
SplineSet
157 41 m 5,0,-1
 117 41 l 5,1,-1
 117 720 l 5,2,-1
 60 720 l 5,3,-1
 60 760 l 5,4,-1
 60 800 l 5,5,-1
 177 800 l 6,6,7
 179 800 179 800 183 800 c 132,-1,8
 187 800 187 800 188.5 800.5 c 132,-1,9
 190 801 190 801 192 800 c 132,-1,10
 194 799 194 799 194.5 798 c 132,-1,11
 195 797 195 797 196 794.5 c 132,-1,12
 197 792 197 792 197 789 c 132,-1,13
 197 786 197 786 197 780 c 6,14,-1
 197 41 l 5,15,-1
 157 41 l 5,0,-1
60 41 m 5,16,-1
 60 81 l 5,17,-1
 254 81 l 5,18,-1
 254 41 l 5,19,-1
 254 1 l 5,20,-1
 60 1 l 5,21,-1
 60 41 l 5,16,-1
EndSplineSet
EndChar

StartChar: m
Encoding: 109 109 79
Width: 863
Flags: W
LayerCount: 2
Fore
SplineSet
155 40 m 1,0,-1
 115 40 l 1,1,-1
 115 455 l 1,2,-1
 58 455 l 1,3,-1
 58 495 l 1,4,-1
 58 523 l 1,5,-1
 175 523 l 2,6,7
 176 523 176 523 180 523 c 128,-1,8
 184 523 184 523 185 523 c 128,-1,9
 186 523 186 523 188.5 522.5 c 128,-1,10
 191 522 191 522 191 521 c 128,-1,11
 191 520 191 520 192.5 519 c 128,-1,12
 194 518 194 518 194 515.5 c 128,-1,13
 194 513 194 513 194.5 509.5 c 128,-1,14
 195 506 195 506 195 502 c 2,15,-1
 195 40 l 1,16,-1
 155 40 l 1,0,-1
155 426 m 1,17,-1
 135 460 l 1,18,19
 261 533 261 533 355 534 c 0,20,21
 386 534 386 534 412.5 522.5 c 128,-1,22
 439 511 439 511 456.5 486 c 128,-1,23
 474 461 474 461 474 426 c 2,24,-1
 474 40 l 1,25,-1
 434 40 l 1,26,-1
 394 40 l 1,27,-1
 394 426 l 2,28,29
 394 443 394 443 387.5 448.5 c 128,-1,30
 381 454 381 454 355 454 c 0,31,32
 323 453 323 453 273.5 436.5 c 128,-1,33
 224 420 224 420 175 391 c 1,34,-1
 155 426 l 1,17,-1
434 426 m 1,35,-1
 414 460 l 1,36,37
 541 533 541 533 635 534 c 0,38,39
 666 534 666 534 692 522.5 c 128,-1,40
 718 511 718 511 735.5 486 c 128,-1,41
 753 461 753 461 753 426 c 2,42,-1
 753 40 l 1,43,-1
 713 40 l 1,44,-1
 673 40 l 1,45,-1
 673 426 l 2,46,47
 673 443 673 443 666.5 448.5 c 128,-1,48
 660 454 660 454 635 454 c 0,49,50
 602 453 602 453 553 436.5 c 128,-1,51
 504 420 504 420 454 391 c 1,52,-1
 434 426 l 1,35,-1
58 40 m 1,53,-1
 58 80 l 1,54,-1
 251 80 l 1,55,-1
 251 40 l 1,56,-1
 251 0 l 1,57,-1
 58 0 l 1,58,-1
 58 40 l 1,53,-1
337 40 m 1,59,-1
 337 80 l 1,60,-1
 531 80 l 1,61,-1
 531 40 l 1,62,-1
 531 0 l 1,63,-1
 337 0 l 1,64,-1
 337 40 l 1,59,-1
617 40 m 1,65,-1
 617 80 l 1,66,-1
 810 80 l 1,67,-1
 810 40 l 1,68,-1
 810 0 l 1,69,-1
 617 0 l 1,70,-1
 617 40 l 1,65,-1
EndSplineSet
EndChar

StartChar: n
Encoding: 110 110 80
Width: 616
Flags: W
LayerCount: 2
Fore
SplineSet
150 41 m 5,0,-1
 110 41 l 5,1,-1
 110 445 l 5,2,-1
 53 445 l 5,3,-1
 53 485 l 5,4,-1
 53 525 l 5,5,-1
 170 525 l 6,6,7
 172 525 172 525 176 525 c 132,-1,8
 180 525 180 525 181 525 c 132,-1,9
 182 525 182 525 184.5 524.5 c 132,-1,10
 187 524 187 524 187.5 523 c 132,-1,11
 188 522 188 522 188.5 519.5 c 132,-1,12
 189 517 189 517 189.5 513.5 c 132,-1,13
 190 510 190 510 190 505 c 6,14,-1
 190 41 l 5,15,-1
 150 41 l 5,0,-1
150 414 m 5,16,-1
 130 448 l 5,17,18
 276 533 276 533 384 533 c 4,19,20
 439 533 439 533 477.5 502.5 c 132,-1,21
 516 472 516 472 516 414 c 6,22,-1
 516 41 l 5,23,-1
 476 41 l 5,24,-1
 436 41 l 5,25,-1
 436 414 l 6,26,27
 436 429 436 429 431.5 437 c 132,-1,28
 427 445 427 445 416 449 c 132,-1,29
 405 453 405 453 384 453 c 4,30,31
 345 453 345 453 286.5 433 c 132,-1,32
 228 413 228 413 170 379 c 5,33,-1
 150 414 l 5,16,-1
53 41 m 5,34,-1
 53 81 l 5,35,-1
 246 81 l 5,36,-1
 246 41 l 5,37,-1
 246 1 l 5,38,-1
 53 1 l 5,39,-1
 53 41 l 5,34,-1
379 41 m 5,40,-1
 379 81 l 5,41,-1
 572 81 l 5,42,-1
 572 41 l 5,43,-1
 572 1 l 5,44,-1
 379 1 l 5,45,-1
 379 41 l 5,40,-1
EndSplineSet
EndChar

StartChar: o
Encoding: 111 111 81
Width: 636
Flags: W
LayerCount: 2
Fore
SplineSet
162.75 458 m 5,0,-1
 188.75 427 l 5,1,2
 142 387 142 387 126.25 338.5 c 4,3,4
 110 288 110 288 125.25 235.5 c 4,5,6
 136 199 136 199 167.75 149 c 4,7,8
 187 119 187 119 221.75 97.5 c 4,9,10
 251 79 251 79 292.25 71.5 c 4,11,12
 334 64 334 64 371.25 67 c 4,13,14
 409 70 409 70 449.75 98 c 5,15,-1
 471.75 65 l 5,16,-1
 493.75 31 l 5,17,18
 420 -18 420 -18 346.25 -18 c 4,19,20
 276 -18 276 -18 209.75 15 c 4,21,22
 135 52 135 52 102.25 104 c 4,23,24
 61 169 61 169 46.75 224 c 4,25,26
 29 295 29 295 51.75 366 c 4,27,28
 74 436 74 436 136.75 489 c 5,29,-1
 162.75 458 l 5,0,-1
471.75 65 m 5,30,-1
 445.75 95 l 5,31,32
 491.75 133 491.75 133 508.25 186.5 c 132,-1,33
 524.75 240 524.75 240 509.75 290.5 c 4,34,35
 495.75 340 495.75 340 465.25 380 c 132,-1,36
 434.75 420 434.75 420 385.25 443.5 c 4,37,38
 342.75 463 342.75 463 286.25 462 c 4,39,40
 239.75 461 239.75 461 184.75 425 c 5,41,-1
 162.75 458 l 5,42,-1
 140.75 491 l 5,43,44
 214.75 541 214.75 541 284.25 541.5 c 4,45,46
 366.75 542 366.75 542 423.25 510.5 c 4,47,48
 505.75 466 505.75 466 532.75 424 c 4,49,50
 557.75 386 557.75 386 578.75 338.5 c 4,51,52
 598.75 291 598.75 291 597.25 233.5 c 132,-1,53
 595.75 176 595.75 176 570.25 124.5 c 132,-1,54
 544.75 73 544.75 73 497.75 34 c 5,55,-1
 471.75 65 l 5,30,-1
EndSplineSet
EndChar

StartChar: p
Encoding: 112 112 82
Width: 645
Flags: W
LayerCount: 2
Fore
SplineSet
146 406 m 1,0,-1
 115 430 l 1,1,2
 160 489 160 489 218 514.5 c 128,-1,3
 276 540 276 540 330 534 c 0,4,5
 393 528 393 528 443 498 c 0,6,7
 509 458 509 458 544 407 c 0,8,9
 587 345 587 345 596.5 267 c 128,-1,10
 606 189 606 189 563 112 c 0,11,12
 543 77 543 77 512 51 c 0,13,14
 458 5 458 5 387 -5.5 c 128,-1,15
 316 -16 316 -16 240.5 10.5 c 128,-1,16
 165 37 165 37 116 97 c 1,17,-1
 146 122 l 1,18,-1
 177 148 l 1,19,20
 205 114 205 114 242.5 95 c 128,-1,21
 280 76 280 76 322 73 c 128,-1,22
 364 70 364 70 399.5 80 c 128,-1,23
 435 90 435 90 461 112 c 0,24,25
 481 129 481 129 494 152 c 0,26,27
 524 207 524 207 517 263 c 0,28,29
 510 322 510 322 477.5 364 c 0,30,31
 448 402 448 402 403 428 c 0,32,33
 365 450 365 450 323 454.5 c 0,34,35
 287 459 287 459 249 441 c 128,-1,36
 211 423 211 423 178 381 c 1,37,-1
 146 406 l 1,0,-1
43 484 m 1,38,-1
 43 524 l 1,39,-1
 159 524 l 2,40,41
 166 524 166 524 169.5 523.5 c 128,-1,42
 173 523 173 523 175.5 523 c 128,-1,43
 178 523 178 523 178.5 520.5 c 128,-1,44
 179 518 179 518 179.5 517 c 128,-1,45
 180 516 180 516 179.5 511.5 c 128,-1,46
 179 507 179 507 179 504 c 2,47,-1
 179 -168 l 1,48,-1
 139 -168 l 1,49,-1
 99 -168 l 1,50,-1
 99 444 l 1,51,-1
 43 444 l 1,52,-1
 43 484 l 1,38,-1
43 -168 m 1,53,-1
 43 -128 l 1,54,-1
 236 -128 l 1,55,-1
 236 -168 l 1,56,-1
 236 -208 l 1,57,-1
 43 -208 l 1,58,-1
 43 -168 l 1,53,-1
EndSplineSet
EndChar

StartChar: q
Encoding: 113 113 83
Width: 673
Flags: W
LayerCount: 2
Fore
SplineSet
609 482 m 1,0,-1
 609 442 l 1,1,-1
 552 442 l 1,2,-1
 552 -170 l 1,3,-1
 512 -170 l 1,4,-1
 472 -170 l 1,5,-1
 472 502 l 2,6,7
 472 504 472 504 472 508 c 128,-1,8
 472 512 472 512 472 513.5 c 128,-1,9
 472 515 472 515 472.5 517 c 128,-1,10
 473 519 473 519 474 519.5 c 128,-1,11
 475 520 475 520 477.5 521 c 128,-1,12
 480 522 480 522 483.5 522 c 128,-1,13
 487 522 487 522 492 522 c 2,14,-1
 609 522 l 1,15,-1
 609 482 l 1,0,-1
512 377 m 1,16,-1
 482 351 l 1,17,18
 465 371 465 371 445 388 c 0,19,20
 374 447 374 447 295.5 450 c 128,-1,21
 217 453 217 453 170 397 c 0,22,23
 134 354 134 354 127.5 299 c 128,-1,24
 121 244 121 244 140.5 196.5 c 128,-1,25
 160 149 160 149 199 117 c 0,26,27
 238 83 238 83 285 71.5 c 128,-1,28
 332 60 332 60 385 77.5 c 128,-1,29
 438 95 438 95 482 147 c 1,30,-1
 513 122 l 1,31,-1
 543 96 l 1,32,33
 499 44 499 44 445 16.5 c 128,-1,34
 391 -11 391 -11 338 -12 c 128,-1,35
 285 -13 285 -13 236 4.5 c 128,-1,36
 187 22 187 22 147 56 c 0,37,38
 96 99 96 99 69 164.5 c 128,-1,39
 42 230 42 230 50.5 307.5 c 128,-1,40
 59 385 59 385 109 449 c 0,41,42
 157 509 157 509 228 525.5 c 128,-1,43
 299 542 299 542 368 520.5 c 128,-1,44
 437 499 437 499 496 449 c 0,45,46
 522 428 522 428 543 402 c 1,47,-1
 512 377 l 1,16,-1
416 -170 m 1,48,-1
 416 -130 l 1,49,-1
 609 -130 l 1,50,-1
 609 -170 l 1,51,-1
 609 -210 l 1,52,-1
 416 -210 l 1,53,-1
 416 -170 l 1,48,-1
EndSplineSet
EndChar

StartChar: r
Encoding: 114 114 84
Width: 532
Flags: W
LayerCount: 2
Fore
SplineSet
160 41 m 1,0,-1
 120 41 l 1,1,-1
 120 453 l 1,2,-1
 64 453 l 1,3,-1
 64 493 l 1,4,-1
 64 524 l 1,5,-1
 180 524 l 2,6,7
 183 524 183 524 187 524 c 128,-1,8
 191 524 191 524 192 524 c 128,-1,9
 193 524 193 524 195.5 523.5 c 128,-1,10
 198 523 198 523 198.5 522 c 128,-1,11
 199 521 199 521 199.5 518.5 c 128,-1,12
 200 516 200 516 200 512.5 c 128,-1,13
 200 509 200 509 200 504 c 2,14,-1
 200 41 l 1,15,-1
 160 41 l 1,0,-1
448 400 m 1,16,-1
 408 407 l 1,17,18
 414 441 414 441 368 452 c 0,19,20
 332 460 332 460 291 441 c 128,-1,21
 250 422 250 422 186 369 c 1,22,-1
 160 400 l 1,23,-1
 135 430 l 1,24,25
 210 493 210 493 266.5 517 c 128,-1,26
 323 541 323 541 382 531 c 0,27,28
 435 521 435 521 465.5 487.5 c 128,-1,29
 496 454 496 454 487 401 c 1,30,-1
 448 400 l 1,16,-1
64 41 m 1,31,-1
 64 81 l 1,32,-1
 277 81 l 1,33,-1
 277 41 l 1,34,-1
 277 1 l 1,35,-1
 64 1 l 1,36,-1
 64 41 l 1,31,-1
EndSplineSet
EndChar

StartChar: s
Encoding: 115 115 85
Width: 499
Flags: W
LayerCount: 2
Fore
SplineSet
366 533 m 1,0,-1
 406 533 l 1,1,-1
 406 419 l 2,2,3
 406 402 406 402 393 390 c 128,-1,4
 380 378 380 378 363 379 c 0,5,6
 342 381 342 381 331 399 c 0,7,8
 311 434 311 434 276 447 c 0,9,10
 242 459 242 459 211.5 447 c 128,-1,11
 181 435 181 435 171 405 c 0,12,13
 163 385 163 385 194.5 362 c 128,-1,14
 226 339 226 339 289 304 c 128,-1,15
 352 269 352 269 388 239 c 0,16,17
 415 216 415 216 427.5 187 c 128,-1,18
 440 158 440 158 433 122 c 128,-1,19
 426 86 426 86 396 50 c 0,20,21
 394 47 394 47 392 45 c 0,22,23
 378 34 378 34 363 25 c 0,24,25
 284 -24 284 -24 192.5 -1.5 c 128,-1,26
 101 21 101 21 52 102 c 1,27,-1
 121 143 l 1,28,29
 152 91 152 91 211.5 76.5 c 128,-1,30
 271 62 271 62 321 93 c 0,31,32
 330 98 330 98 337 104 c 0,33,34
 354 125 354 125 357.5 138 c 128,-1,35
 361 151 361 151 356 158.5 c 128,-1,36
 351 166 351 166 334 180 c 0,37,38
 319 192 319 192 298.5 205 c 128,-1,39
 278 218 278 218 258.5 228.5 c 128,-1,40
 239 239 239 239 217.5 250 c 128,-1,41
 196 261 196 261 177.5 272.5 c 128,-1,42
 159 284 159 284 142 296.5 c 128,-1,43
 125 309 125 309 113 323.5 c 128,-1,44
 101 338 101 338 94 354 c 128,-1,45
 87 370 87 370 87 390 c 128,-1,46
 87 410 87 410 95 433 c 0,47,48
 119 497 119 497 180.5 520.5 c 128,-1,49
 242 544 242 544 304 522 c 0,50,51
 307 520 307 520 347 497 c 1,52,53
 347 497 347 497 348 499 c 128,-1,54
 349 501 349 501 351 504 c 128,-1,55
 353 507 353 507 355 511 c 128,-1,56
 357 515 357 515 359 519 c 128,-1,57
 361 523 361 523 362.5 526 c 128,-1,58
 364 529 364 529 365 531 c 2,59,-1
 366 533 l 1,0,-1
EndSplineSet
EndChar

StartChar: t
Encoding: 116 116 86
Width: 359
Flags: W
LayerCount: 2
Fore
SplineSet
273 45 m 1,0,-1
 273 -1 l 1,1,2
 251 -1 251 -1 225.5 5 c 128,-1,3
 200 11 200 11 174.5 22.5 c 128,-1,4
 149 34 149 34 132 55.5 c 128,-1,5
 115 77 115 77 115 104 c 2,6,-1
 115 618 l 1,7,-1
 155 618 l 1,8,-1
 195 618 l 1,9,-1
 195 104 l 2,10,11
 195 103 195 103 198 100.5 c 128,-1,12
 201 98 201 98 206.5 95 c 128,-1,13
 212 92 212 92 219.5 89.5 c 128,-1,14
 227 87 227 87 235 84.5 c 128,-1,15
 243 82 243 82 253.5 80.5 c 128,-1,16
 264 79 264 79 273 79 c 1,17,-1
 273 45 l 1,0,-1
36 494 m 1,18,-1
 36 534 l 1,19,-1
 290 534 l 1,20,-1
 290 494 l 1,21,-1
 290 454 l 1,22,-1
 36 454 l 1,23,-1
 36 494 l 1,18,-1
EndSplineSet
EndChar

StartChar: u
Encoding: 117 117 87
Width: 619
Flags: W
LayerCount: 2
Fore
SplineSet
564 39 m 5,0,-1
 564 -1 l 5,1,-1
 468 -1 l 6,2,3
 451 -1 451 -1 439.5 12 c 132,-1,4
 428 25 428 25 428 39 c 6,5,-1
 428 444 l 5,6,-1
 371 444 l 5,7,-1
 371 484 l 5,8,-1
 371 524 l 5,9,-1
 488 524 l 6,10,11
 490 524 490 524 494 524 c 132,-1,12
 498 524 498 524 499 524 c 132,-1,13
 500 524 500 524 502.5 523.5 c 132,-1,14
 505 523 505 523 505.5 522 c 132,-1,15
 506 521 506 521 506.5 518.5 c 132,-1,16
 507 516 507 516 507.5 512.5 c 132,-1,17
 508 509 508 509 508 504 c 6,18,-1
 508 79 l 5,19,-1
 564 79 l 5,20,-1
 564 39 l 5,0,-1
468 118 m 5,21,-1
 493 88 l 5,22,23
 436 39 436 39 372.5 13.5 c 132,-1,24
 309 -12 309 -12 252 -12 c 4,25,26
 190 -12 190 -12 146 22 c 132,-1,27
 102 56 102 56 102 118 c 6,28,-1
 102 444 l 5,29,-1
 45 444 l 5,30,-1
 45 484 l 5,31,-1
 45 524 l 5,32,-1
 162 524 l 6,33,34
 164 524 164 524 168 524 c 132,-1,35
 172 524 172 524 173 524 c 132,-1,36
 174 524 174 524 176.5 523.5 c 132,-1,37
 179 523 179 523 179.5 522 c 132,-1,38
 180 521 180 521 180.5 518.5 c 132,-1,39
 181 516 181 516 181.5 512.5 c 132,-1,40
 182 509 182 509 182 504 c 6,41,-1
 182 118 l 6,42,43
 182 68 182 68 252 68 c 4,44,45
 278 68 278 68 308.5 76.5 c 132,-1,46
 339 85 339 85 374.5 103.5 c 132,-1,47
 410 122 410 122 442 149 c 5,48,-1
 468 118 l 5,21,-1
EndSplineSet
EndChar

StartChar: v
Encoding: 118 118 88
Width: 619
Flags: W
LayerCount: 2
Fore
SplineSet
122 483 m 1,0,-1
 160 498 l 1,1,-1
 309 136 l 1,2,-1
 458 498 l 1,3,-1
 495 483 l 1,4,-1
 532 468 l 1,5,-1
 346 14 l 2,6,7
 340 -1 340 -1 326 -7 c 0,8,9
 311 -15 311 -15 294.5 -8.5 c 128,-1,10
 278 -2 278 -2 272 14 c 2,11,-1
 85 468 l 1,12,-1
 122 483 l 1,0,-1
26 483 m 1,13,-1
 26 523 l 1,14,-1
 219 523 l 1,15,-1
 219 483 l 1,16,-1
 219 443 l 1,17,-1
 26 443 l 1,18,-1
 26 483 l 1,13,-1
398 483 m 1,19,-1
 398 523 l 1,20,-1
 592 523 l 1,21,-1
 592 483 l 1,22,-1
 592 443 l 1,23,-1
 398 443 l 1,24,-1
 398 483 l 1,19,-1
EndSplineSet
EndChar

StartChar: w
Encoding: 119 119 89
Width: 941
Flags: W
LayerCount: 2
Fore
SplineSet
113 482 m 1,0,-1
 150 497 l 1,1,-1
 279 134 l 1,2,-1
 427 452 l 1,3,-1
 500 452 l 1,4,-1
 500 419 l 1,5,-1
 314 15 l 2,6,7
 308 2 308 2 295 -5 c 0,8,9
 280 -12 280 -12 263.5 -6 c 128,-1,10
 247 0 247 0 240 16 c 2,11,-1
 76 467 l 1,12,-1
 113 482 l 1,0,-1
464 435 m 1,13,-1
 500 452 l 1,14,-1
 648 134 l 1,15,-1
 778 497 l 1,16,-1
 815 482 l 1,17,-1
 852 467 l 1,18,-1
 687 16 l 2,19,20
 682 3 682 3 669 -4 c 0,21,22
 654 -12 654 -12 637 -6.5 c 128,-1,23
 620 -1 620 -1 613 15 c 2,24,-1
 427 419 l 1,25,-1
 464 435 l 1,13,-1
24 482 m 1,26,-1
 24 522 l 1,27,-1
 218 522 l 1,28,-1
 218 482 l 1,29,-1
 218 442 l 1,30,-1
 24 442 l 1,31,-1
 24 482 l 1,26,-1
711 482 m 1,32,-1
 711 522 l 1,33,-1
 904 522 l 1,34,-1
 904 482 l 1,35,-1
 904 442 l 1,36,-1
 711 442 l 1,37,-1
 711 482 l 1,32,-1
EndSplineSet
EndChar

StartChar: x
Encoding: 120 120 90
Width: 659
Flags: W
LayerCount: 2
Fore
SplineSet
153 485 m 1,0,-1
 184 510 l 1,1,-1
 545 66 l 1,2,-1
 513 41 l 1,3,-1
 482 16 l 1,4,-1
 122 460 l 1,5,-1
 153 485 l 1,0,-1
501 485 m 1,6,-1
 533 460 l 1,7,-1
 346 227 l 1,8,-1
 315 252 l 1,9,-1
 284 277 l 1,10,-1
 470 510 l 1,11,-1
 501 485 l 1,6,-1
315 252 m 1,12,-1
 346 227 l 1,13,-1
 172 16 l 1,14,-1
 141 41 l 1,15,-1
 110 66 l 1,16,-1
 284 277 l 1,17,-1
 315 252 l 1,12,-1
66 485 m 1,18,-1
 66 525 l 1,19,-1
 259 525 l 1,20,-1
 259 485 l 1,21,-1
 259 445 l 1,22,-1
 66 445 l 1,23,-1
 66 485 l 1,18,-1
417 41 m 1,24,-1
 417 81 l 1,25,-1
 610 81 l 1,26,-1
 610 41 l 1,27,-1
 610 1 l 1,28,-1
 417 1 l 1,29,-1
 417 41 l 1,24,-1
395 485 m 1,30,-1
 395 525 l 1,31,-1
 588 525 l 1,32,-1
 588 485 l 1,33,-1
 588 445 l 1,34,-1
 395 445 l 1,35,-1
 395 485 l 1,30,-1
44 41 m 1,36,-1
 44 81 l 1,37,-1
 237 81 l 1,38,-1
 237 41 l 1,39,-1
 237 1 l 1,40,-1
 44 1 l 1,41,-1
 44 41 l 1,36,-1
EndSplineSet
EndChar

StartChar: y
Encoding: 121 121 91
Width: 640
Flags: W
LayerCount: 2
Fore
SplineSet
426 483 m 1,0,-1
 426 523 l 1,1,-1
 557 523 l 1,2,-1
 557 483 l 1,3,-1
 557 443 l 1,4,-1
 426 443 l 1,5,-1
 426 483 l 1,0,-1
522 131 m 1,6,-1
 547 101 l 1,7,8
 521 79 521 79 493 60.5 c 128,-1,9
 465 42 465 42 437.5 28.5 c 128,-1,10
 410 15 410 15 382 6 c 128,-1,11
 354 -3 354 -3 327.5 -7.5 c 128,-1,12
 301 -12 301 -12 275 -12 c 0,13,14
 206 -12 206 -12 157.5 25.5 c 128,-1,15
 109 63 109 63 109 131 c 2,16,-1
 109 443 l 1,17,-1
 53 443 l 1,18,-1
 53 483 l 1,19,-1
 53 523 l 1,20,-1
 169 523 l 2,21,22
 172 523 172 523 175.5 523 c 128,-1,23
 179 523 179 523 180.5 523 c 128,-1,24
 182 523 182 523 184 522.5 c 128,-1,25
 186 522 186 522 186.5 521 c 128,-1,26
 187 520 187 520 188 517.5 c 128,-1,27
 189 515 189 515 189 511.5 c 128,-1,28
 189 508 189 508 189 503 c 2,29,-1
 189 131 l 2,30,31
 189 68 189 68 275 68 c 0,32,33
 323 68 323 68 382 92 c 128,-1,34
 441 116 441 116 496 162 c 1,35,-1
 522 131 l 1,6,-1
522 523 m 1,36,-1
 562 523 l 1,37,-1
 562 -36 l 2,38,39
 562 -99 562 -99 522 -146 c 0,40,41
 481 -196 481 -196 413 -212.5 c 128,-1,42
 345 -229 345 -229 267.5 -208.5 c 128,-1,43
 190 -188 190 -188 123 -132 c 1,44,-1
 149 -102 l 1,45,-1
 175 -71 l 1,46,47
 228 -116 228 -116 288.5 -130.5 c 128,-1,48
 349 -145 349 -145 393.5 -134 c 128,-1,49
 438 -123 438 -123 461 -95 c 0,50,51
 482 -70 482 -70 482 -36 c 2,52,-1
 482 523 l 1,53,-1
 522 523 l 1,36,-1
EndSplineSet
EndChar

StartChar: z
Encoding: 122 122 92
Width: 595
Flags: W
LayerCount: 2
Fore
SplineSet
129 387 m 1,0,-1
 89 387 l 1,1,-1
 89 503 l 2,2,3
 89 509 89 509 89.5 513 c 128,-1,4
 90 517 90 517 90 519 c 128,-1,5
 90 521 90 521 92.5 522 c 128,-1,6
 95 523 95 523 96 523.5 c 128,-1,7
 97 524 97 524 102 523.5 c 128,-1,8
 107 523 107 523 109 523 c 2,9,-1
 488 523 l 2,10,11
 496 523 496 523 501 520 c 128,-1,12
 506 517 506 517 507.5 510 c 128,-1,13
 509 503 509 503 509 497 c 128,-1,14
 509 491 509 491 508 480 c 0,15,16
 507 468 507 468 499 458 c 2,17,-1
 194 82 l 1,18,-1
 443 82 l 1,19,-1
 443 129 l 1,20,-1
 483 129 l 1,21,-1
 523 129 l 1,22,-1
 523 22 l 2,23,24
 523 21 523 21 523 18 c 0,25,26
 523 8 523 8 520 5 c 128,-1,27
 517 2 517 2 501 2 c 2,28,-1
 90 2 l 2,29,30
 78 2 78 2 68 9 c 0,31,32
 45 25 45 25 79 67 c 2,33,-1
 385 443 l 1,34,-1
 169 443 l 1,35,-1
 169 387 l 1,36,-1
 129 387 l 1,0,-1
EndSplineSet
EndChar

StartChar: braceleft
Encoding: 123 123 93
Width: 341
Flags: W
LayerCount: 2
Fore
SplineSet
95 372 m 1,0,-1
 95 406 l 1,1,2
 124 406 124 406 131.5 416.5 c 128,-1,3
 139 427 139 427 138 462 c 0,4,5
 138 476 138 476 132.5 511.5 c 128,-1,6
 127 547 127 547 121.5 581 c 128,-1,7
 116 615 116 615 116.5 655.5 c 128,-1,8
 117 696 117 696 127 725.5 c 128,-1,9
 137 755 137 755 165.5 775.5 c 128,-1,10
 194 796 194 796 241 796 c 1,11,-1
 241 752 l 1,12,-1
 241 716 l 1,13,14
 217 716 217 716 207 705.5 c 128,-1,15
 197 695 197 695 197.5 671 c 128,-1,16
 198 647 198 647 202.5 620.5 c 128,-1,17
 207 594 207 594 212.5 548.5 c 128,-1,18
 218 503 218 503 218 462 c 0,19,20
 219 436 219 436 212.5 413.5 c 128,-1,21
 206 391 206 391 192.5 370.5 c 128,-1,22
 179 350 179 350 154 338 c 128,-1,23
 129 326 129 326 95 326 c 1,24,-1
 95 372 l 1,0,-1
241 -17 m 1,25,-1
 241 -63 l 1,26,27
 207 -63 207 -63 182 -51 c 128,-1,28
 157 -39 157 -39 143.5 -19 c 128,-1,29
 130 1 130 1 123.5 24 c 128,-1,30
 117 47 117 47 117 73 c 0,31,32
 118 114 118 114 123.5 159 c 128,-1,33
 129 204 129 204 133.5 231 c 128,-1,34
 138 258 138 258 138.5 282 c 128,-1,35
 139 306 139 306 129 316 c 128,-1,36
 119 326 119 326 95 326 c 1,37,-1
 95 363 l 1,38,-1
 95 406 l 1,39,40
 142 406 142 406 170.5 386 c 128,-1,41
 199 366 199 366 209 336 c 128,-1,42
 219 306 219 306 219.5 266 c 128,-1,43
 220 226 220 226 214.5 191.5 c 128,-1,44
 209 157 209 157 203.5 121.5 c 128,-1,45
 198 86 198 86 197 73 c 0,46,47
 197 37 197 37 204.5 27 c 128,-1,48
 212 17 212 17 241 17 c 1,49,-1
 241 -17 l 1,25,-1
EndSplineSet
EndChar

StartChar: braceright
Encoding: 125 125 94
Width: 410
Flags: W
LayerCount: 2
Fore
SplineSet
273 372 m 1,0,-1
 273 406 l 1,1,2
 244 406 244 406 236.5 416.5 c 128,-1,3
 229 427 229 427 229 462 c 0,4,5
 230 475 230 475 234.5 503 c 128,-1,6
 239 531 239 531 243.5 560 c 128,-1,7
 248 589 248 589 251 623.5 c 128,-1,8
 254 658 254 658 249.5 687.5 c 128,-1,9
 245 717 245 717 233 742 c 128,-1,10
 221 767 221 767 194 781.5 c 128,-1,11
 167 796 167 796 127 796 c 1,12,-1
 127 752 l 1,13,-1
 127 716 l 1,14,15
 151 716 151 716 161 705.5 c 128,-1,16
 171 695 171 695 170.5 671 c 128,-1,17
 170 647 170 647 165.5 620.5 c 128,-1,18
 161 594 161 594 155.5 548.5 c 128,-1,19
 150 503 150 503 149 462 c 0,20,21
 149 436 149 436 155.5 413.5 c 128,-1,22
 162 391 162 391 175.5 370.5 c 128,-1,23
 189 350 189 350 214 338 c 128,-1,24
 239 326 239 326 273 326 c 1,25,-1
 273 372 l 1,0,-1
127 -17 m 1,26,-1
 127 -63 l 1,27,28
 161 -63 161 -63 186 -51 c 128,-1,29
 211 -39 211 -39 224.5 -19 c 128,-1,30
 238 1 238 1 244.5 24 c 128,-1,31
 251 47 251 47 250 73 c 0,32,33
 250 114 250 114 244.5 159 c 128,-1,34
 239 204 239 204 234.5 231 c 128,-1,35
 230 258 230 258 229.5 282 c 128,-1,36
 229 306 229 306 239 316 c 128,-1,37
 249 326 249 326 273 326 c 1,38,-1
 273 363 l 1,39,-1
 273 406 l 1,40,41
 226 406 226 406 197.5 386 c 128,-1,42
 169 366 169 366 159 336 c 128,-1,43
 149 306 149 306 148.5 266 c 128,-1,44
 148 226 148 226 153.5 191.5 c 128,-1,45
 159 157 159 157 164.5 121.5 c 128,-1,46
 170 86 170 86 170 73 c 0,47,48
 171 48 171 48 168 37 c 128,-1,49
 165 26 165 26 156 21.5 c 128,-1,50
 147 17 147 17 127 17 c 1,51,-1
 127 -17 l 1,26,-1
EndSplineSet
EndChar

StartChar: cent
Encoding: 162 162 95
Width: 828
Flags: W
LayerCount: 2
Fore
SplineSet
701 748 m 5,0,-1
 741 748 l 5,1,-1
 741 604 l 6,2,3
 741 593 741 593 735 583.5 c 132,-1,4
 729 574 729 574 719 569 c 132,-1,5
 709 564 709 564 698 565 c 4,6,7
 681 566 681 566 670 579 c 4,8,9
 655 597 655 597 638 611 c 4,10,11
 601 643 601 643 567 655.5 c 4,12,13
 504 678 504 678 487 679.5 c 4,14,15
 446 682 446 682 406.5 679 c 132,-1,16
 367 676 367 676 330.5 649 c 132,-1,17
 294 622 294 622 266 589 c 4,18,19
 215 527 215 527 203 460.5 c 4,20,21
 190 383 190 383 206 323 c 4,22,23
 221 268 221 268 261 208 c 4,24,25
 288 168 288 168 322.5 138 c 132,-1,26
 357 108 357 108 399 89.5 c 132,-1,27
 441 71 441 71 485.5 67 c 132,-1,28
 530 63 530 63 580 77.5 c 132,-1,29
 630 92 630 92 678 125 c 5,30,-1
 701 92 l 5,31,-1
 724 59 l 5,32,33
 649 8 649 8 570 -7 c 132,-1,34
 491 -22 491 -22 422.5 -3 c 132,-1,35
 354 16 354 16 295.5 58.5 c 132,-1,36
 237 101 237 101 195 162 c 4,37,38
 160 213 160 213 140.5 269.5 c 132,-1,39
 121 326 121 326 117.5 392 c 132,-1,40
 114 458 114 458 136 521 c 132,-1,41
 158 584 158 584 205 640 c 4,42,43
 262 708 262 708 342 737 c 4,44,45
 416 763 416 763 506 749.5 c 4,46,47
 604 735 604 735 661 694 c 5,48,-1
 661 748 l 5,49,-1
 701 748 l 5,0,-1
49 433 m 1,50,-1
 49 473 l 1,51,-1
 421 473 l 1,52,-1
 421 433 l 1,53,-1
 421 393 l 1,54,-1
 49 393 l 1,55,-1
 49 433 l 1,50,-1
49 310 m 1,56,-1
 49 350 l 1,57,-1
 421 350 l 1,58,-1
 421 310 l 1,59,-1
 421 270 l 1,60,-1
 49 270 l 1,61,-1
 49 310 l 1,56,-1
EndSplineSet
EndChar

StartChar: yen
Encoding: 165 165 96
Width: 947
Flags: W
LayerCount: 2
Fore
SplineSet
148 693 m 1,0,-1
 181 716 l 1,1,-1
 414 390 l 2,2,3
 421 380 421 380 421 367 c 2,4,-1
 421 41 l 1,5,-1
 381 41 l 1,6,-1
 341 41 l 1,7,-1
 341 354 l 1,8,-1
 116 670 l 1,9,-1
 148 693 l 1,0,-1
614 693 m 1,10,-1
 647 670 l 1,11,-1
 414 344 l 1,12,-1
 381 367 l 1,13,-1
 349 390 l 1,14,-1
 582 716 l 1,15,-1
 614 693 l 1,10,-1
242 214 m 1,16,-1
 242 254 l 1,17,-1
 521 254 l 1,18,-1
 521 214 l 1,19,-1
 521 174 l 1,20,-1
 242 174 l 1,21,-1
 242 214 l 1,16,-1
242 327 m 1,22,-1
 242 367 l 1,23,-1
 521 367 l 1,24,-1
 521 327 l 1,25,-1
 521 287 l 1,26,-1
 242 287 l 1,27,-1
 242 327 l 1,22,-1
62 693 m 1,28,-1
 62 733 l 1,29,-1
 255 733 l 1,30,-1
 255 693 l 1,31,-1
 255 653 l 1,32,-1
 62 653 l 1,33,-1
 62 693 l 1,28,-1
508 693 m 1,34,-1
 508 733 l 1,35,-1
 701 733 l 1,36,-1
 701 693 l 1,37,-1
 701 653 l 1,38,-1
 508 653 l 1,39,-1
 508 693 l 1,34,-1
285 41 m 1,40,-1
 285 81 l 1,41,-1
 478 81 l 1,42,-1
 478 41 l 1,43,-1
 478 1 l 1,44,-1
 285 1 l 1,45,-1
 285 41 l 1,40,-1
EndSplineSet
EndChar

StartChar: dieresis
Encoding: 168 168 97
Width: 468
Flags: W
LayerCount: 2
Fore
SplineSet
133 760 m 5,0,-1
 93 760 l 5,1,-1
 93 843 l 5,2,-1
 133 843 l 5,3,-1
 173 843 l 5,4,-1
 173 760 l 5,5,-1
 133 760 l 5,0,-1
327 760 m 5,6,-1
 287 760 l 5,7,-1
 287 843 l 5,8,-1
 327 843 l 5,9,-1
 367 843 l 5,10,-1
 367 760 l 5,11,-1
 327 760 l 5,6,-1
EndSplineSet
EndChar

StartChar: guillemotleft
Encoding: 171 171 98
Width: 474
Flags: W
LayerCount: 2
Fore
SplineSet
397 134 m 5,0,-1
 364 112 l 5,1,-1
 267 258 l 6,2,3
 252 280 252 280 267 302 c 6,4,-1
 364 448 l 5,5,-1
 397 426 l 5,6,-1
 431 404 l 5,7,-1
 348 280 l 5,8,-1
 431 156 l 5,9,-1
 397 134 l 5,0,-1
184 134 m 5,10,-1
 151 112 l 5,11,-1
 54 258 l 6,12,13
 39 280 39 280 54 302 c 6,14,-1
 151 448 l 5,15,-1
 184 426 l 5,16,-1
 218 404 l 5,17,-1
 135 280 l 5,18,-1
 218 156 l 5,19,-1
 184 134 l 5,10,-1
EndSplineSet
EndChar

StartChar: uni00AD
Encoding: 173 173 99
Width: 1452
Flags: W
LayerCount: 2
Fore
SplineSet
622 316 m 1,0,-1
 622 276 l 1,1,-1
 233 276 l 1,2,-1
 233 316 l 1,3,-1
 233 356 l 1,4,-1
 622 356 l 1,5,-1
 622 316 l 1,0,-1
EndSplineSet
EndChar

StartChar: macron
Encoding: 175 175 100
Width: 1536
Flags: W
LayerCount: 2
Fore
SplineSet
752 342 m 1,0,-1
 752 302 l 1,1,-1
 265 302 l 1,2,-1
 265 342 l 1,3,-1
 265 382 l 1,4,-1
 752 382 l 1,5,-1
 752 342 l 1,0,-1
EndSplineSet
EndChar

StartChar: acute
Encoding: 180 180 101
Width: 1469
Flags: W
LayerCount: 2
Fore
SplineSet
-50 719 m 5,0,-1
 -63 757 l 5,1,-1
 229 855 l 5,2,-1
 242 817 l 5,3,-1
 255 779 l 5,4,-1
 -37 681 l 5,5,-1
 -50 719 l 5,0,-1
EndSplineSet
EndChar

StartChar: guillemotright
Encoding: 187 187 102
Width: 460
Flags: W
LayerCount: 2
Fore
SplineSet
70 426 m 1,0,-1
 103 448 l 1,1,-1
 201 302 l 2,2,3
 215 280 215 280 201 258 c 2,4,-1
 103 112 l 1,5,-1
 70 134 l 1,6,-1
 37 156 l 1,7,-1
 119 280 l 1,8,-1
 37 404 l 1,9,-1
 70 426 l 1,0,-1
283 426 m 1,10,-1
 316 448 l 1,11,-1
 414 302 l 2,12,13
 428 280 428 280 414 258 c 2,14,-1
 316 112 l 1,15,-1
 283 134 l 1,16,-1
 250 156 l 1,17,-1
 332 280 l 1,18,-1
 250 404 l 1,19,-1
 283 426 l 1,10,-1
EndSplineSet
EndChar

StartChar: Agrave
Encoding: 192 192 103
Width: 858
Flags: W
LayerCount: 2
Fore
SplineSet
273 926 m 5,0,-1
 286 964 l 5,1,-1
 578 867 l 5,2,-1
 565 829 l 5,3,-1
 553 791 l 5,4,-1
 261 888 l 5,5,-1
 273 926 l 5,0,-1
152 40 m 1,6,-1
 115 55 l 1,7,-1
 395 708 l 2,8,9
 399 718 399 718 408.5 724.5 c 128,-1,10
 418 731 418 731 429 731.5 c 128,-1,11
 440 732 440 732 450 727 c 0,12,13
 463 721 463 721 468 708 c 2,14,-1
 748 55 l 1,15,-1
 711 40 l 1,16,-1
 674 24 l 1,17,-1
 432 590 l 1,18,-1
 189 24 l 1,19,-1
 152 40 l 1,6,-1
245 226 m 1,20,-1
 245 266 l 1,21,-1
 618 266 l 1,22,-1
 618 226 l 1,23,-1
 618 186 l 1,24,-1
 245 186 l 1,25,-1
 245 226 l 1,20,-1
56 40 m 1,26,-1
 56 80 l 1,27,-1
 249 80 l 1,28,-1
 249 40 l 1,29,-1
 249 0 l 1,30,-1
 56 0 l 1,31,-1
 56 40 l 1,26,-1
615 40 m 1,32,-1
 615 80 l 1,33,-1
 808 80 l 1,34,-1
 808 40 l 1,35,-1
 808 0 l 1,36,-1
 615 0 l 1,37,-1
 615 40 l 1,32,-1
289 692 m 1,38,-1
 289 732 l 1,39,-1
 432 732 l 1,40,-1
 432 692 l 1,41,-1
 432 652 l 1,42,-1
 289 652 l 1,43,-1
 289 692 l 1,38,-1
EndSplineSet
EndChar

StartChar: Aacute
Encoding: 193 193 104
Width: 858
Flags: W
LayerCount: 2
Fore
SplineSet
272 826 m 5,0,-1
 259 864 l 5,1,-1
 551 962 l 5,2,-1
 564 924 l 5,3,-1
 577 886 l 5,4,-1
 285 788 l 5,5,-1
 272 826 l 5,0,-1
152 40 m 1,6,-1
 115 55 l 1,7,-1
 395 708 l 2,8,9
 399 718 399 718 408.5 724.5 c 128,-1,10
 418 731 418 731 429 731.5 c 128,-1,11
 440 732 440 732 450 727 c 0,12,13
 463 721 463 721 468 708 c 2,14,-1
 748 55 l 1,15,-1
 711 40 l 1,16,-1
 674 24 l 1,17,-1
 432 590 l 1,18,-1
 189 24 l 1,19,-1
 152 40 l 1,6,-1
245 226 m 1,20,-1
 245 266 l 1,21,-1
 618 266 l 1,22,-1
 618 226 l 1,23,-1
 618 186 l 1,24,-1
 245 186 l 1,25,-1
 245 226 l 1,20,-1
56 40 m 1,26,-1
 56 80 l 1,27,-1
 249 80 l 1,28,-1
 249 40 l 1,29,-1
 249 0 l 1,30,-1
 56 0 l 1,31,-1
 56 40 l 1,26,-1
615 40 m 1,32,-1
 615 80 l 1,33,-1
 808 80 l 1,34,-1
 808 40 l 1,35,-1
 808 0 l 1,36,-1
 615 0 l 1,37,-1
 615 40 l 1,32,-1
289 692 m 1,38,-1
 289 732 l 1,39,-1
 432 732 l 1,40,-1
 432 692 l 1,41,-1
 432 652 l 1,42,-1
 289 652 l 1,43,-1
 289 692 l 1,38,-1
EndSplineSet
EndChar

StartChar: Acircumflex
Encoding: 194 194 105
Width: 858
Flags: W
LayerCount: 2
Fore
SplineSet
288 819 m 5,0,-1
 266 852 l 5,1,-1
 412 949 l 6,2,3
 434 964 434 964 456 949 c 6,4,-1
 602 852 l 5,5,-1
 580 819 l 5,6,-1
 558 785 l 5,7,-1
 434 868 l 5,8,-1
 310 785 l 5,9,-1
 288 819 l 5,0,-1
152 40 m 1,10,-1
 115 55 l 1,11,-1
 395 708 l 2,12,13
 399 718 399 718 408.5 724.5 c 128,-1,14
 418 731 418 731 429 731.5 c 128,-1,15
 440 732 440 732 450 727 c 0,16,17
 463 721 463 721 468 708 c 2,18,-1
 748 55 l 1,19,-1
 711 40 l 1,20,-1
 674 24 l 1,21,-1
 432 590 l 1,22,-1
 189 24 l 1,23,-1
 152 40 l 1,10,-1
245 226 m 1,24,-1
 245 266 l 1,25,-1
 618 266 l 1,26,-1
 618 226 l 1,27,-1
 618 186 l 1,28,-1
 245 186 l 1,29,-1
 245 226 l 1,24,-1
56 40 m 1,30,-1
 56 80 l 1,31,-1
 249 80 l 1,32,-1
 249 40 l 1,33,-1
 249 0 l 1,34,-1
 56 0 l 1,35,-1
 56 40 l 1,30,-1
615 40 m 1,36,-1
 615 80 l 1,37,-1
 808 80 l 1,38,-1
 808 40 l 1,39,-1
 808 0 l 1,40,-1
 615 0 l 1,41,-1
 615 40 l 1,36,-1
289 692 m 1,42,-1
 289 732 l 1,43,-1
 432 732 l 1,44,-1
 432 692 l 1,45,-1
 432 652 l 1,46,-1
 289 652 l 1,47,-1
 289 692 l 1,42,-1
EndSplineSet
EndChar

StartChar: Adieresis
Encoding: 196 196 106
Width: 858
Flags: W
LayerCount: 2
Fore
SplineSet
334 795 m 5,0,-1
 294 795 l 5,1,-1
 294 878 l 5,2,-1
 334 878 l 5,3,-1
 374 878 l 5,4,-1
 374 795 l 5,5,-1
 334 795 l 5,0,-1
528 795 m 5,6,-1
 488 795 l 5,7,-1
 488 878 l 5,8,-1
 528 878 l 5,9,-1
 568 878 l 5,10,-1
 568 795 l 5,11,-1
 528 795 l 5,6,-1
152 40 m 1,12,-1
 115 55 l 1,13,-1
 395 708 l 2,14,15
 399 718 399 718 408.5 724.5 c 128,-1,16
 418 731 418 731 429 731.5 c 128,-1,17
 440 732 440 732 450 727 c 0,18,19
 463 721 463 721 468 708 c 2,20,-1
 748 55 l 1,21,-1
 711 40 l 1,22,-1
 674 24 l 1,23,-1
 432 590 l 1,24,-1
 189 24 l 1,25,-1
 152 40 l 1,12,-1
245 226 m 1,26,-1
 245 266 l 1,27,-1
 618 266 l 1,28,-1
 618 226 l 1,29,-1
 618 186 l 1,30,-1
 245 186 l 1,31,-1
 245 226 l 1,26,-1
56 40 m 1,32,-1
 56 80 l 1,33,-1
 249 80 l 1,34,-1
 249 40 l 1,35,-1
 249 0 l 1,36,-1
 56 0 l 1,37,-1
 56 40 l 1,32,-1
615 40 m 1,38,-1
 615 80 l 1,39,-1
 808 80 l 1,40,-1
 808 40 l 1,41,-1
 808 0 l 1,42,-1
 615 0 l 1,43,-1
 615 40 l 1,38,-1
289 692 m 1,44,-1
 289 732 l 1,45,-1
 432 732 l 1,46,-1
 432 692 l 1,47,-1
 432 652 l 1,48,-1
 289 652 l 1,49,-1
 289 692 l 1,44,-1
EndSplineSet
EndChar

StartChar: Ccedilla
Encoding: 199 199 107
Width: 755
Flags: W
LayerCount: 2
Fore
SplineSet
385 -233 m 5,0,-1
 348 -218 l 5,1,2
 394 -109 394 -109 394 10 c 5,3,-1
 434 10 l 5,4,-1
 474 10 l 5,5,6
 474 -124 474 -124 422 -249 c 5,7,-1
 385 -233 l 5,0,-1
636 748 m 1,8,-1
 676 748 l 1,9,-1
 676 604 l 2,10,11
 676 593 676 593 670 583.5 c 128,-1,12
 664 574 664 574 654 569 c 128,-1,13
 644 564 644 564 633 565 c 0,14,15
 616 566 616 566 605 579 c 0,16,17
 590 597 590 597 573 611 c 0,18,19
 536 643 536 643 502 655.5 c 0,20,21
 439 678 439 678 422 679.5 c 0,22,23
 381 682 381 682 341.5 679 c 128,-1,24
 302 676 302 676 265.5 649 c 128,-1,25
 229 622 229 622 201 589 c 0,26,27
 150 527 150 527 138 460.5 c 0,28,29
 125 383 125 383 141 323 c 0,30,31
 156 268 156 268 196 208 c 0,32,33
 223 168 223 168 257.5 138 c 128,-1,34
 292 108 292 108 334 89.5 c 128,-1,35
 376 71 376 71 420.5 67 c 128,-1,36
 465 63 465 63 515 77.5 c 128,-1,37
 565 92 565 92 613 125 c 1,38,-1
 636 92 l 1,39,-1
 659 59 l 1,40,41
 584 8 584 8 505 -7 c 128,-1,42
 426 -22 426 -22 357.5 -3 c 128,-1,43
 289 16 289 16 230.5 58.5 c 128,-1,44
 172 101 172 101 130 162 c 0,45,46
 95 213 95 213 75.5 269.5 c 128,-1,47
 56 326 56 326 52.5 392 c 128,-1,48
 49 458 49 458 71 521 c 128,-1,49
 93 584 93 584 140 640 c 0,50,51
 197 708 197 708 277 737 c 0,52,53
 351 763 351 763 441 749.5 c 0,54,55
 539 735 539 735 596 694 c 1,56,-1
 596 748 l 1,57,-1
 636 748 l 1,8,-1
EndSplineSet
EndChar

StartChar: Egrave
Encoding: 200 200 108
Width: 700
Flags: W
LayerCount: 2
Fore
SplineSet
184 926 m 5,0,-1
 197 964 l 5,1,-1
 489 867 l 5,2,-1
 476 829 l 5,3,-1
 464 791 l 5,4,-1
 172 888 l 5,5,-1
 184 926 l 5,0,-1
173 40 m 1,6,-1
 133 40 l 1,7,-1
 133 692 l 2,8,9
 133 709 133 709 146 720.5 c 128,-1,10
 159 732 159 732 173 732 c 2,11,-1
 545 732 l 1,12,-1
 545 652 l 1,13,-1
 213 652 l 1,14,-1
 213 40 l 1,15,-1
 173 40 l 1,6,-1
173 385 m 1,16,-1
 173 425 l 1,17,-1
 499 425 l 1,18,-1
 499 385 l 1,19,-1
 499 345 l 1,20,-1
 173 345 l 1,21,-1
 173 385 l 1,16,-1
173 40 m 1,22,-1
 173 80 l 1,23,-1
 592 80 l 1,24,-1
 592 0 l 1,25,-1
 173 0 l 1,26,-1
 173 40 l 1,22,-1
76 40 m 1,27,-1
 76 80 l 1,28,-1
 173 80 l 1,29,-1
 173 40 l 1,30,-1
 173 0 l 1,31,-1
 76 0 l 1,32,-1
 76 40 l 1,27,-1
76 692 m 1,33,-1
 76 732 l 1,34,-1
 173 732 l 1,35,-1
 173 692 l 1,36,-1
 173 652 l 1,37,-1
 76 652 l 1,38,-1
 76 692 l 1,33,-1
545 595 m 1,39,-1
 505 595 l 1,40,-1
 505 732 l 1,41,-1
 545 732 l 1,42,-1
 585 732 l 1,43,-1
 585 595 l 1,44,-1
 545 595 l 1,39,-1
592 137 m 1,45,-1
 632 137 l 1,46,-1
 632 0 l 1,47,-1
 592 0 l 1,48,-1
 552 0 l 1,49,-1
 552 137 l 1,50,-1
 592 137 l 1,45,-1
499 481 m 1,51,-1
 539 481 l 1,52,-1
 539 288 l 1,53,-1
 499 288 l 1,54,-1
 459 288 l 1,55,-1
 459 481 l 1,56,-1
 499 481 l 1,51,-1
EndSplineSet
EndChar

StartChar: Eacute
Encoding: 201 201 109
Width: 700
Flags: W
LayerCount: 2
Fore
SplineSet
189 826 m 5,0,-1
 176 864 l 5,1,-1
 468 962 l 5,2,-1
 481 924 l 5,3,-1
 494 886 l 5,4,-1
 202 788 l 5,5,-1
 189 826 l 5,0,-1
173 40 m 1,6,-1
 133 40 l 1,7,-1
 133 692 l 2,8,9
 133 709 133 709 146 720.5 c 128,-1,10
 159 732 159 732 173 732 c 2,11,-1
 545 732 l 1,12,-1
 545 652 l 1,13,-1
 213 652 l 1,14,-1
 213 40 l 1,15,-1
 173 40 l 1,6,-1
173 385 m 1,16,-1
 173 425 l 1,17,-1
 499 425 l 1,18,-1
 499 385 l 1,19,-1
 499 345 l 1,20,-1
 173 345 l 1,21,-1
 173 385 l 1,16,-1
173 40 m 1,22,-1
 173 80 l 1,23,-1
 592 80 l 1,24,-1
 592 0 l 1,25,-1
 173 0 l 1,26,-1
 173 40 l 1,22,-1
76 40 m 1,27,-1
 76 80 l 1,28,-1
 173 80 l 1,29,-1
 173 40 l 1,30,-1
 173 0 l 1,31,-1
 76 0 l 1,32,-1
 76 40 l 1,27,-1
76 692 m 1,33,-1
 76 732 l 1,34,-1
 173 732 l 1,35,-1
 173 692 l 1,36,-1
 173 652 l 1,37,-1
 76 652 l 1,38,-1
 76 692 l 1,33,-1
545 595 m 1,39,-1
 505 595 l 1,40,-1
 505 732 l 1,41,-1
 545 732 l 1,42,-1
 585 732 l 1,43,-1
 585 595 l 1,44,-1
 545 595 l 1,39,-1
592 137 m 1,45,-1
 632 137 l 1,46,-1
 632 0 l 1,47,-1
 592 0 l 1,48,-1
 552 0 l 1,49,-1
 552 137 l 1,50,-1
 592 137 l 1,45,-1
499 481 m 1,51,-1
 539 481 l 1,52,-1
 539 288 l 1,53,-1
 499 288 l 1,54,-1
 459 288 l 1,55,-1
 459 481 l 1,56,-1
 499 481 l 1,51,-1
EndSplineSet
EndChar

StartChar: Ecircumflex
Encoding: 202 202 110
Width: 700
Flags: W
LayerCount: 2
Fore
SplineSet
195 819 m 5,0,-1
 173 852 l 5,1,-1
 319 949 l 6,2,3
 341 964 341 964 363 949 c 6,4,-1
 509 852 l 5,5,-1
 487 819 l 5,6,-1
 465 785 l 5,7,-1
 341 868 l 5,8,-1
 217 785 l 5,9,-1
 195 819 l 5,0,-1
173 40 m 1,10,-1
 133 40 l 1,11,-1
 133 692 l 2,12,13
 133 709 133 709 146 720.5 c 128,-1,14
 159 732 159 732 173 732 c 2,15,-1
 545 732 l 1,16,-1
 545 652 l 1,17,-1
 213 652 l 1,18,-1
 213 40 l 1,19,-1
 173 40 l 1,10,-1
173 385 m 1,20,-1
 173 425 l 1,21,-1
 499 425 l 1,22,-1
 499 385 l 1,23,-1
 499 345 l 1,24,-1
 173 345 l 1,25,-1
 173 385 l 1,20,-1
173 40 m 1,26,-1
 173 80 l 1,27,-1
 592 80 l 1,28,-1
 592 0 l 1,29,-1
 173 0 l 1,30,-1
 173 40 l 1,26,-1
76 40 m 1,31,-1
 76 80 l 1,32,-1
 173 80 l 1,33,-1
 173 40 l 1,34,-1
 173 0 l 1,35,-1
 76 0 l 1,36,-1
 76 40 l 1,31,-1
76 692 m 1,37,-1
 76 732 l 1,38,-1
 173 732 l 1,39,-1
 173 692 l 1,40,-1
 173 652 l 1,41,-1
 76 652 l 1,42,-1
 76 692 l 1,37,-1
545 595 m 1,43,-1
 505 595 l 1,44,-1
 505 732 l 1,45,-1
 545 732 l 1,46,-1
 585 732 l 1,47,-1
 585 595 l 1,48,-1
 545 595 l 1,43,-1
592 137 m 1,49,-1
 632 137 l 1,50,-1
 632 0 l 1,51,-1
 592 0 l 1,52,-1
 552 0 l 1,53,-1
 552 137 l 1,54,-1
 592 137 l 1,49,-1
499 481 m 1,55,-1
 539 481 l 1,56,-1
 539 288 l 1,57,-1
 499 288 l 1,58,-1
 459 288 l 1,59,-1
 459 481 l 1,60,-1
 499 481 l 1,55,-1
EndSplineSet
EndChar

StartChar: Edieresis
Encoding: 203 203 111
Width: 700
Flags: W
LayerCount: 2
Fore
SplineSet
248 795 m 5,0,-1
 208 795 l 5,1,-1
 208 878 l 5,2,-1
 248 878 l 5,3,-1
 288 878 l 5,4,-1
 288 795 l 5,5,-1
 248 795 l 5,0,-1
442 795 m 5,6,-1
 402 795 l 5,7,-1
 402 878 l 5,8,-1
 442 878 l 5,9,-1
 482 878 l 5,10,-1
 482 795 l 5,11,-1
 442 795 l 5,6,-1
173 40 m 1,12,-1
 133 40 l 1,13,-1
 133 692 l 2,14,15
 133 709 133 709 146 720.5 c 128,-1,16
 159 732 159 732 173 732 c 2,17,-1
 545 732 l 1,18,-1
 545 652 l 1,19,-1
 213 652 l 1,20,-1
 213 40 l 1,21,-1
 173 40 l 1,12,-1
173 385 m 1,22,-1
 173 425 l 1,23,-1
 499 425 l 1,24,-1
 499 385 l 1,25,-1
 499 345 l 1,26,-1
 173 345 l 1,27,-1
 173 385 l 1,22,-1
173 40 m 1,28,-1
 173 80 l 1,29,-1
 592 80 l 1,30,-1
 592 0 l 1,31,-1
 173 0 l 1,32,-1
 173 40 l 1,28,-1
76 40 m 1,33,-1
 76 80 l 1,34,-1
 173 80 l 1,35,-1
 173 40 l 1,36,-1
 173 0 l 1,37,-1
 76 0 l 1,38,-1
 76 40 l 1,33,-1
76 692 m 1,39,-1
 76 732 l 1,40,-1
 173 732 l 1,41,-1
 173 692 l 1,42,-1
 173 652 l 1,43,-1
 76 652 l 1,44,-1
 76 692 l 1,39,-1
545 595 m 1,45,-1
 505 595 l 1,46,-1
 505 732 l 1,47,-1
 545 732 l 1,48,-1
 585 732 l 1,49,-1
 585 595 l 1,50,-1
 545 595 l 1,45,-1
592 137 m 1,51,-1
 632 137 l 1,52,-1
 632 0 l 1,53,-1
 592 0 l 1,54,-1
 552 0 l 1,55,-1
 552 137 l 1,56,-1
 592 137 l 1,51,-1
499 481 m 1,57,-1
 539 481 l 1,58,-1
 539 288 l 1,59,-1
 499 288 l 1,60,-1
 459 288 l 1,61,-1
 459 481 l 1,62,-1
 499 481 l 1,57,-1
EndSplineSet
EndChar

StartChar: Igrave
Encoding: 204 204 112
Width: 343
Flags: W
LayerCount: 2
Fore
SplineSet
22 926 m 5,0,-1
 35 964 l 5,1,-1
 327 867 l 5,2,-1
 314 829 l 5,3,-1
 302 791 l 5,4,-1
 10 888 l 5,5,-1
 22 926 l 5,0,-1
170 42 m 1,6,-1
 130 42 l 1,7,-1
 130 694 l 1,8,-1
 170 694 l 1,9,-1
 210 694 l 1,10,-1
 210 42 l 1,11,-1
 170 42 l 1,6,-1
74 42 m 1,12,-1
 74 82 l 1,13,-1
 267 82 l 1,14,-1
 267 42 l 1,15,-1
 267 2 l 1,16,-1
 74 2 l 1,17,-1
 74 42 l 1,12,-1
74 694 m 1,18,-1
 74 734 l 1,19,-1
 267 734 l 1,20,-1
 267 694 l 1,21,-1
 267 654 l 1,22,-1
 74 654 l 1,23,-1
 74 694 l 1,18,-1
EndSplineSet
EndChar

StartChar: Iacute
Encoding: 205 205 113
Width: 343
Flags: W
LayerCount: 2
Fore
SplineSet
24 826 m 5,0,-1
 11 864 l 5,1,-1
 303 962 l 5,2,-1
 316 924 l 5,3,-1
 329 886 l 5,4,-1
 37 788 l 5,5,-1
 24 826 l 5,0,-1
170 42 m 1,6,-1
 130 42 l 1,7,-1
 130 694 l 1,8,-1
 170 694 l 1,9,-1
 210 694 l 1,10,-1
 210 42 l 1,11,-1
 170 42 l 1,6,-1
74 42 m 1,12,-1
 74 82 l 1,13,-1
 267 82 l 1,14,-1
 267 42 l 1,15,-1
 267 2 l 1,16,-1
 74 2 l 1,17,-1
 74 42 l 1,12,-1
74 694 m 1,18,-1
 74 734 l 1,19,-1
 267 734 l 1,20,-1
 267 694 l 1,21,-1
 267 654 l 1,22,-1
 74 654 l 1,23,-1
 74 694 l 1,18,-1
EndSplineSet
EndChar

StartChar: Icircumflex
Encoding: 206 206 114
Width: 343
Flags: W
LayerCount: 2
Fore
SplineSet
23 819 m 5,0,-1
 1 852 l 5,1,-1
 147 949 l 6,2,3
 169 964 169 964 191 949 c 6,4,-1
 337 852 l 5,5,-1
 315 819 l 5,6,-1
 293 785 l 5,7,-1
 169 868 l 5,8,-1
 45 785 l 5,9,-1
 23 819 l 5,0,-1
170 42 m 1,10,-1
 130 42 l 1,11,-1
 130 694 l 1,12,-1
 170 694 l 1,13,-1
 210 694 l 1,14,-1
 210 42 l 1,15,-1
 170 42 l 1,10,-1
74 42 m 1,16,-1
 74 82 l 1,17,-1
 267 82 l 1,18,-1
 267 42 l 1,19,-1
 267 2 l 1,20,-1
 74 2 l 1,21,-1
 74 42 l 1,16,-1
74 694 m 1,22,-1
 74 734 l 1,23,-1
 267 734 l 1,24,-1
 267 694 l 1,25,-1
 267 654 l 1,26,-1
 74 654 l 1,27,-1
 74 694 l 1,22,-1
EndSplineSet
EndChar

StartChar: Idieresis
Encoding: 207 207 115
Width: 343
Flags: W
LayerCount: 2
Fore
SplineSet
73 795 m 5,0,-1
 33 795 l 5,1,-1
 33 878 l 5,2,-1
 73 878 l 5,3,-1
 113 878 l 5,4,-1
 113 795 l 5,5,-1
 73 795 l 5,0,-1
267 795 m 5,6,-1
 227 795 l 5,7,-1
 227 878 l 5,8,-1
 267 878 l 5,9,-1
 307 878 l 5,10,-1
 307 795 l 5,11,-1
 267 795 l 5,6,-1
170 42 m 1,12,-1
 130 42 l 1,13,-1
 130 694 l 1,14,-1
 170 694 l 1,15,-1
 210 694 l 1,16,-1
 210 42 l 1,17,-1
 170 42 l 1,12,-1
74 42 m 1,18,-1
 74 82 l 1,19,-1
 267 82 l 1,20,-1
 267 42 l 1,21,-1
 267 2 l 1,22,-1
 74 2 l 1,23,-1
 74 42 l 1,18,-1
74 694 m 1,24,-1
 74 734 l 1,25,-1
 267 734 l 1,26,-1
 267 694 l 1,27,-1
 267 654 l 1,28,-1
 74 654 l 1,29,-1
 74 694 l 1,24,-1
EndSplineSet
EndChar

StartChar: Ograve
Encoding: 210 210 116
Width: 908
Flags: W
LayerCount: 2
Fore
SplineSet
284 936 m 5,0,-1
 297 974 l 5,1,-1
 589 877 l 5,2,-1
 576 839 l 5,3,-1
 564 801 l 5,4,-1
 272 898 l 5,5,-1
 284 936 l 5,0,-1
184 622 m 1,6,-1
 215 596 l 1,7,8
 179 554 179 554 160 507 c 128,-1,9
 141 460 141 460 139 410.5 c 128,-1,10
 137 361 137 361 150.5 318 c 128,-1,11
 164 275 164 275 185.5 237.5 c 128,-1,12
 207 200 207 200 238 167 c 0,13,14
 280 122 280 122 332.5 95.5 c 128,-1,15
 385 69 385 69 439.5 62 c 128,-1,16
 494 55 494 55 555.5 73 c 128,-1,17
 617 91 617 91 672 142 c 1,18,-1
 700 113 l 1,19,-1
 727 84 l 1,20,21
 659 20 659 20 581 -2.5 c 128,-1,22
 503 -25 503 -25 433 -17 c 128,-1,23
 363 -9 363 -9 297 24.5 c 128,-1,24
 231 58 231 58 180 112 c 0,25,26
 149 145 149 145 125 184 c 128,-1,27
 101 223 101 223 83 266 c 128,-1,28
 65 309 65 309 61 355.5 c 128,-1,29
 57 402 57 402 64 454.5 c 128,-1,30
 71 507 71 507 93.5 555.5 c 128,-1,31
 116 604 116 604 153 648 c 1,32,-1
 184 622 l 1,6,-1
700 113 m 1,33,-1
 672 142 l 1,34,35
 680 150 680 150 688 159 c 0,36,37
 730 204 730 204 754 281 c 0,38,39
 774 346 774 346 760.5 406.5 c 0,40,41
 743 480 743 480 721.5 517 c 0,42,43
 694 565 694 565 645 610 c 0,44,45
 600 651 600 651 547 673 c 128,-1,46
 494 695 494 695 439 696.5 c 128,-1,47
 384 698 384 698 324.5 675.5 c 128,-1,48
 265 653 265 653 214 595 c 1,49,-1
 184 622 l 1,50,-1
 154 649 l 1,51,52
 217 720 217 720 292.5 749 c 128,-1,53
 368 778 368 778 438 776 c 128,-1,54
 508 774 508 774 575.5 746.5 c 128,-1,55
 643 719 643 719 699 669.5 c 128,-1,56
 755 620 755 620 789.5 557 c 128,-1,57
 824 494 824 494 839 415.5 c 0,58,59
 853.531111766 339.453848422 853.531111766 339.453848422 830 258 c 0,60,61
 804 166 804 166 748 106 c 0,62,63
 738 95 738 95 728 85 c 1,64,-1
 700 113 l 1,33,-1
EndSplineSet
EndChar

StartChar: Oacute
Encoding: 211 211 117
Width: 908
Flags: W
LayerCount: 2
Fore
SplineSet
277 836 m 5,0,-1
 264 874 l 5,1,-1
 556 972 l 5,2,-1
 569 934 l 5,3,-1
 582 896 l 5,4,-1
 290 798 l 5,5,-1
 277 836 l 5,0,-1
184 622 m 1,6,-1
 215 596 l 1,7,8
 179 554 179 554 160 507 c 128,-1,9
 141 460 141 460 139 410.5 c 128,-1,10
 137 361 137 361 150.5 318 c 128,-1,11
 164 275 164 275 185.5 237.5 c 128,-1,12
 207 200 207 200 238 167 c 0,13,14
 280 122 280 122 332.5 95.5 c 128,-1,15
 385 69 385 69 439.5 62 c 128,-1,16
 494 55 494 55 555.5 73 c 128,-1,17
 617 91 617 91 672 142 c 1,18,-1
 700 113 l 1,19,-1
 727 84 l 1,20,21
 659 20 659 20 581 -2.5 c 128,-1,22
 503 -25 503 -25 433 -17 c 128,-1,23
 363 -9 363 -9 297 24.5 c 128,-1,24
 231 58 231 58 180 112 c 0,25,26
 149 145 149 145 125 184 c 128,-1,27
 101 223 101 223 83 266 c 128,-1,28
 65 309 65 309 61 355.5 c 128,-1,29
 57 402 57 402 64 454.5 c 128,-1,30
 71 507 71 507 93.5 555.5 c 128,-1,31
 116 604 116 604 153 648 c 1,32,-1
 184 622 l 1,6,-1
700 113 m 1,33,-1
 672 142 l 1,34,35
 680 150 680 150 688 159 c 0,36,37
 730 204 730 204 754 281 c 0,38,39
 774 346 774 346 760.5 406.5 c 0,40,41
 743 480 743 480 721.5 517 c 0,42,43
 694 565 694 565 645 610 c 0,44,45
 600 651 600 651 547 673 c 128,-1,46
 494 695 494 695 439 696.5 c 128,-1,47
 384 698 384 698 324.5 675.5 c 128,-1,48
 265 653 265 653 214 595 c 1,49,-1
 184 622 l 1,50,-1
 154 649 l 1,51,52
 217 720 217 720 292.5 749 c 128,-1,53
 368 778 368 778 438 776 c 128,-1,54
 508 774 508 774 575.5 746.5 c 128,-1,55
 643 719 643 719 699 669.5 c 128,-1,56
 755 620 755 620 789.5 557 c 128,-1,57
 824 494 824 494 839 415.5 c 0,58,59
 853.531111766 339.453848422 853.531111766 339.453848422 830 258 c 0,60,61
 804 166 804 166 748 106 c 0,62,63
 738 95 738 95 728 85 c 1,64,-1
 700 113 l 1,33,-1
EndSplineSet
EndChar

StartChar: Ocircumflex
Encoding: 212 212 118
Width: 908
Flags: W
LayerCount: 2
Fore
SplineSet
293 832 m 5,0,-1
 271 865 l 5,1,-1
 417 962 l 6,2,3
 439 977 439 977 461 962 c 6,4,-1
 607 865 l 5,5,-1
 585 832 l 5,6,-1
 563 798 l 5,7,-1
 439 881 l 5,8,-1
 315 798 l 5,9,-1
 293 832 l 5,0,-1
184 622 m 1,10,-1
 215 596 l 1,11,12
 179 554 179 554 160 507 c 128,-1,13
 141 460 141 460 139 410.5 c 128,-1,14
 137 361 137 361 150.5 318 c 128,-1,15
 164 275 164 275 185.5 237.5 c 128,-1,16
 207 200 207 200 238 167 c 0,17,18
 280 122 280 122 332.5 95.5 c 128,-1,19
 385 69 385 69 439.5 62 c 128,-1,20
 494 55 494 55 555.5 73 c 128,-1,21
 617 91 617 91 672 142 c 1,22,-1
 700 113 l 1,23,-1
 727 84 l 1,24,25
 659 20 659 20 581 -2.5 c 128,-1,26
 503 -25 503 -25 433 -17 c 128,-1,27
 363 -9 363 -9 297 24.5 c 128,-1,28
 231 58 231 58 180 112 c 0,29,30
 149 145 149 145 125 184 c 128,-1,31
 101 223 101 223 83 266 c 128,-1,32
 65 309 65 309 61 355.5 c 128,-1,33
 57 402 57 402 64 454.5 c 128,-1,34
 71 507 71 507 93.5 555.5 c 128,-1,35
 116 604 116 604 153 648 c 1,36,-1
 184 622 l 1,10,-1
700 113 m 1,37,-1
 672 142 l 1,38,39
 680 150 680 150 688 159 c 0,40,41
 730 204 730 204 754 281 c 0,42,43
 774 346 774 346 760.5 406.5 c 0,44,45
 743 480 743 480 721.5 517 c 0,46,47
 694 565 694 565 645 610 c 0,48,49
 600 651 600 651 547 673 c 128,-1,50
 494 695 494 695 439 696.5 c 128,-1,51
 384 698 384 698 324.5 675.5 c 128,-1,52
 265 653 265 653 214 595 c 1,53,-1
 184 622 l 1,54,-1
 154 649 l 1,55,56
 217 720 217 720 292.5 749 c 128,-1,57
 368 778 368 778 438 776 c 128,-1,58
 508 774 508 774 575.5 746.5 c 128,-1,59
 643 719 643 719 699 669.5 c 128,-1,60
 755 620 755 620 789.5 557 c 128,-1,61
 824 494 824 494 839 415.5 c 0,62,63
 853.531111766 339.453848422 853.531111766 339.453848422 830 258 c 0,64,65
 804 166 804 166 748 106 c 0,66,67
 738 95 738 95 728 85 c 1,68,-1
 700 113 l 1,37,-1
EndSplineSet
EndChar

StartChar: Odieresis
Encoding: 214 214 119
Width: 908
Flags: W
LayerCount: 2
Fore
SplineSet
342 816 m 5,0,-1
 302 816 l 5,1,-1
 302 899 l 5,2,-1
 342 899 l 5,3,-1
 382 899 l 5,4,-1
 382 816 l 5,5,-1
 342 816 l 5,0,-1
536 816 m 5,6,-1
 496 816 l 5,7,-1
 496 899 l 5,8,-1
 536 899 l 5,9,-1
 576 899 l 5,10,-1
 576 816 l 5,11,-1
 536 816 l 5,6,-1
184 622 m 1,12,-1
 215 596 l 1,13,14
 179 554 179 554 160 507 c 128,-1,15
 141 460 141 460 139 410.5 c 128,-1,16
 137 361 137 361 150.5 318 c 128,-1,17
 164 275 164 275 185.5 237.5 c 128,-1,18
 207 200 207 200 238 167 c 0,19,20
 280 122 280 122 332.5 95.5 c 128,-1,21
 385 69 385 69 439.5 62 c 128,-1,22
 494 55 494 55 555.5 73 c 128,-1,23
 617 91 617 91 672 142 c 1,24,-1
 700 113 l 1,25,-1
 727 84 l 1,26,27
 659 20 659 20 581 -2.5 c 128,-1,28
 503 -25 503 -25 433 -17 c 128,-1,29
 363 -9 363 -9 297 24.5 c 128,-1,30
 231 58 231 58 180 112 c 0,31,32
 149 145 149 145 125 184 c 128,-1,33
 101 223 101 223 83 266 c 128,-1,34
 65 309 65 309 61 355.5 c 128,-1,35
 57 402 57 402 64 454.5 c 128,-1,36
 71 507 71 507 93.5 555.5 c 128,-1,37
 116 604 116 604 153 648 c 1,38,-1
 184 622 l 1,12,-1
700 113 m 1,39,-1
 672 142 l 1,40,41
 680 150 680 150 688 159 c 0,42,43
 730 204 730 204 754 281 c 0,44,45
 774 346 774 346 760.5 406.5 c 0,46,47
 743 480 743 480 721.5 517 c 0,48,49
 694 565 694 565 645 610 c 0,50,51
 600 651 600 651 547 673 c 128,-1,52
 494 695 494 695 439 696.5 c 128,-1,53
 384 698 384 698 324.5 675.5 c 128,-1,54
 265 653 265 653 214 595 c 1,55,-1
 184 622 l 1,56,-1
 154 649 l 1,57,58
 217 720 217 720 292.5 749 c 128,-1,59
 368 778 368 778 438 776 c 128,-1,60
 508 774 508 774 575.5 746.5 c 128,-1,61
 643 719 643 719 699 669.5 c 128,-1,62
 755 620 755 620 789.5 557 c 128,-1,63
 824 494 824 494 839 415.5 c 0,64,65
 853.531111766 339.453848422 853.531111766 339.453848422 830 258 c 0,66,67
 804 166 804 166 748 106 c 0,68,69
 738 95 738 95 728 85 c 1,70,-1
 700 113 l 1,39,-1
EndSplineSet
EndChar

StartChar: Oslash
Encoding: 216 216 120
Width: 908
Flags: W
LayerCount: 2
Fore
SplineSet
754.704101562 713.689453125 m 5,0,-1
 784 686 l 5,1,-1
 157.643554688 13.779296875 l 5,2,-1
 128.346679688 41.4697265625 l 5,3,-1
 99.05078125 69.1591796875 l 5,4,-1
 725.407226562 741.379882812 l 5,5,-1
 754.704101562 713.689453125 l 5,0,-1
184 622 m 1,6,-1
 215 596 l 1,7,8
 179 554 179 554 160 507 c 128,-1,9
 141 460 141 460 139 410.5 c 128,-1,10
 137 361 137 361 150.5 318 c 128,-1,11
 164 275 164 275 185.5 237.5 c 128,-1,12
 207 200 207 200 238 167 c 0,13,14
 280 122 280 122 332.5 95.5 c 128,-1,15
 385 69 385 69 439.5 62 c 128,-1,16
 494 55 494 55 555.5 73 c 128,-1,17
 617 91 617 91 672 142 c 1,18,-1
 700 113 l 1,19,-1
 727 84 l 1,20,21
 659 20 659 20 581 -2.5 c 128,-1,22
 503 -25 503 -25 433 -17 c 128,-1,23
 363 -9 363 -9 297 24.5 c 128,-1,24
 231 58 231 58 180 112 c 0,25,26
 149 145 149 145 125 184 c 128,-1,27
 101 223 101 223 83 266 c 128,-1,28
 65 309 65 309 61 355.5 c 128,-1,29
 57 402 57 402 64 454.5 c 128,-1,30
 71 507 71 507 93.5 555.5 c 128,-1,31
 116 604 116 604 153 648 c 1,32,-1
 184 622 l 1,6,-1
700 113 m 1,33,-1
 672 142 l 1,34,35
 680 150 680 150 688 159 c 0,36,37
 730 204 730 204 754 281 c 0,38,39
 774 346 774 346 760.5 406.5 c 0,40,41
 743 480 743 480 721.5 517 c 0,42,43
 694 565 694 565 645 610 c 0,44,45
 600 651 600 651 547 673 c 128,-1,46
 494 695 494 695 439 696.5 c 128,-1,47
 384 698 384 698 324.5 675.5 c 128,-1,48
 265 653 265 653 214 595 c 1,49,-1
 184 622 l 1,50,-1
 154 649 l 1,51,52
 217 720 217 720 292.5 749 c 128,-1,53
 368 778 368 778 438 776 c 128,-1,54
 508 774 508 774 575.5 746.5 c 128,-1,55
 643 719 643 719 699 669.5 c 128,-1,56
 755 620 755 620 789.5 557 c 128,-1,57
 824 494 824 494 839 415.5 c 0,58,59
 853.531111766 339.453848422 853.531111766 339.453848422 830 258 c 0,60,61
 804 166 804 166 748 106 c 0,62,63
 738 95 738 95 728 85 c 1,64,-1
 700 113 l 1,33,-1
EndSplineSet
EndChar

StartChar: Ugrave
Encoding: 217 217 121
Width: 785
Flags: W
LayerCount: 2
Fore
SplineSet
225 926 m 5,0,-1
 238 964 l 5,1,-1
 530 867 l 5,2,-1
 517 829 l 5,3,-1
 505 791 l 5,4,-1
 213 888 l 5,5,-1
 225 926 l 5,0,-1
710 40 m 1,6,-1
 710 0 l 1,7,-1
 613 0 l 2,8,9
 596 0 596 0 584.5 13 c 128,-1,10
 573 26 573 26 573 40 c 2,11,-1
 573 652 l 1,12,-1
 517 652 l 1,13,-1
 517 692 l 1,14,-1
 517 732 l 1,15,-1
 633 732 l 2,16,17
 635 732 635 732 639 732 c 128,-1,18
 643 732 643 732 644.5 732 c 128,-1,19
 646 732 646 732 648 731.5 c 128,-1,20
 650 731 650 731 650.5 730 c 128,-1,21
 651 729 651 729 652 726.5 c 128,-1,22
 653 724 653 724 653 720.5 c 128,-1,23
 653 717 653 717 653 712 c 2,24,-1
 653 80 l 1,25,-1
 710 80 l 1,26,-1
 710 40 l 1,6,-1
613 133 m 1,27,-1
 633 99 l 1,28,29
 573 64 573 64 510 39.5 c 128,-1,30
 447 15 447 15 388.5 2.5 c 128,-1,31
 330 -10 330 -10 278 -10 c 0,32,33
 205 -10 205 -10 156 29 c 128,-1,34
 107 68 107 68 107 143 c 2,35,-1
 107 652 l 1,36,-1
 52 652 l 1,37,-1
 52 692 l 1,38,-1
 52 732 l 1,39,-1
 167 732 l 2,40,41
 170 732 170 732 174 732 c 128,-1,42
 178 732 178 732 179 732 c 128,-1,43
 180 732 180 732 182 731.5 c 128,-1,44
 184 731 184 731 184.5 730 c 128,-1,45
 185 729 185 729 186 726.5 c 128,-1,46
 187 724 187 724 187 720.5 c 128,-1,47
 187 717 187 717 187 712 c 2,48,-1
 187 143 l 2,49,50
 187 103 187 103 207.5 86.5 c 128,-1,51
 228 70 228 70 278 70 c 0,52,53
 341 70 341 70 426 95 c 128,-1,54
 511 120 511 120 593 168 c 1,55,-1
 613 133 l 1,27,-1
EndSplineSet
EndChar

StartChar: Uacute
Encoding: 218 218 122
Width: 785
Flags: W
LayerCount: 2
Fore
SplineSet
233 826 m 5,0,-1
 220 864 l 5,1,-1
 512 962 l 5,2,-1
 525 924 l 5,3,-1
 538 886 l 5,4,-1
 246 788 l 5,5,-1
 233 826 l 5,0,-1
710 40 m 1,6,-1
 710 0 l 1,7,-1
 613 0 l 2,8,9
 596 0 596 0 584.5 13 c 128,-1,10
 573 26 573 26 573 40 c 2,11,-1
 573 652 l 1,12,-1
 517 652 l 1,13,-1
 517 692 l 1,14,-1
 517 732 l 1,15,-1
 633 732 l 2,16,17
 635 732 635 732 639 732 c 128,-1,18
 643 732 643 732 644.5 732 c 128,-1,19
 646 732 646 732 648 731.5 c 128,-1,20
 650 731 650 731 650.5 730 c 128,-1,21
 651 729 651 729 652 726.5 c 128,-1,22
 653 724 653 724 653 720.5 c 128,-1,23
 653 717 653 717 653 712 c 2,24,-1
 653 80 l 1,25,-1
 710 80 l 1,26,-1
 710 40 l 1,6,-1
613 133 m 1,27,-1
 633 99 l 1,28,29
 573 64 573 64 510 39.5 c 128,-1,30
 447 15 447 15 388.5 2.5 c 128,-1,31
 330 -10 330 -10 278 -10 c 0,32,33
 205 -10 205 -10 156 29 c 128,-1,34
 107 68 107 68 107 143 c 2,35,-1
 107 652 l 1,36,-1
 52 652 l 1,37,-1
 52 692 l 1,38,-1
 52 732 l 1,39,-1
 167 732 l 2,40,41
 170 732 170 732 174 732 c 128,-1,42
 178 732 178 732 179 732 c 128,-1,43
 180 732 180 732 182 731.5 c 128,-1,44
 184 731 184 731 184.5 730 c 128,-1,45
 185 729 185 729 186 726.5 c 128,-1,46
 187 724 187 724 187 720.5 c 128,-1,47
 187 717 187 717 187 712 c 2,48,-1
 187 143 l 2,49,50
 187 103 187 103 207.5 86.5 c 128,-1,51
 228 70 228 70 278 70 c 0,52,53
 341 70 341 70 426 95 c 128,-1,54
 511 120 511 120 593 168 c 1,55,-1
 613 133 l 1,27,-1
EndSplineSet
EndChar

StartChar: Ucircumflex
Encoding: 219 219 123
Width: 785
Flags: W
LayerCount: 2
Fore
SplineSet
238 819 m 5,0,-1
 216 852 l 5,1,-1
 362 949 l 6,2,3
 384 964 384 964 406 949 c 6,4,-1
 552 852 l 5,5,-1
 530 819 l 5,6,-1
 508 785 l 5,7,-1
 384 868 l 5,8,-1
 260 785 l 5,9,-1
 238 819 l 5,0,-1
710 40 m 1,10,-1
 710 0 l 1,11,-1
 613 0 l 2,12,13
 596 0 596 0 584.5 13 c 128,-1,14
 573 26 573 26 573 40 c 2,15,-1
 573 652 l 1,16,-1
 517 652 l 1,17,-1
 517 692 l 1,18,-1
 517 732 l 1,19,-1
 633 732 l 2,20,21
 635 732 635 732 639 732 c 128,-1,22
 643 732 643 732 644.5 732 c 128,-1,23
 646 732 646 732 648 731.5 c 128,-1,24
 650 731 650 731 650.5 730 c 128,-1,25
 651 729 651 729 652 726.5 c 128,-1,26
 653 724 653 724 653 720.5 c 128,-1,27
 653 717 653 717 653 712 c 2,28,-1
 653 80 l 1,29,-1
 710 80 l 1,30,-1
 710 40 l 1,10,-1
613 133 m 1,31,-1
 633 99 l 1,32,33
 573 64 573 64 510 39.5 c 128,-1,34
 447 15 447 15 388.5 2.5 c 128,-1,35
 330 -10 330 -10 278 -10 c 0,36,37
 205 -10 205 -10 156 29 c 128,-1,38
 107 68 107 68 107 143 c 2,39,-1
 107 652 l 1,40,-1
 52 652 l 1,41,-1
 52 692 l 1,42,-1
 52 732 l 1,43,-1
 167 732 l 2,44,45
 170 732 170 732 174 732 c 128,-1,46
 178 732 178 732 179 732 c 128,-1,47
 180 732 180 732 182 731.5 c 128,-1,48
 184 731 184 731 184.5 730 c 128,-1,49
 185 729 185 729 186 726.5 c 128,-1,50
 187 724 187 724 187 720.5 c 128,-1,51
 187 717 187 717 187 712 c 2,52,-1
 187 143 l 2,53,54
 187 103 187 103 207.5 86.5 c 128,-1,55
 228 70 228 70 278 70 c 0,56,57
 341 70 341 70 426 95 c 128,-1,58
 511 120 511 120 593 168 c 1,59,-1
 613 133 l 1,31,-1
EndSplineSet
EndChar

StartChar: Udieresis
Encoding: 220 220 124
Width: 785
Flags: W
LayerCount: 2
Fore
SplineSet
280 795 m 5,0,-1
 240 795 l 5,1,-1
 240 878 l 5,2,-1
 280 878 l 5,3,-1
 320 878 l 5,4,-1
 320 795 l 5,5,-1
 280 795 l 5,0,-1
474 795 m 5,6,-1
 434 795 l 5,7,-1
 434 878 l 5,8,-1
 474 878 l 5,9,-1
 514 878 l 5,10,-1
 514 795 l 5,11,-1
 474 795 l 5,6,-1
710 40 m 1,12,-1
 710 0 l 1,13,-1
 613 0 l 2,14,15
 596 0 596 0 584.5 13 c 128,-1,16
 573 26 573 26 573 40 c 2,17,-1
 573 652 l 1,18,-1
 517 652 l 1,19,-1
 517 692 l 1,20,-1
 517 732 l 1,21,-1
 633 732 l 2,22,23
 635 732 635 732 639 732 c 128,-1,24
 643 732 643 732 644.5 732 c 128,-1,25
 646 732 646 732 648 731.5 c 128,-1,26
 650 731 650 731 650.5 730 c 128,-1,27
 651 729 651 729 652 726.5 c 128,-1,28
 653 724 653 724 653 720.5 c 128,-1,29
 653 717 653 717 653 712 c 2,30,-1
 653 80 l 1,31,-1
 710 80 l 1,32,-1
 710 40 l 1,12,-1
613 133 m 1,33,-1
 633 99 l 1,34,35
 573 64 573 64 510 39.5 c 128,-1,36
 447 15 447 15 388.5 2.5 c 128,-1,37
 330 -10 330 -10 278 -10 c 0,38,39
 205 -10 205 -10 156 29 c 128,-1,40
 107 68 107 68 107 143 c 2,41,-1
 107 652 l 1,42,-1
 52 652 l 1,43,-1
 52 692 l 1,44,-1
 52 732 l 1,45,-1
 167 732 l 2,46,47
 170 732 170 732 174 732 c 128,-1,48
 178 732 178 732 179 732 c 128,-1,49
 180 732 180 732 182 731.5 c 128,-1,50
 184 731 184 731 184.5 730 c 128,-1,51
 185 729 185 729 186 726.5 c 128,-1,52
 187 724 187 724 187 720.5 c 128,-1,53
 187 717 187 717 187 712 c 2,54,-1
 187 143 l 2,55,56
 187 103 187 103 207.5 86.5 c 128,-1,57
 228 70 228 70 278 70 c 0,58,59
 341 70 341 70 426 95 c 128,-1,60
 511 120 511 120 593 168 c 1,61,-1
 613 133 l 1,33,-1
EndSplineSet
EndChar

StartChar: Yacute
Encoding: 221 221 125
Width: 693
Flags: W
LayerCount: 2
Fore
SplineSet
200 826 m 5,0,-1
 187 864 l 5,1,-1
 479 962 l 5,2,-1
 492 924 l 5,3,-1
 505 886 l 5,4,-1
 213 788 l 5,5,-1
 200 826 l 5,0,-1
110 693 m 1,6,-1
 143 716 l 1,7,-1
 376 390 l 2,8,9
 383 380 383 380 383 367 c 2,10,-1
 383 41 l 1,11,-1
 343 41 l 1,12,-1
 303 41 l 1,13,-1
 303 354 l 1,14,-1
 78 670 l 1,15,-1
 110 693 l 1,6,-1
576 693 m 1,16,-1
 608 670 l 1,17,-1
 376 344 l 1,18,-1
 343 367 l 1,19,-1
 310 390 l 1,20,-1
 543 716 l 1,21,-1
 576 693 l 1,16,-1
14 693 m 1,22,-1
 14 733 l 1,23,-1
 207 733 l 1,24,-1
 207 693 l 1,25,-1
 207 653 l 1,26,-1
 14 653 l 1,27,-1
 14 693 l 1,22,-1
479 693 m 1,28,-1
 479 733 l 1,29,-1
 672 733 l 1,30,-1
 672 693 l 1,31,-1
 672 653 l 1,32,-1
 479 653 l 1,33,-1
 479 693 l 1,28,-1
246 41 m 1,34,-1
 246 81 l 1,35,-1
 440 81 l 1,36,-1
 440 41 l 1,37,-1
 440 1 l 1,38,-1
 246 1 l 1,39,-1
 246 41 l 1,34,-1
EndSplineSet
EndChar

StartChar: agrave
Encoding: 224 224 126
Width: 567
Flags: W
LayerCount: 2
Fore
SplineSet
142 704 m 5,0,-1
 155 742 l 5,1,-1
 447 645 l 5,2,-1
 434 607 l 5,3,-1
 422 569 l 5,4,-1
 130 666 l 5,5,-1
 142 704 l 5,0,-1
137 398 m 1,6,-1
 99 412 l 1,7,8
 113 451 113 451 140 478.5 c 128,-1,9
 167 506 167 506 199 519 c 128,-1,10
 231 532 231 532 267 533 c 0,11,12
 340 534 340 534 397 484.5 c 128,-1,13
 454 435 454 435 456 352 c 2,14,-1
 456 82 l 1,15,-1
 513 82 l 1,16,-1
 513 42 l 1,17,-1
 513 2 l 1,18,-1
 416 2 l 2,19,20
 402 2 402 2 389 13.5 c 128,-1,21
 376 25 376 25 376 42 c 2,22,-1
 376 351 l 2,23,24
 375 399 375 399 343 426.5 c 128,-1,25
 311 454 311 454 268 453 c 0,26,27
 198 451 198 451 174 384 c 1,28,-1
 137 398 l 1,6,-1
416 265 m 1,29,-1
 416 225 l 1,30,-1
 153 225 l 1,31,32
 148 221 148 221 145 217 c 0,33,34
 134 205 134 205 133 184.5 c 128,-1,35
 132 164 132 164 143.5 141 c 128,-1,36
 155 118 155 118 176 99 c 0,37,38
 201 79 201 79 232 72 c 128,-1,39
 263 65 263 65 305.5 81 c 128,-1,40
 348 97 348 97 385 142 c 1,41,-1
 416 116 l 1,42,-1
 447 90 l 1,43,44
 397 31 397 31 334.5 7.5 c 128,-1,45
 272 -16 272 -16 218.5 -6 c 128,-1,46
 165 4 165 4 125 38 c 0,47,48
 92 66 92 66 71.5 105 c 128,-1,49
 51 144 51 144 52.5 189 c 128,-1,50
 54 234 54 234 84 269 c 0,51,52
 99 287 99 287 121 300 c 0,53,54
 130 305 130 305 141 305 c 2,55,-1
 416 305 l 1,56,-1
 416 265 l 1,29,-1
EndSplineSet
EndChar

StartChar: aacute
Encoding: 225 225 127
Width: 567
Flags: W
LayerCount: 2
Fore
SplineSet
128 618 m 5,0,-1
 115 656 l 5,1,-1
 407 754 l 5,2,-1
 420 716 l 5,3,-1
 433 678 l 5,4,-1
 141 580 l 5,5,-1
 128 618 l 5,0,-1
137 398 m 1,6,-1
 99 412 l 1,7,8
 113 451 113 451 140 478.5 c 128,-1,9
 167 506 167 506 199 519 c 128,-1,10
 231 532 231 532 267 533 c 0,11,12
 340 534 340 534 397 484.5 c 128,-1,13
 454 435 454 435 456 352 c 2,14,-1
 456 82 l 1,15,-1
 513 82 l 1,16,-1
 513 42 l 1,17,-1
 513 2 l 1,18,-1
 416 2 l 2,19,20
 402 2 402 2 389 13.5 c 128,-1,21
 376 25 376 25 376 42 c 2,22,-1
 376 351 l 2,23,24
 375 399 375 399 343 426.5 c 128,-1,25
 311 454 311 454 268 453 c 0,26,27
 198 451 198 451 174 384 c 1,28,-1
 137 398 l 1,6,-1
416 265 m 1,29,-1
 416 225 l 1,30,-1
 153 225 l 1,31,32
 148 221 148 221 145 217 c 0,33,34
 134 205 134 205 133 184.5 c 128,-1,35
 132 164 132 164 143.5 141 c 128,-1,36
 155 118 155 118 176 99 c 0,37,38
 201 79 201 79 232 72 c 128,-1,39
 263 65 263 65 305.5 81 c 128,-1,40
 348 97 348 97 385 142 c 1,41,-1
 416 116 l 1,42,-1
 447 90 l 1,43,44
 397 31 397 31 334.5 7.5 c 128,-1,45
 272 -16 272 -16 218.5 -6 c 128,-1,46
 165 4 165 4 125 38 c 0,47,48
 92 66 92 66 71.5 105 c 128,-1,49
 51 144 51 144 52.5 189 c 128,-1,50
 54 234 54 234 84 269 c 0,51,52
 99 287 99 287 121 300 c 0,53,54
 130 305 130 305 141 305 c 2,55,-1
 416 305 l 1,56,-1
 416 265 l 1,29,-1
EndSplineSet
EndChar

StartChar: acircumflex
Encoding: 226 226 128
Width: 567
Flags: W
LayerCount: 2
Fore
SplineSet
131 604 m 5,0,-1
 109 637 l 5,1,-1
 255 734 l 6,2,3
 277 749 277 749 299 734 c 6,4,-1
 445 637 l 5,5,-1
 423 604 l 5,6,-1
 401 570 l 5,7,-1
 277 653 l 5,8,-1
 153 570 l 5,9,-1
 131 604 l 5,0,-1
137 398 m 1,10,-1
 99 412 l 1,11,12
 113 451 113 451 140 478.5 c 128,-1,13
 167 506 167 506 199 519 c 128,-1,14
 231 532 231 532 267 533 c 0,15,16
 340 534 340 534 397 484.5 c 128,-1,17
 454 435 454 435 456 352 c 2,18,-1
 456 82 l 1,19,-1
 513 82 l 1,20,-1
 513 42 l 1,21,-1
 513 2 l 1,22,-1
 416 2 l 2,23,24
 402 2 402 2 389 13.5 c 128,-1,25
 376 25 376 25 376 42 c 2,26,-1
 376 351 l 2,27,28
 375 399 375 399 343 426.5 c 128,-1,29
 311 454 311 454 268 453 c 0,30,31
 198 451 198 451 174 384 c 1,32,-1
 137 398 l 1,10,-1
416 265 m 1,33,-1
 416 225 l 1,34,-1
 153 225 l 1,35,36
 148 221 148 221 145 217 c 0,37,38
 134 205 134 205 133 184.5 c 128,-1,39
 132 164 132 164 143.5 141 c 128,-1,40
 155 118 155 118 176 99 c 0,41,42
 201 79 201 79 232 72 c 128,-1,43
 263 65 263 65 305.5 81 c 128,-1,44
 348 97 348 97 385 142 c 1,45,-1
 416 116 l 1,46,-1
 447 90 l 1,47,48
 397 31 397 31 334.5 7.5 c 128,-1,49
 272 -16 272 -16 218.5 -6 c 128,-1,50
 165 4 165 4 125 38 c 0,51,52
 92 66 92 66 71.5 105 c 128,-1,53
 51 144 51 144 52.5 189 c 128,-1,54
 54 234 54 234 84 269 c 0,55,56
 99 287 99 287 121 300 c 0,57,58
 130 305 130 305 141 305 c 2,59,-1
 416 305 l 1,60,-1
 416 265 l 1,33,-1
EndSplineSet
EndChar

StartChar: adieresis
Encoding: 228 228 129
Width: 567
Flags: W
LayerCount: 2
Fore
SplineSet
185 607 m 5,0,-1
 145 607 l 5,1,-1
 145 690 l 5,2,-1
 185 690 l 5,3,-1
 225 690 l 5,4,-1
 225 607 l 5,5,-1
 185 607 l 5,0,-1
379 607 m 5,6,-1
 339 607 l 5,7,-1
 339 690 l 5,8,-1
 379 690 l 5,9,-1
 419 690 l 5,10,-1
 419 607 l 5,11,-1
 379 607 l 5,6,-1
137 398 m 1,12,-1
 99 412 l 1,13,14
 113 451 113 451 140 478.5 c 128,-1,15
 167 506 167 506 199 519 c 128,-1,16
 231 532 231 532 267 533 c 0,17,18
 340 534 340 534 397 484.5 c 128,-1,19
 454 435 454 435 456 352 c 2,20,-1
 456 82 l 1,21,-1
 513 82 l 1,22,-1
 513 42 l 1,23,-1
 513 2 l 1,24,-1
 416 2 l 2,25,26
 402 2 402 2 389 13.5 c 128,-1,27
 376 25 376 25 376 42 c 2,28,-1
 376 351 l 2,29,30
 375 399 375 399 343 426.5 c 128,-1,31
 311 454 311 454 268 453 c 0,32,33
 198 451 198 451 174 384 c 1,34,-1
 137 398 l 1,12,-1
416 265 m 1,35,-1
 416 225 l 1,36,-1
 153 225 l 1,37,38
 148 221 148 221 145 217 c 0,39,40
 134 205 134 205 133 184.5 c 128,-1,41
 132 164 132 164 143.5 141 c 128,-1,42
 155 118 155 118 176 99 c 0,43,44
 201 79 201 79 232 72 c 128,-1,45
 263 65 263 65 305.5 81 c 128,-1,46
 348 97 348 97 385 142 c 1,47,-1
 416 116 l 1,48,-1
 447 90 l 1,49,50
 397 31 397 31 334.5 7.5 c 128,-1,51
 272 -16 272 -16 218.5 -6 c 128,-1,52
 165 4 165 4 125 38 c 0,53,54
 92 66 92 66 71.5 105 c 128,-1,55
 51 144 51 144 52.5 189 c 128,-1,56
 54 234 54 234 84 269 c 0,57,58
 99 287 99 287 121 300 c 0,59,60
 130 305 130 305 141 305 c 2,61,-1
 416 305 l 1,62,-1
 416 265 l 1,35,-1
EndSplineSet
EndChar

StartChar: ccedilla
Encoding: 231 231 130
Width: 592
Flags: W
LayerCount: 2
Fore
SplineSet
268 -233 m 5,0,-1
 231 -218 l 5,1,2
 277 -109 277 -109 277 10 c 5,3,-1
 317 10 l 5,4,-1
 357 10 l 5,5,6
 357 -124 357 -124 305 -249 c 5,7,-1
 268 -233 l 5,0,-1
459 534 m 2,8,-1
 493 534 l 1,9,-1
 527 534 l 1,10,-1
 527 387 l 2,11,12
 527 370 527 370 514 358 c 128,-1,13
 501 346 501 346 484 347 c 0,14,15
 463 349 463 349 452 367 c 0,16,17
 433 400 433 400 381 431 c 0,18,19
 341 454 341 454 295.5 459 c 128,-1,20
 250 464 250 464 212 441 c 128,-1,21
 174 418 174 418 149 375 c 0,22,23
 130 342 130 342 125.5 304 c 128,-1,24
 121 266 121 266 130.5 235.5 c 128,-1,25
 140 205 140 205 156 179 c 128,-1,26
 172 153 172 153 196 131 c 0,27,28
 233 95 233 95 276 80.5 c 128,-1,29
 319 66 319 66 367.5 78.5 c 128,-1,30
 416 91 416 91 458 135 c 1,31,-1
 487 108 l 1,32,-1
 516 80 l 1,33,34
 457 19 457 19 386.5 1 c 128,-1,35
 316 -17 316 -17 253.5 3.5 c 128,-1,36
 191 24 191 24 140 73 c 0,37,38
 97 115 97 115 71.5 166.5 c 128,-1,39
 46 218 46 218 45.5 286.5 c 128,-1,40
 45 355 45 355 80 415 c 0,41,42
 116 478 116 478 180 511 c 0,43,44
 230 537 230 537 308.5 532 c 0,45,46
 364.988978381 529.007206443 364.988978381 529.007206443 417 495 c 0,47,48
 443 478 443 478 453 491 c 0,49,50
 454 492.727272727 454 492.727272727 454 506 c 0,51,52
 455 534 455 534 459 534 c 2,8,-1
EndSplineSet
EndChar

StartChar: egrave
Encoding: 232 232 131
Width: 604
Flags: W
LayerCount: 2
Fore
SplineSet
149 709 m 5,0,-1
 162 747 l 5,1,-1
 454 650 l 5,2,-1
 441 612 l 5,3,-1
 429 574 l 5,4,-1
 137 671 l 5,5,-1
 149 709 l 5,0,-1
115 243 m 5,6,-1
 101 281 l 5,7,-1
 492 359 l 5,8,-1
 542 369 l 5,9,-1
 551 291 l 5,10,-1
 129 206 l 5,11,-1
 115 243 l 5,6,-1
505 353 m 5,12,-1
 468 339 l 5,13,14
 450 387 450 387 402 420 c 4,15,16
 364 446 364 446 321.5 454 c 4,17,18
 269 463 269 463 235 447.5 c 4,19,20
 191 427 191 427 166 387 c 4,21,22
 95 271 95 271 185 152 c 4,23,24
 217 110 217 110 271 88 c 132,-1,25
 325 66 325 66 380.5 71.5 c 132,-1,26
 436 77 436 77 486 114 c 5,27,-1
 510 82 l 5,28,-1
 534 50 l 5,29,30
 465 -1 465 -1 387 -8 c 132,-1,31
 309 -15 309 -15 236.5 16 c 132,-1,32
 164 47 164 47 121 104 c 4,33,34
 87 150 87 150 70 199.5 c 132,-1,35
 53 249 53 249 58.5 313.5 c 132,-1,36
 64 378 64 378 99 431 c 4,37,38
 139 491 139 491 201 517.5 c 132,-1,39
 263 544 263 544 328 533.5 c 132,-1,40
 393 523 393 523 447 487 c 4,41,42
 515 441 515 441 543 366 c 5,43,-1
 505 353 l 5,12,-1
EndSplineSet
EndChar

StartChar: eacute
Encoding: 233 233 132
Width: 594
Flags: W
LayerCount: 2
Fore
SplineSet
124 618 m 5,0,-1
 111 656 l 5,1,-1
 403 754 l 5,2,-1
 416 716 l 5,3,-1
 429 678 l 5,4,-1
 137 580 l 5,5,-1
 124 618 l 5,0,-1
107 243 m 5,6,-1
 93 281 l 5,7,-1
 484 359 l 5,8,-1
 534 369 l 5,9,-1
 543 291 l 5,10,-1
 121 206 l 5,11,-1
 107 243 l 5,6,-1
497 353 m 5,12,-1
 460 339 l 5,13,14
 442 387 442 387 394 420 c 4,15,16
 356 446 356 446 313.5 454 c 4,17,18
 261 463 261 463 227 447.5 c 4,19,20
 183 427 183 427 158 387 c 4,21,22
 87 271 87 271 177 152 c 4,23,24
 209 110 209 110 263 88 c 132,-1,25
 317 66 317 66 372.5 71.5 c 132,-1,26
 428 77 428 77 478 114 c 5,27,-1
 502 82 l 5,28,-1
 526 50 l 5,29,30
 457 -1 457 -1 379 -8 c 132,-1,31
 301 -15 301 -15 228.5 16 c 132,-1,32
 156 47 156 47 113 104 c 4,33,34
 79 150 79 150 62 199.5 c 132,-1,35
 45 249 45 249 50.5 313.5 c 132,-1,36
 56 378 56 378 91 431 c 4,37,38
 131 491 131 491 193 517.5 c 132,-1,39
 255 544 255 544 320 533.5 c 132,-1,40
 385 523 385 523 439 487 c 4,41,42
 507 441 507 441 535 366 c 5,43,-1
 497 353 l 5,12,-1
EndSplineSet
EndChar

StartChar: ecircumflex
Encoding: 234 234 133
Width: 598
Flags: W
LayerCount: 2
Fore
SplineSet
133 604 m 5,0,-1
 111 637 l 5,1,-1
 257 734 l 6,2,3
 279 749 279 749 301 734 c 6,4,-1
 447 637 l 5,5,-1
 425 604 l 5,6,-1
 403 570 l 5,7,-1
 279 653 l 5,8,-1
 155 570 l 5,9,-1
 133 604 l 5,0,-1
109 243 m 5,10,-1
 95 281 l 5,11,-1
 486 359 l 5,12,-1
 536 369 l 5,13,-1
 545 291 l 5,14,-1
 123 206 l 5,15,-1
 109 243 l 5,10,-1
499 353 m 5,16,-1
 462 339 l 5,17,18
 444 387 444 387 396 420 c 4,19,20
 358 446 358 446 315.5 454 c 4,21,22
 263 463 263 463 229 447.5 c 4,23,24
 185 427 185 427 160 387 c 4,25,26
 89 271 89 271 179 152 c 4,27,28
 211 110 211 110 265 88 c 132,-1,29
 319 66 319 66 374.5 71.5 c 132,-1,30
 430 77 430 77 480 114 c 5,31,-1
 504 82 l 5,32,-1
 528 50 l 5,33,34
 459 -1 459 -1 381 -8 c 132,-1,35
 303 -15 303 -15 230.5 16 c 132,-1,36
 158 47 158 47 115 104 c 4,37,38
 81 150 81 150 64 199.5 c 132,-1,39
 47 249 47 249 52.5 313.5 c 132,-1,40
 58 378 58 378 93 431 c 4,41,42
 133 491 133 491 195 517.5 c 132,-1,43
 257 544 257 544 322 533.5 c 132,-1,44
 387 523 387 523 441 487 c 4,45,46
 509 441 509 441 537 366 c 5,47,-1
 499 353 l 5,16,-1
EndSplineSet
EndChar

StartChar: edieresis
Encoding: 235 235 134
Width: 589
Flags: WO
LayerCount: 2
Fore
SplineSet
195 607 m 1,0,-1
 155 607 l 1,1,-1
 155 690 l 1,2,-1
 195 690 l 1,3,-1
 235 690 l 1,4,-1
 235 607 l 1,5,-1
 195 607 l 1,0,-1
389 607 m 1,6,-1
 349 607 l 1,7,-1
 349 690 l 1,8,-1
 389 690 l 1,9,-1
 429 690 l 1,10,-1
 429 607 l 1,11,-1
 389 607 l 1,6,-1
112 243 m 1,12,-1
 98 281 l 1,13,-1
 489 359 l 1,14,-1
 539 369 l 1,15,-1
 548 291 l 1,16,-1
 126 206 l 1,17,-1
 112 243 l 1,12,-1
502 353 m 1,18,-1
 465 339 l 1,19,20
 447 387 447 387 399 420 c 0,21,22
 361 446 361 446 318.5 454 c 0,23,24
 266 463 266 463 232 447.5 c 0,25,26
 188 427 188 427 163 387 c 0,27,28
 92 271 92 271 182 152 c 0,29,30
 214 110 214 110 268 88 c 128,-1,31
 322 66 322 66 377.5 71.5 c 128,-1,32
 433 77 433 77 483 114 c 1,33,-1
 507 82 l 1,34,-1
 531 50 l 1,35,36
 462 -1 462 -1 384 -8 c 128,-1,37
 306 -15 306 -15 233.5 16 c 128,-1,38
 161 47 161 47 118 104 c 0,39,40
 84 150 84 150 67 199.5 c 128,-1,41
 50 249 50 249 55.5 313.5 c 128,-1,42
 61 378 61 378 96 431 c 0,43,44
 136 491 136 491 198 517.5 c 128,-1,45
 260 544 260 544 325 533.5 c 128,-1,46
 390 523 390 523 444 487 c 0,47,48
 512 441 512 441 540 366 c 1,49,-1
 502 353 l 1,18,-1
EndSplineSet
EndChar

StartChar: igrave
Encoding: 236 236 135
Width: 336
Flags: W
LayerCount: 2
Fore
SplineSet
17 704 m 5,0,-1
 30 742 l 5,1,-1
 322 645 l 5,2,-1
 309 607 l 5,3,-1
 297 569 l 5,4,-1
 5 666 l 5,5,-1
 17 704 l 5,0,-1
173 43 m 1,6,-1
 133 43 l 1,7,-1
 133 443 l 1,8,-1
 76 443 l 1,9,-1
 76 483 l 1,10,-1
 76 523 l 1,11,-1
 193 523 l 2,12,13
 195 523 195 523 198.5 523 c 128,-1,14
 202 523 202 523 203 523 c 128,-1,15
 204 523 204 523 206 523 c 128,-1,16
 208 523 208 523 209 522 c 128,-1,17
 210 521 210 521 211 520 c 128,-1,18
 212 519 212 519 212 516.5 c 128,-1,19
 212 514 212 514 212.5 511 c 128,-1,20
 213 508 213 508 213 503 c 2,21,-1
 213 43 l 1,22,-1
 173 43 l 1,6,-1
76 40 m 1,23,-1
 76 80 l 1,24,-1
 269 80 l 1,25,-1
 269 40 l 1,26,-1
 269 0 l 1,27,-1
 76 0 l 1,28,-1
 76 40 l 1,23,-1
EndSplineSet
EndChar

StartChar: iacute
Encoding: 237 237 136
Width: 336
Flags: W
LayerCount: 2
Fore
SplineSet
21 618 m 5,0,-1
 8 656 l 5,1,-1
 300 754 l 5,2,-1
 313 716 l 5,3,-1
 326 678 l 5,4,-1
 34 580 l 5,5,-1
 21 618 l 5,0,-1
173 43 m 1,6,-1
 133 43 l 1,7,-1
 133 443 l 1,8,-1
 76 443 l 1,9,-1
 76 483 l 1,10,-1
 76 523 l 1,11,-1
 193 523 l 2,12,13
 195 523 195 523 198.5 523 c 128,-1,14
 202 523 202 523 203 523 c 128,-1,15
 204 523 204 523 206 523 c 128,-1,16
 208 523 208 523 209 522 c 128,-1,17
 210 521 210 521 211 520 c 128,-1,18
 212 519 212 519 212 516.5 c 128,-1,19
 212 514 212 514 212.5 511 c 128,-1,20
 213 508 213 508 213 503 c 2,21,-1
 213 43 l 1,22,-1
 173 43 l 1,6,-1
76 40 m 1,23,-1
 76 80 l 1,24,-1
 269 80 l 1,25,-1
 269 40 l 1,26,-1
 269 0 l 1,27,-1
 76 0 l 1,28,-1
 76 40 l 1,23,-1
EndSplineSet
EndChar

StartChar: icircumflex
Encoding: 238 238 137
Width: 336
Flags: W
LayerCount: 2
Fore
SplineSet
20 604 m 5,0,-1
 -2 637 l 5,1,-1
 144 734 l 6,2,3
 166 749 166 749 188 734 c 6,4,-1
 334 637 l 5,5,-1
 312 604 l 5,6,-1
 290 570 l 5,7,-1
 166 653 l 5,8,-1
 42 570 l 5,9,-1
 20 604 l 5,0,-1
173 43 m 1,10,-1
 133 43 l 1,11,-1
 133 443 l 1,12,-1
 76 443 l 1,13,-1
 76 483 l 1,14,-1
 76 523 l 1,15,-1
 193 523 l 2,16,17
 195 523 195 523 198.5 523 c 128,-1,18
 202 523 202 523 203 523 c 128,-1,19
 204 523 204 523 206 523 c 128,-1,20
 208 523 208 523 209 522 c 128,-1,21
 210 521 210 521 211 520 c 128,-1,22
 212 519 212 519 212 516.5 c 128,-1,23
 212 514 212 514 212.5 511 c 128,-1,24
 213 508 213 508 213 503 c 2,25,-1
 213 43 l 1,26,-1
 173 43 l 1,10,-1
76 40 m 1,27,-1
 76 80 l 1,28,-1
 269 80 l 1,29,-1
 269 40 l 1,30,-1
 269 0 l 1,31,-1
 76 0 l 1,32,-1
 76 40 l 1,27,-1
EndSplineSet
EndChar

StartChar: idieresis
Encoding: 239 239 138
Width: 336
Flags: W
LayerCount: 2
Fore
SplineSet
69 607 m 5,0,-1
 29 607 l 5,1,-1
 29 690 l 5,2,-1
 69 690 l 5,3,-1
 109 690 l 5,4,-1
 109 607 l 5,5,-1
 69 607 l 5,0,-1
263 607 m 5,6,-1
 223 607 l 5,7,-1
 223 690 l 5,8,-1
 263 690 l 5,9,-1
 303 690 l 5,10,-1
 303 607 l 5,11,-1
 263 607 l 5,6,-1
173 43 m 1,12,-1
 133 43 l 1,13,-1
 133 443 l 1,14,-1
 76 443 l 1,15,-1
 76 483 l 1,16,-1
 76 523 l 1,17,-1
 193 523 l 2,18,19
 195 523 195 523 198.5 523 c 128,-1,20
 202 523 202 523 203 523 c 128,-1,21
 204 523 204 523 206 523 c 128,-1,22
 208 523 208 523 209 522 c 128,-1,23
 210 521 210 521 211 520 c 128,-1,24
 212 519 212 519 212 516.5 c 128,-1,25
 212 514 212 514 212.5 511 c 128,-1,26
 213 508 213 508 213 503 c 2,27,-1
 213 43 l 1,28,-1
 173 43 l 1,12,-1
76 40 m 1,29,-1
 76 80 l 1,30,-1
 269 80 l 1,31,-1
 269 40 l 1,32,-1
 269 0 l 1,33,-1
 76 0 l 1,34,-1
 76 40 l 1,29,-1
EndSplineSet
EndChar

StartChar: ograve
Encoding: 242 242 139
Width: 636
Flags: W
LayerCount: 2
Fore
SplineSet
152 709 m 5,0,-1
 165 747 l 5,1,-1
 457 650 l 5,2,-1
 444 612 l 5,3,-1
 432 574 l 5,4,-1
 140 671 l 5,5,-1
 152 709 l 5,0,-1
160.75 458 m 1,6,-1
 186.75 427 l 1,7,8
 140 387 140 387 124.25 338.5 c 0,9,10
 108 288 108 288 123.25 235.5 c 0,11,12
 134 199 134 199 165.75 149 c 0,13,14
 185 119 185 119 219.75 97.5 c 0,15,16
 249 79 249 79 290.25 71.5 c 0,17,18
 332 64 332 64 369.25 67 c 0,19,20
 407 70 407 70 447.75 98 c 1,21,-1
 469.75 65 l 1,22,-1
 491.75 31 l 1,23,24
 418 -18 418 -18 344.25 -18 c 0,25,26
 274 -18 274 -18 207.75 15 c 0,27,28
 133 52 133 52 100.25 104 c 0,29,30
 59 169 59 169 44.75 224 c 0,31,32
 27 295 27 295 49.75 366 c 0,33,34
 72 436 72 436 134.75 489 c 1,35,-1
 160.75 458 l 1,6,-1
469.75 65 m 1,36,-1
 443.75 95 l 1,37,38
 489.75 133 489.75 133 506.25 186.5 c 128,-1,39
 522.75 240 522.75 240 507.75 290.5 c 0,40,41
 493.75 340 493.75 340 463.25 380 c 128,-1,42
 432.75 420 432.75 420 383.25 443.5 c 0,43,44
 340.75 463 340.75 463 284.25 462 c 0,45,46
 237.75 461 237.75 461 182.75 425 c 1,47,-1
 160.75 458 l 1,48,-1
 138.75 491 l 1,49,50
 212.75 541 212.75 541 282.25 541.5 c 0,51,52
 364.75 542 364.75 542 421.25 510.5 c 0,53,54
 503.75 466 503.75 466 530.75 424 c 0,55,56
 555.75 386 555.75 386 576.75 338.5 c 0,57,58
 596.75 291 596.75 291 595.25 233.5 c 128,-1,59
 593.75 176 593.75 176 568.25 124.5 c 128,-1,60
 542.75 73 542.75 73 495.75 34 c 1,61,-1
 469.75 65 l 1,36,-1
EndSplineSet
EndChar

StartChar: oacute
Encoding: 243 243 140
Width: 636
Flags: W
LayerCount: 2
Fore
SplineSet
141 618 m 5,0,-1
 128 656 l 5,1,-1
 420 754 l 5,2,-1
 433 716 l 5,3,-1
 446 678 l 5,4,-1
 154 580 l 5,5,-1
 141 618 l 5,0,-1
160.75 458 m 1,6,-1
 186.75 427 l 1,7,8
 140 387 140 387 124.25 338.5 c 0,9,10
 108 288 108 288 123.25 235.5 c 0,11,12
 134 199 134 199 165.75 149 c 0,13,14
 185 119 185 119 219.75 97.5 c 0,15,16
 249 79 249 79 290.25 71.5 c 0,17,18
 332 64 332 64 369.25 67 c 0,19,20
 407 70 407 70 447.75 98 c 1,21,-1
 469.75 65 l 1,22,-1
 491.75 31 l 1,23,24
 418 -18 418 -18 344.25 -18 c 0,25,26
 274 -18 274 -18 207.75 15 c 0,27,28
 133 52 133 52 100.25 104 c 0,29,30
 59 169 59 169 44.75 224 c 0,31,32
 27 295 27 295 49.75 366 c 0,33,34
 72 436 72 436 134.75 489 c 1,35,-1
 160.75 458 l 1,6,-1
469.75 65 m 1,36,-1
 443.75 95 l 1,37,38
 489.75 133 489.75 133 506.25 186.5 c 128,-1,39
 522.75 240 522.75 240 507.75 290.5 c 0,40,41
 493.75 340 493.75 340 463.25 380 c 128,-1,42
 432.75 420 432.75 420 383.25 443.5 c 0,43,44
 340.75 463 340.75 463 284.25 462 c 0,45,46
 237.75 461 237.75 461 182.75 425 c 1,47,-1
 160.75 458 l 1,48,-1
 138.75 491 l 1,49,50
 212.75 541 212.75 541 282.25 541.5 c 0,51,52
 364.75 542 364.75 542 421.25 510.5 c 0,53,54
 503.75 466 503.75 466 530.75 424 c 0,55,56
 555.75 386 555.75 386 576.75 338.5 c 0,57,58
 596.75 291 596.75 291 595.25 233.5 c 128,-1,59
 593.75 176 593.75 176 568.25 124.5 c 128,-1,60
 542.75 73 542.75 73 495.75 34 c 1,61,-1
 469.75 65 l 1,36,-1
EndSplineSet
EndChar

StartChar: ocircumflex
Encoding: 244 244 141
Width: 636
Flags: W
LayerCount: 2
Fore
SplineSet
142 604 m 5,0,-1
 120 637 l 5,1,-1
 266 734 l 6,2,3
 288 749 288 749 310 734 c 6,4,-1
 456 637 l 5,5,-1
 434 604 l 5,6,-1
 412 570 l 5,7,-1
 288 653 l 5,8,-1
 164 570 l 5,9,-1
 142 604 l 5,0,-1
160.75 458 m 1,10,-1
 186.75 427 l 1,11,12
 140 387 140 387 124.25 338.5 c 0,13,14
 108 288 108 288 123.25 235.5 c 0,15,16
 134 199 134 199 165.75 149 c 0,17,18
 185 119 185 119 219.75 97.5 c 0,19,20
 249 79 249 79 290.25 71.5 c 0,21,22
 332 64 332 64 369.25 67 c 0,23,24
 407 70 407 70 447.75 98 c 1,25,-1
 469.75 65 l 1,26,-1
 491.75 31 l 1,27,28
 418 -18 418 -18 344.25 -18 c 0,29,30
 274 -18 274 -18 207.75 15 c 0,31,32
 133 52 133 52 100.25 104 c 0,33,34
 59 169 59 169 44.75 224 c 0,35,36
 27 295 27 295 49.75 366 c 0,37,38
 72 436 72 436 134.75 489 c 1,39,-1
 160.75 458 l 1,10,-1
469.75 65 m 1,40,-1
 443.75 95 l 1,41,42
 489.75 133 489.75 133 506.25 186.5 c 128,-1,43
 522.75 240 522.75 240 507.75 290.5 c 0,44,45
 493.75 340 493.75 340 463.25 380 c 128,-1,46
 432.75 420 432.75 420 383.25 443.5 c 0,47,48
 340.75 463 340.75 463 284.25 462 c 0,49,50
 237.75 461 237.75 461 182.75 425 c 1,51,-1
 160.75 458 l 1,52,-1
 138.75 491 l 1,53,54
 212.75 541 212.75 541 282.25 541.5 c 0,55,56
 364.75 542 364.75 542 421.25 510.5 c 0,57,58
 503.75 466 503.75 466 530.75 424 c 0,59,60
 555.75 386 555.75 386 576.75 338.5 c 0,61,62
 596.75 291 596.75 291 595.25 233.5 c 128,-1,63
 593.75 176 593.75 176 568.25 124.5 c 128,-1,64
 542.75 73 542.75 73 495.75 34 c 1,65,-1
 469.75 65 l 1,40,-1
EndSplineSet
EndChar

StartChar: odieresis
Encoding: 246 246 142
Width: 636
Flags: W
LayerCount: 2
Fore
SplineSet
204 607 m 5,0,-1
 164 607 l 5,1,-1
 164 690 l 5,2,-1
 204 690 l 5,3,-1
 244 690 l 5,4,-1
 244 607 l 5,5,-1
 204 607 l 5,0,-1
398 607 m 5,6,-1
 358 607 l 5,7,-1
 358 690 l 5,8,-1
 398 690 l 5,9,-1
 438 690 l 5,10,-1
 438 607 l 5,11,-1
 398 607 l 5,6,-1
160.75 458 m 1,12,-1
 186.75 427 l 1,13,14
 140 387 140 387 124.25 338.5 c 0,15,16
 108 288 108 288 123.25 235.5 c 0,17,18
 134 199 134 199 165.75 149 c 0,19,20
 185 119 185 119 219.75 97.5 c 0,21,22
 249 79 249 79 290.25 71.5 c 0,23,24
 332 64 332 64 369.25 67 c 0,25,26
 407 70 407 70 447.75 98 c 1,27,-1
 469.75 65 l 1,28,-1
 491.75 31 l 1,29,30
 418 -18 418 -18 344.25 -18 c 0,31,32
 274 -18 274 -18 207.75 15 c 0,33,34
 133 52 133 52 100.25 104 c 0,35,36
 59 169 59 169 44.75 224 c 0,37,38
 27 295 27 295 49.75 366 c 0,39,40
 72 436 72 436 134.75 489 c 1,41,-1
 160.75 458 l 1,12,-1
469.75 65 m 1,42,-1
 443.75 95 l 1,43,44
 489.75 133 489.75 133 506.25 186.5 c 128,-1,45
 522.75 240 522.75 240 507.75 290.5 c 0,46,47
 493.75 340 493.75 340 463.25 380 c 128,-1,48
 432.75 420 432.75 420 383.25 443.5 c 0,49,50
 340.75 463 340.75 463 284.25 462 c 0,51,52
 237.75 461 237.75 461 182.75 425 c 1,53,-1
 160.75 458 l 1,54,-1
 138.75 491 l 1,55,56
 212.75 541 212.75 541 282.25 541.5 c 0,57,58
 364.75 542 364.75 542 421.25 510.5 c 0,59,60
 503.75 466 503.75 466 530.75 424 c 0,61,62
 555.75 386 555.75 386 576.75 338.5 c 0,63,64
 596.75 291 596.75 291 595.25 233.5 c 128,-1,65
 593.75 176 593.75 176 568.25 124.5 c 128,-1,66
 542.75 73 542.75 73 495.75 34 c 1,67,-1
 469.75 65 l 1,42,-1
EndSplineSet
EndChar

StartChar: oslash
Encoding: 248 248 143
Width: 636
Flags: W
LayerCount: 2
Fore
SplineSet
543.704101562 505.689453125 m 1,0,-1
 573 478 l 1,1,-1
 124.643554688 -5.220703125 l 1,2,-1
 95.3466796875 22.4697265625 l 1,3,-1
 66.05078125 50.1591796875 l 1,4,-1
 514.407226562 533.379882812 l 1,5,-1
 543.704101562 505.689453125 l 1,0,-1
160.75 458 m 1,6,-1
 186.75 427 l 1,7,8
 140 387 140 387 124.25 338.5 c 0,9,10
 108 288 108 288 123.25 235.5 c 0,11,12
 134 199 134 199 165.75 149 c 0,13,14
 185 119 185 119 219.75 97.5 c 0,15,16
 249 79 249 79 290.25 71.5 c 0,17,18
 332 64 332 64 369.25 67 c 0,19,20
 407 70 407 70 447.75 98 c 1,21,-1
 469.75 65 l 1,22,-1
 491.75 31 l 1,23,24
 418 -18 418 -18 344.25 -18 c 0,25,26
 274 -18 274 -18 207.75 15 c 0,27,28
 133 52 133 52 100.25 104 c 0,29,30
 59 169 59 169 44.75 224 c 0,31,32
 27 295 27 295 49.75 366 c 0,33,34
 72 436 72 436 134.75 489 c 1,35,-1
 160.75 458 l 1,6,-1
469.75 65 m 1,36,-1
 443.75 95 l 1,37,38
 489.75 133 489.75 133 506.25 186.5 c 128,-1,39
 522.75 240 522.75 240 507.75 290.5 c 0,40,41
 493.75 340 493.75 340 463.25 380 c 128,-1,42
 432.75 420 432.75 420 383.25 443.5 c 0,43,44
 340.75 463 340.75 463 284.25 462 c 0,45,46
 237.75 461 237.75 461 182.75 425 c 1,47,-1
 160.75 458 l 1,48,-1
 138.75 491 l 1,49,50
 212.75 541 212.75 541 282.25 541.5 c 0,51,52
 364.75 542 364.75 542 421.25 510.5 c 0,53,54
 503.75 466 503.75 466 530.75 424 c 0,55,56
 555.75 386 555.75 386 576.75 338.5 c 0,57,58
 596.75 291 596.75 291 595.25 233.5 c 128,-1,59
 593.75 176 593.75 176 568.25 124.5 c 128,-1,60
 542.75 73 542.75 73 495.75 34 c 1,61,-1
 469.75 65 l 1,36,-1
EndSplineSet
EndChar

StartChar: ugrave
Encoding: 249 249 144
Width: 619
Flags: W
LayerCount: 2
Fore
SplineSet
146 706 m 5,0,-1
 159 744 l 5,1,-1
 451 647 l 5,2,-1
 438 609 l 5,3,-1
 426 571 l 5,4,-1
 134 668 l 5,5,-1
 146 706 l 5,0,-1
564 39 m 1,6,-1
 564 -1 l 1,7,-1
 468 -1 l 2,8,9
 451 -1 451 -1 439.5 12 c 128,-1,10
 428 25 428 25 428 39 c 2,11,-1
 428 444 l 1,12,-1
 371 444 l 1,13,-1
 371 484 l 1,14,-1
 371 524 l 1,15,-1
 488 524 l 2,16,17
 490 524 490 524 494 524 c 128,-1,18
 498 524 498 524 499 524 c 128,-1,19
 500 524 500 524 502.5 523.5 c 128,-1,20
 505 523 505 523 505.5 522 c 128,-1,21
 506 521 506 521 506.5 518.5 c 128,-1,22
 507 516 507 516 507.5 512.5 c 128,-1,23
 508 509 508 509 508 504 c 2,24,-1
 508 79 l 1,25,-1
 564 79 l 1,26,-1
 564 39 l 1,6,-1
468 118 m 1,27,-1
 493 88 l 1,28,29
 436 39 436 39 372.5 13.5 c 128,-1,30
 309 -12 309 -12 252 -12 c 0,31,32
 190 -12 190 -12 146 22 c 128,-1,33
 102 56 102 56 102 118 c 2,34,-1
 102 444 l 1,35,-1
 45 444 l 1,36,-1
 45 484 l 1,37,-1
 45 524 l 1,38,-1
 162 524 l 2,39,40
 164 524 164 524 168 524 c 128,-1,41
 172 524 172 524 173 524 c 128,-1,42
 174 524 174 524 176.5 523.5 c 128,-1,43
 179 523 179 523 179.5 522 c 128,-1,44
 180 521 180 521 180.5 518.5 c 128,-1,45
 181 516 181 516 181.5 512.5 c 128,-1,46
 182 509 182 509 182 504 c 2,47,-1
 182 118 l 2,48,49
 182 68 182 68 252 68 c 0,50,51
 278 68 278 68 308.5 76.5 c 128,-1,52
 339 85 339 85 374.5 103.5 c 128,-1,53
 410 122 410 122 442 149 c 1,54,-1
 468 118 l 1,27,-1
EndSplineSet
EndChar

StartChar: uacute
Encoding: 250 250 145
Width: 619
Flags: W
LayerCount: 2
Fore
SplineSet
133 618 m 5,0,-1
 120 656 l 5,1,-1
 412 754 l 5,2,-1
 425 716 l 5,3,-1
 438 678 l 5,4,-1
 146 580 l 5,5,-1
 133 618 l 5,0,-1
564 39 m 1,6,-1
 564 -1 l 1,7,-1
 468 -1 l 2,8,9
 451 -1 451 -1 439.5 12 c 128,-1,10
 428 25 428 25 428 39 c 2,11,-1
 428 444 l 1,12,-1
 371 444 l 1,13,-1
 371 484 l 1,14,-1
 371 524 l 1,15,-1
 488 524 l 2,16,17
 490 524 490 524 494 524 c 128,-1,18
 498 524 498 524 499 524 c 128,-1,19
 500 524 500 524 502.5 523.5 c 128,-1,20
 505 523 505 523 505.5 522 c 128,-1,21
 506 521 506 521 506.5 518.5 c 128,-1,22
 507 516 507 516 507.5 512.5 c 128,-1,23
 508 509 508 509 508 504 c 2,24,-1
 508 79 l 1,25,-1
 564 79 l 1,26,-1
 564 39 l 1,6,-1
468 118 m 1,27,-1
 493 88 l 1,28,29
 436 39 436 39 372.5 13.5 c 128,-1,30
 309 -12 309 -12 252 -12 c 0,31,32
 190 -12 190 -12 146 22 c 128,-1,33
 102 56 102 56 102 118 c 2,34,-1
 102 444 l 1,35,-1
 45 444 l 1,36,-1
 45 484 l 1,37,-1
 45 524 l 1,38,-1
 162 524 l 2,39,40
 164 524 164 524 168 524 c 128,-1,41
 172 524 172 524 173 524 c 128,-1,42
 174 524 174 524 176.5 523.5 c 128,-1,43
 179 523 179 523 179.5 522 c 128,-1,44
 180 521 180 521 180.5 518.5 c 128,-1,45
 181 516 181 516 181.5 512.5 c 128,-1,46
 182 509 182 509 182 504 c 2,47,-1
 182 118 l 2,48,49
 182 68 182 68 252 68 c 0,50,51
 278 68 278 68 308.5 76.5 c 128,-1,52
 339 85 339 85 374.5 103.5 c 128,-1,53
 410 122 410 122 442 149 c 1,54,-1
 468 118 l 1,27,-1
EndSplineSet
EndChar

StartChar: ucircumflex
Encoding: 251 251 146
Width: 619
Flags: W
LayerCount: 2
Fore
SplineSet
150 604 m 5,0,-1
 128 637 l 5,1,-1
 274 734 l 6,2,3
 296 749 296 749 318 734 c 6,4,-1
 464 637 l 5,5,-1
 442 604 l 5,6,-1
 420 570 l 5,7,-1
 296 653 l 5,8,-1
 172 570 l 5,9,-1
 150 604 l 5,0,-1
564 39 m 1,10,-1
 564 -1 l 1,11,-1
 468 -1 l 2,12,13
 451 -1 451 -1 439.5 12 c 128,-1,14
 428 25 428 25 428 39 c 2,15,-1
 428 444 l 1,16,-1
 371 444 l 1,17,-1
 371 484 l 1,18,-1
 371 524 l 1,19,-1
 488 524 l 2,20,21
 490 524 490 524 494 524 c 128,-1,22
 498 524 498 524 499 524 c 128,-1,23
 500 524 500 524 502.5 523.5 c 128,-1,24
 505 523 505 523 505.5 522 c 128,-1,25
 506 521 506 521 506.5 518.5 c 128,-1,26
 507 516 507 516 507.5 512.5 c 128,-1,27
 508 509 508 509 508 504 c 2,28,-1
 508 79 l 1,29,-1
 564 79 l 1,30,-1
 564 39 l 1,10,-1
468 118 m 1,31,-1
 493 88 l 1,32,33
 436 39 436 39 372.5 13.5 c 128,-1,34
 309 -12 309 -12 252 -12 c 0,35,36
 190 -12 190 -12 146 22 c 128,-1,37
 102 56 102 56 102 118 c 2,38,-1
 102 444 l 1,39,-1
 45 444 l 1,40,-1
 45 484 l 1,41,-1
 45 524 l 1,42,-1
 162 524 l 2,43,44
 164 524 164 524 168 524 c 128,-1,45
 172 524 172 524 173 524 c 128,-1,46
 174 524 174 524 176.5 523.5 c 128,-1,47
 179 523 179 523 179.5 522 c 128,-1,48
 180 521 180 521 180.5 518.5 c 128,-1,49
 181 516 181 516 181.5 512.5 c 128,-1,50
 182 509 182 509 182 504 c 2,51,-1
 182 118 l 2,52,53
 182 68 182 68 252 68 c 0,54,55
 278 68 278 68 308.5 76.5 c 128,-1,56
 339 85 339 85 374.5 103.5 c 128,-1,57
 410 122 410 122 442 149 c 1,58,-1
 468 118 l 1,31,-1
EndSplineSet
EndChar

StartChar: udieresis
Encoding: 252 252 147
Width: 619
Flags: W
LayerCount: 2
Fore
SplineSet
190 607 m 5,0,-1
 150 607 l 5,1,-1
 150 690 l 5,2,-1
 190 690 l 5,3,-1
 230 690 l 5,4,-1
 230 607 l 5,5,-1
 190 607 l 5,0,-1
384 607 m 5,6,-1
 344 607 l 5,7,-1
 344 690 l 5,8,-1
 384 690 l 5,9,-1
 424 690 l 5,10,-1
 424 607 l 5,11,-1
 384 607 l 5,6,-1
564 39 m 1,12,-1
 564 -1 l 1,13,-1
 468 -1 l 2,14,15
 451 -1 451 -1 439.5 12 c 128,-1,16
 428 25 428 25 428 39 c 2,17,-1
 428 444 l 1,18,-1
 371 444 l 1,19,-1
 371 484 l 1,20,-1
 371 524 l 1,21,-1
 488 524 l 2,22,23
 490 524 490 524 494 524 c 128,-1,24
 498 524 498 524 499 524 c 128,-1,25
 500 524 500 524 502.5 523.5 c 128,-1,26
 505 523 505 523 505.5 522 c 128,-1,27
 506 521 506 521 506.5 518.5 c 128,-1,28
 507 516 507 516 507.5 512.5 c 128,-1,29
 508 509 508 509 508 504 c 2,30,-1
 508 79 l 1,31,-1
 564 79 l 1,32,-1
 564 39 l 1,12,-1
468 118 m 1,33,-1
 493 88 l 1,34,35
 436 39 436 39 372.5 13.5 c 128,-1,36
 309 -12 309 -12 252 -12 c 0,37,38
 190 -12 190 -12 146 22 c 128,-1,39
 102 56 102 56 102 118 c 2,40,-1
 102 444 l 1,41,-1
 45 444 l 1,42,-1
 45 484 l 1,43,-1
 45 524 l 1,44,-1
 162 524 l 2,45,46
 164 524 164 524 168 524 c 128,-1,47
 172 524 172 524 173 524 c 128,-1,48
 174 524 174 524 176.5 523.5 c 128,-1,49
 179 523 179 523 179.5 522 c 128,-1,50
 180 521 180 521 180.5 518.5 c 128,-1,51
 181 516 181 516 181.5 512.5 c 128,-1,52
 182 509 182 509 182 504 c 2,53,-1
 182 118 l 2,54,55
 182 68 182 68 252 68 c 0,56,57
 278 68 278 68 308.5 76.5 c 128,-1,58
 339 85 339 85 374.5 103.5 c 128,-1,59
 410 122 410 122 442 149 c 1,60,-1
 468 118 l 1,33,-1
EndSplineSet
EndChar

StartChar: yacute
Encoding: 253 253 148
Width: 640
Flags: W
LayerCount: 2
Fore
SplineSet
171 618 m 5,0,-1
 158 656 l 5,1,-1
 450 754 l 5,2,-1
 463 716 l 5,3,-1
 476 678 l 5,4,-1
 184 580 l 5,5,-1
 171 618 l 5,0,-1
522 -36 m 1,6,-1
 482 -36 l 1,7,-1
 482 443 l 1,8,-1
 425 443 l 1,9,-1
 425 483 l 1,10,-1
 425 523 l 1,11,-1
 542 523 l 2,12,13
 544 523 544 523 548 523 c 128,-1,14
 552 523 552 523 553.5 523 c 128,-1,15
 555 523 555 523 557 522.5 c 128,-1,16
 559 522 559 522 559.5 521 c 128,-1,17
 560 520 560 520 560.5 517.5 c 128,-1,18
 561 515 561 515 561.5 511.5 c 128,-1,19
 562 508 562 508 562 503 c 2,20,-1
 562 -36 l 1,21,-1
 522 -36 l 1,6,-1
522 131 m 1,22,-1
 547 101 l 1,23,24
 521 79 521 79 493 60.5 c 128,-1,25
 465 42 465 42 437.5 28.5 c 128,-1,26
 410 15 410 15 382 6 c 128,-1,27
 354 -3 354 -3 327.5 -7.5 c 128,-1,28
 301 -12 301 -12 275 -12 c 0,29,30
 206 -12 206 -12 157.5 25.5 c 128,-1,31
 109 63 109 63 109 131 c 2,32,-1
 109 443 l 1,33,-1
 53 443 l 1,34,-1
 53 483 l 1,35,-1
 53 523 l 1,36,-1
 169 523 l 2,37,38
 172 523 172 523 175.5 523 c 128,-1,39
 179 523 179 523 180.5 523 c 128,-1,40
 182 523 182 523 184 522.5 c 128,-1,41
 186 522 186 522 186.5 521 c 128,-1,42
 187 520 187 520 188 517.5 c 128,-1,43
 189 515 189 515 189 511.5 c 128,-1,44
 189 508 189 508 189 503 c 2,45,-1
 189 131 l 2,46,47
 189 68 189 68 275 68 c 0,48,49
 323 68 323 68 382 92 c 128,-1,50
 441 116 441 116 496 162 c 1,51,-1
 522 131 l 1,22,-1
522 483 m 1,52,-1
 562 483 l 1,53,-1
 562 -36 l 2,54,55
 562 -99 562 -99 522 -146 c 0,56,57
 481 -196 481 -196 413 -212.5 c 128,-1,58
 345 -229 345 -229 267.5 -208.5 c 128,-1,59
 190 -188 190 -188 123 -132 c 1,60,-1
 149 -102 l 1,61,-1
 175 -71 l 1,62,63
 228 -116 228 -116 288.5 -130.5 c 128,-1,64
 349 -145 349 -145 393.5 -134 c 128,-1,65
 438 -123 438 -123 461 -95 c 0,66,67
 482 -70 482 -70 482 -36 c 2,68,-1
 482 483 l 1,69,-1
 522 483 l 1,52,-1
EndSplineSet
EndChar

StartChar: ydieresis
Encoding: 255 255 149
Width: 640
Flags: W
LayerCount: 2
Fore
SplineSet
234 607 m 5,0,-1
 194 607 l 5,1,-1
 194 690 l 5,2,-1
 234 690 l 5,3,-1
 274 690 l 5,4,-1
 274 607 l 5,5,-1
 234 607 l 5,0,-1
428 607 m 5,6,-1
 388 607 l 5,7,-1
 388 690 l 5,8,-1
 428 690 l 5,9,-1
 468 690 l 5,10,-1
 468 607 l 5,11,-1
 428 607 l 5,6,-1
522 -36 m 1,12,-1
 482 -36 l 1,13,-1
 482 443 l 1,14,-1
 425 443 l 1,15,-1
 425 483 l 1,16,-1
 425 523 l 1,17,-1
 542 523 l 2,18,19
 544 523 544 523 548 523 c 128,-1,20
 552 523 552 523 553.5 523 c 128,-1,21
 555 523 555 523 557 522.5 c 128,-1,22
 559 522 559 522 559.5 521 c 128,-1,23
 560 520 560 520 560.5 517.5 c 128,-1,24
 561 515 561 515 561.5 511.5 c 128,-1,25
 562 508 562 508 562 503 c 2,26,-1
 562 -36 l 1,27,-1
 522 -36 l 1,12,-1
522 131 m 1,28,-1
 547 101 l 1,29,30
 521 79 521 79 493 60.5 c 128,-1,31
 465 42 465 42 437.5 28.5 c 128,-1,32
 410 15 410 15 382 6 c 128,-1,33
 354 -3 354 -3 327.5 -7.5 c 128,-1,34
 301 -12 301 -12 275 -12 c 0,35,36
 206 -12 206 -12 157.5 25.5 c 128,-1,37
 109 63 109 63 109 131 c 2,38,-1
 109 443 l 1,39,-1
 53 443 l 1,40,-1
 53 483 l 1,41,-1
 53 523 l 1,42,-1
 169 523 l 2,43,44
 172 523 172 523 175.5 523 c 128,-1,45
 179 523 179 523 180.5 523 c 128,-1,46
 182 523 182 523 184 522.5 c 128,-1,47
 186 522 186 522 186.5 521 c 128,-1,48
 187 520 187 520 188 517.5 c 128,-1,49
 189 515 189 515 189 511.5 c 128,-1,50
 189 508 189 508 189 503 c 2,51,-1
 189 131 l 2,52,53
 189 68 189 68 275 68 c 0,54,55
 323 68 323 68 382 92 c 128,-1,56
 441 116 441 116 496 162 c 1,57,-1
 522 131 l 1,28,-1
522 483 m 1,58,-1
 562 483 l 1,59,-1
 562 -36 l 2,60,61
 562 -99 562 -99 522 -146 c 0,62,63
 481 -196 481 -196 413 -212.5 c 128,-1,64
 345 -229 345 -229 267.5 -208.5 c 128,-1,65
 190 -188 190 -188 123 -132 c 1,66,-1
 149 -102 l 1,67,-1
 175 -71 l 1,68,69
 228 -116 228 -116 288.5 -130.5 c 128,-1,70
 349 -145 349 -145 393.5 -134 c 128,-1,71
 438 -123 438 -123 461 -95 c 0,72,73
 482 -70 482 -70 482 -36 c 2,74,-1
 482 483 l 1,75,-1
 522 483 l 1,58,-1
EndSplineSet
EndChar
